<svg xmlns="http://www.w3.org/2000/svg" width="286.989" height="48" viewBox="0 0 286.989 48">
  <g id="自助設計" transform="translate(-118.435 -185.598)">
    <g id="Group_12" data-name="Group 12">
      <g id="Group_11" data-name="Group 11">
        <g id="Group_10" data-name="Group 10">
          <g id="Group_9" data-name="Group 9">
            <path id="Path_2" data-name="Path 2" d="M118.435,223.6V197.5h2.37V208.09h14.207V197.5h2.37v26.1h-2.37V210.122H120.805V223.6Z" fill="#231815"/>
            <path id="Path_3" data-name="Path 3" d="M143.87,223.6V197.5h12.923v2.228H146.241v8.164h10.552v2.228H146.241V221.37h10.552V223.6Z" fill="#231815"/>
            <path id="Path_4" data-name="Path 4" d="M162.6,223.6V197.5h2.371V221.37h8.948V223.6Z" fill="#231815"/>
            <path id="Path_5" data-name="Path 5" d="M177.682,223.6V197.5h2.371v26.1Z" fill="#231815"/>
            <path id="Path_6" data-name="Path 6" d="M213.26,210.6a13.331,13.331,0,0,1-1.052,5.248,13.569,13.569,0,0,1-3.032,4.429,14.283,14.283,0,0,1-15.241,2.986,14.04,14.04,0,0,1-7.562-7.432,13.29,13.29,0,0,1-1.043-5.231,13.5,13.5,0,0,1,1.043-5.285,13.71,13.71,0,0,1,3.041-4.465,13.237,13.237,0,0,1,4.476-2.942,15.059,15.059,0,0,1,10.8.009,13.517,13.517,0,0,1,4.486,2.933,13.707,13.707,0,0,1,3.04,4.465A13.505,13.505,0,0,1,213.26,210.6Zm-13.983,11.567a11.378,11.378,0,0,0,4.388-.855,11.533,11.533,0,0,0,3.728-2.5,11.688,11.688,0,0,0,0-16.434,11.116,11.116,0,0,0-3.7-2.494,11.461,11.461,0,0,0-4.414-.857,11.226,11.226,0,0,0-4.371.857,11.6,11.6,0,0,0-3.71,2.494,11.931,11.931,0,0,0-2.5,3.77,11.685,11.685,0,0,0,2.5,12.664,11.165,11.165,0,0,0,3.675,2.5A11.353,11.353,0,0,0,199.277,222.171Z" fill="#231815"/>
            <path id="Path_7" data-name="Path 7" d="M216.5,219.213l2.032-1.089a5.606,5.606,0,0,0,1.97,2.987,5.4,5.4,0,0,0,3.36,1.06,5.075,5.075,0,0,0,3.867-1.462,5.628,5.628,0,0,0,1.391-4.046,5.08,5.08,0,0,0-.936-3.136,12.747,12.747,0,0,0-4.02-2.889,17.956,17.956,0,0,1-5.24-3.672,5.812,5.812,0,0,1-1.3-3.814,5.893,5.893,0,0,1,1.88-4.526,6.873,6.873,0,0,1,4.875-1.748,6.771,6.771,0,0,1,3.414.83,6.2,6.2,0,0,1,2.361,2.485l-1.836,1.106a3.976,3.976,0,0,0-1.613-1.711A4.941,4.941,0,0,0,224.24,199a4.16,4.16,0,0,0-3.066,1.132,4.112,4.112,0,0,0-1.141,3.057q0,2.745,4.528,5.114c.546.286.962.505,1.247.661a13.127,13.127,0,0,1,4.457,3.466,7.321,7.321,0,0,1,1.122,4.233,7.76,7.76,0,0,1-12.022,6.355A8.309,8.309,0,0,1,216.5,219.213Z" fill="#231815"/>
          </g>
        </g>
      </g>
    </g>
    <text id="自助設計-2" data-name="自助設計" transform="translate(323.424 223.598)" font-size="37.776" font-family="MicrosoftJhengHeiUILight, Microsoft JhengHei UI" letter-spacing="0.1em"><tspan x="-81.218" y="0">自助設計</tspan></text>
  </g>
</svg>
