<svg xmlns="http://www.w3.org/2000/svg" xmlns:xlink="http://www.w3.org/1999/xlink" width="104.084" height="104.084" viewBox="0 0 104.084 104.084">
  <defs>
    <clipPath id="clip-path">
      <circle id="Ellipse_7" data-name="Ellipse 7" cx="52.042" cy="52.042" r="52.042" transform="translate(99.642 -802.496)" fill="none"/>
    </clipPath>
  </defs>
  <g id="Group_395" data-name="Group 395" transform="translate(-99.643 802.496)">
    <g id="Group_394" data-name="Group 394" clip-path="url(#clip-path)">
      <g id="Group_393" data-name="Group 393">
        <g id="Group_264" data-name="Group 264">
          <line id="Line_1" data-name="Line 1" x1="0.027" y2="0.014" transform="translate(21.278 -756.424)" fill="#fff"/>
          <g id="Group_263" data-name="Group 263">
            <path id="Path_3105" data-name="Path 3105" d="M20.769-756.62l-.027.014c-.04.021.259.159.326.127l.024-.011C21.13-756.508,20.837-756.654,20.769-756.62Z" fill="#231815" opacity="0.118"/>
            <path id="Path_3106" data-name="Path 3106" d="M20.8-756.29l-.027.015c-.02.01.39.218.486.172l.022-.01C21.3-756.122,20.9-756.341,20.8-756.29Z" fill="#231815" opacity="0.118"/>
            <path id="Path_3107" data-name="Path 3107" d="M20.684-756.735l-.028.015c-.037.02.281.168.35.134l.023-.012C21.066-756.616,20.753-756.771,20.684-756.735Z" fill="#231815" opacity="0.118"/>
            <path id="Path_3108" data-name="Path 3108" d="M20.658-756.555l-.027.014c-.021.012.381.217.474.171l.023-.011C21.148-756.391,20.75-756.6,20.658-756.555Z" fill="#231815" opacity="0.118"/>
            <path id="Path_3109" data-name="Path 3109" d="M20.75-756.741l-.028.014c-.043.021.232.145.294.118l.026-.011C21.082-756.638,20.814-756.772,20.75-756.741Z" fill="#231815" opacity="0.118"/>
            <path id="Path_3110" data-name="Path 3110" d="M20.646-756.832l-.028.014c-.037.02.278.167.347.133l.023-.011C21.025-756.715,20.715-756.869,20.646-756.832Z" fill="#231815" opacity="0.118"/>
            <path id="Path_3111" data-name="Path 3111" d="M20.74-756.392l-.027.014c-.019.01.4.222.494.176l.022-.011C21.246-756.221,20.836-756.444,20.74-756.392Z" fill="#231815" opacity="0.118"/>
            <path id="Path_3112" data-name="Path 3112" d="M20.612-756.91l-.027.014c-.039.021.271.165.339.132l.023-.012C20.985-756.795,20.68-756.946,20.612-756.91Z" fill="#231815" opacity="0.118"/>
            <path id="Path_3113" data-name="Path 3113" d="M20.612-756.766l-.027.015a.689.689,0,0,0,.406.15l.023-.011C21.043-756.627,20.691-756.809,20.612-756.766Z" fill="#231815" opacity="0.118"/>
            <path id="Path_3114" data-name="Path 3114" d="M20.734-756.538l-.027.014a.692.692,0,0,0,.408.151l.022-.011C21.167-756.4,20.813-756.581,20.734-756.538Z" fill="#231815" opacity="0.118"/>
            <path id="Path_3115" data-name="Path 3115" d="M20.682-756.951l-.025.015c-.049.029.208.137.258.108l.023-.013C20.987-756.87,20.732-756.981,20.682-756.951Z" fill="#231815" opacity="0.118"/>
          </g>
        </g>
        <g id="Group_266" data-name="Group 266">
          <path id="Path_3116" data-name="Path 3116" d="M86.225-793.245" fill="#fff"/>
          <g id="Group_265" data-name="Group 265">
            <path id="Path_3117" data-name="Path 3117" d="M86.756-792.771c.027,0-.226-.368-.326-.368C86.4-793.139,86.655-792.771,86.756-792.771Z" fill="#231815" opacity="0.118"/>
            <path id="Path_3118" data-name="Path 3118" d="M86.755-792.442s-.325-.371-.326-.372c-.056-.056-.263-.327-.372-.327,0,0,.325.371.326.372C86.439-792.713,86.646-792.442,86.755-792.442Z" fill="#231815" opacity="0.118"/>
            <path id="Path_3119" data-name="Path 3119" d="M86.7-792.859c.052,0-.129-.235-.193-.235S86.639-792.859,86.7-792.859Z" fill="#231815" opacity="0.118"/>
            <path id="Path_3120" data-name="Path 3120" d="M86.612-792.722c.028,0-.223-.366-.323-.366C86.261-793.088,86.513-792.722,86.612-792.722Z" fill="#231815" opacity="0.118"/>
            <path id="Path_3121" data-name="Path 3121" d="M86.774-792.867c.047,0-.152-.266-.224-.266C86.5-793.133,86.7-792.867,86.774-792.867Z" fill="#231815" opacity="0.118"/>
            <path id="Path_3122" data-name="Path 3122" d="M86.7-792.927c.059,0-.072-.162-.12-.162S86.654-792.927,86.7-792.927Z" fill="#231815" opacity="0.118"/>
            <path id="Path_3123" data-name="Path 3123" d="M86.686-792.564c.007,0-.262-.307-.259-.3-.052-.052-.209-.26-.305-.26-.007,0,.262.308.259.305C86.433-792.772,86.59-792.564,86.686-792.564Z" fill="#231815" opacity="0.118"/>
            <path id="Path_3124" data-name="Path 3124" d="M86.706-792.959c.077,0,0-.107-.035-.107C86.594-793.066,86.667-792.959,86.706-792.959Z" fill="#231815" opacity="0.118"/>
            <path id="Path_3125" data-name="Path 3125" d="M86.641-792.881c.057,0-.094-.189-.147-.189S86.587-792.881,86.641-792.881Z" fill="#231815" opacity="0.118"/>
            <path id="Path_3126" data-name="Path 3126" d="M86.71-792.705c-.088,0-.255-.417-.418-.417C86.38-793.122,86.547-792.705,86.71-792.705Z" fill="#231815" opacity="0.118"/>
            <path id="Path_3127" data-name="Path 3127" d="M86.787-793c.079,0,0-.108-.037-.108C86.672-793.1,86.748-793,86.787-793Z" fill="#231815" opacity="0.118"/>
          </g>
        </g>
        <g id="Group_392" data-name="Group 392">
          <g id="Group_362" data-name="Group 362">
            <g id="Group_267" data-name="Group 267">
              <path id="Path_3128" data-name="Path 3128" d="M208.394-723.527s-25.022,1.747-56.71,1.747-56.71-1.747-56.71-1.747c-1.943-13-.545-81.368-.545-81.368,11.085-21.348,5.983-47.309,5.983-47.309,3.949-1.809,26.691-10.346,26.691-10.346l6.109-3.211c3.816,2.527,18.472,2.6,18.472,2.6s14.657-.07,18.473-2.6l6.108,3.211s22.742,8.537,26.692,10.346c0,0-5.1,25.961,5.983,47.309C208.94-804.9,210.338-736.523,208.394-723.527Z" fill="#fff"/>
              <path id="Path_3129" data-name="Path 3129" d="M151.684-721.578c-31.332,0-56.473-1.73-56.724-1.748a.2.2,0,0,1-.185-.171c-1.924-12.864-.562-80.718-.548-81.4a.2.2,0,0,1,.023-.089c5.706-10.989,7.025-23.228,7.126-31.559a85.038,85.038,0,0,0-1.162-15.618.2.2,0,0,1,.114-.222c3.875-1.775,26.065-10.111,26.692-10.347l6.1-3.206a.2.2,0,0,1,.205.011c3.723,2.465,18.216,2.563,18.362,2.564s14.638-.1,18.36-2.564a.2.2,0,0,1,.206-.011l6.1,3.206c.627.236,22.818,8.572,26.693,10.347a.2.2,0,0,1,.114.222,84.931,84.931,0,0,0-1.162,15.618c.1,8.331,1.419,20.57,7.126,31.559a.2.2,0,0,1,.023.089c.014.684,1.376,68.538-.549,81.4a.2.2,0,0,1-.185.171C208.158-723.308,183.017-721.578,151.684-721.578ZM95.15-723.717c2.21.149,26.532,1.736,56.534,1.736s54.324-1.587,56.534-1.736c1.864-13.078.564-79.007.522-81.127a61.831,61.831,0,0,1-5.609-16.41,83.839,83.839,0,0,1-1.541-15.3,86.876,86.876,0,0,1,1.14-15.534c-4.275-1.915-26.311-10.191-26.536-10.275l-.023-.01-6-3.157c-3.964,2.468-17.886,2.563-18.482,2.566s-14.519-.1-18.483-2.566l-6,3.157-.023.01c-.225.084-22.26,8.36-26.535,10.276a86.953,86.953,0,0,1,1.14,15.533,83.927,83.927,0,0,1-1.541,15.3,61.831,61.831,0,0,1-5.609,16.41C94.587-802.725,93.287-736.794,95.15-723.717Zm113.244.19h0Z" fill="#19191a"/>
            </g>
            <g id="Group_268" data-name="Group 268">
              <path id="Path_3130" data-name="Path 3130" d="M208.394-723.527v11.2s-23.792,1.96-56.71,1.96-56.709-1.96-56.709-1.96v-11.2s25.021,1.748,56.709,1.748S208.394-723.527,208.394-723.527Z" fill="#fff"/>
              <path id="Path_3131" data-name="Path 3131" d="M151.684-710.164c-32.549,0-56.488-1.942-56.726-1.961a.2.2,0,0,1-.185-.2v-11.2a.2.2,0,0,1,.064-.147.2.2,0,0,1,.152-.054c.25.017,25.377,1.747,56.7,1.747s56.446-1.73,56.7-1.747a.2.2,0,0,1,.152.054.2.2,0,0,1,.064.147v11.2a.2.2,0,0,1-.185.2C208.173-712.106,184.234-710.164,151.684-710.164Zm-56.508-2.348c2.294.181,25.488,1.945,56.508,1.945s54.215-1.764,56.509-1.945v-10.8c-2.524.169-26.717,1.733-56.509,1.733s-53.985-1.564-56.508-1.733Z" fill="#19191a"/>
            </g>
            <g id="Group_269" data-name="Group 269">
              <path id="Path_3132" data-name="Path 3132" d="M94.429-804.9,24.063-751.54c-2.323-4.624-13.556-15.139-13.556-15.139L100.412-852.2S105.515-826.243,94.429-804.9Z" fill="#fff"/>
              <path id="Path_3133" data-name="Path 3133" d="M24.063-751.338a.177.177,0,0,1-.046-.006.2.2,0,0,1-.134-.1c-2.281-4.54-13.4-14.978-13.514-15.083a.2.2,0,0,1-.064-.147.2.2,0,0,1,.063-.146l89.905-85.525a.2.2,0,0,1,.2-.046.2.2,0,0,1,.137.153,85.433,85.433,0,0,1,1.169,15.69,83.85,83.85,0,0,1-1.541,15.3A61.783,61.783,0,0,1,94.607-804.8a.193.193,0,0,1-.057.067L24.184-751.379A.2.2,0,0,1,24.063-751.338ZM10.8-766.68c1.4,1.315,10.937,10.389,13.331,14.835l70.14-53.183c5.689-10.979,7-23.2,7.1-31.52a87.67,87.67,0,0,0-1.1-15.253ZM94.429-804.9Z" fill="#19191a"/>
            </g>
            <g id="Group_270" data-name="Group 270">
              <path id="Path_3134" data-name="Path 3134" d="M24.063-751.54l-8.467,6.9a76.058,76.058,0,0,1-7.312-7.06,75.908,75.908,0,0,1-5.822-7.277l8.045-7.7S21.74-756.164,24.063-751.54Z" fill="#fff"/>
              <path id="Path_3135" data-name="Path 3135" d="M15.6-744.442a.2.2,0,0,1-.13-.047,76.306,76.306,0,0,1-7.331-7.079,76.573,76.573,0,0,1-5.838-7.3.2.2,0,0,1,.025-.261l8.045-7.7a.2.2,0,0,1,.277,0c.46.431,11.286,10.593,13.6,15.2a.2.2,0,0,1-.053.246l-8.466,6.9A.206.206,0,0,1,15.6-744.442ZM2.726-758.954a76.427,76.427,0,0,0,5.707,7.116,76.256,76.256,0,0,0,7.166,6.933l8.21-6.688c-2.286-4.327-12.019-13.6-13.3-14.808Z" fill="#19191a"/>
            </g>
            <g id="Group_271" data-name="Group 271">
              <line id="Line_2" data-name="Line 2" y1="11.221" transform="translate(96.843 -723.406)" fill="#fff"/>
              <path id="Path_3136" data-name="Path 3136" d="M96.843-711.983a.2.2,0,0,1-.2-.2v-11.221a.2.2,0,0,1,.2-.2.2.2,0,0,1,.2.2v11.221A.2.2,0,0,1,96.843-711.983Z" fill="#19191a"/>
            </g>
            <g id="Group_272" data-name="Group 272">
              <line id="Line_3" data-name="Line 3" y1="11.238" transform="translate(98.505 -723.305)" fill="#fff"/>
              <path id="Path_3137" data-name="Path 3137" d="M98.5-711.866a.2.2,0,0,1-.2-.2V-723.3a.2.2,0,0,1,.2-.2.2.2,0,0,1,.2.2v11.238A.2.2,0,0,1,98.5-711.866Z" fill="#19191a"/>
            </g>
            <g id="Group_273" data-name="Group 273">
              <line id="Line_4" data-name="Line 4" y1="11.252" transform="translate(100.166 -723.209)" fill="#fff"/>
              <path id="Path_3138" data-name="Path 3138" d="M100.166-711.756a.2.2,0,0,1-.2-.2v-11.252a.2.2,0,0,1,.2-.2.2.2,0,0,1,.2.2v11.252A.2.2,0,0,1,100.166-711.756Z" fill="#19191a"/>
            </g>
            <g id="Group_274" data-name="Group 274">
              <line id="Line_5" data-name="Line 5" y1="11.266" transform="translate(101.829 -723.117)" fill="#fff"/>
              <path id="Path_3139" data-name="Path 3139" d="M101.829-711.65a.2.2,0,0,1-.2-.2v-11.266a.2.2,0,0,1,.2-.2.2.2,0,0,1,.2.2v11.266A.2.2,0,0,1,101.829-711.65Z" fill="#19191a"/>
            </g>
            <g id="Group_275" data-name="Group 275">
              <line id="Line_6" data-name="Line 6" y1="11.279" transform="translate(103.49 -723.03)" fill="#fff"/>
              <path id="Path_3140" data-name="Path 3140" d="M103.49-711.549a.2.2,0,0,1-.2-.2v-11.28a.2.2,0,0,1,.2-.2.2.2,0,0,1,.2.2v11.28A.2.2,0,0,1,103.49-711.549Z" fill="#19191a"/>
            </g>
            <g id="Group_276" data-name="Group 276">
              <line id="Line_7" data-name="Line 7" y1="11.291" transform="translate(105.152 -722.944)" fill="#fff"/>
              <path id="Path_3141" data-name="Path 3141" d="M105.152-711.452a.2.2,0,0,1-.2-.2v-11.291a.2.2,0,0,1,.2-.2.2.2,0,0,1,.2.2v11.291A.2.2,0,0,1,105.152-711.452Z" fill="#19191a"/>
            </g>
            <g id="Group_277" data-name="Group 277">
              <line id="Line_8" data-name="Line 8" y1="11.302" transform="translate(106.814 -722.863)" fill="#fff"/>
              <path id="Path_3142" data-name="Path 3142" d="M106.814-711.36a.2.2,0,0,1-.2-.2v-11.3a.2.2,0,0,1,.2-.2.2.2,0,0,1,.2.2v11.3A.2.2,0,0,1,106.814-711.36Z" fill="#19191a"/>
            </g>
            <g id="Group_278" data-name="Group 278">
              <line id="Line_9" data-name="Line 9" y1="11.313" transform="translate(108.476 -722.785)" fill="#fff"/>
              <path id="Path_3143" data-name="Path 3143" d="M108.476-711.271a.2.2,0,0,1-.2-.2v-11.313a.2.2,0,0,1,.2-.2.2.2,0,0,1,.2.2v11.313A.2.2,0,0,1,108.476-711.271Z" fill="#19191a"/>
            </g>
            <g id="Group_279" data-name="Group 279">
              <line id="Line_10" data-name="Line 10" y1="11.323" transform="translate(110.138 -722.711)" fill="#fff"/>
              <path id="Path_3144" data-name="Path 3144" d="M110.138-711.186a.2.2,0,0,1-.2-.2v-11.323a.2.2,0,0,1,.2-.2.2.2,0,0,1,.2.2v11.323A.2.2,0,0,1,110.138-711.186Z" fill="#19191a"/>
            </g>
            <g id="Group_280" data-name="Group 280">
              <line id="Line_11" data-name="Line 11" y1="11.332" transform="translate(111.8 -722.639)" fill="#fff"/>
              <path id="Path_3145" data-name="Path 3145" d="M111.8-711.106a.2.2,0,0,1-.2-.2v-11.332a.2.2,0,0,1,.2-.2.2.2,0,0,1,.2.2v11.332A.2.2,0,0,1,111.8-711.106Z" fill="#19191a"/>
            </g>
            <g id="Group_281" data-name="Group 281">
              <line id="Line_12" data-name="Line 12" y1="11.339" transform="translate(113.462 -722.569)" fill="#fff"/>
              <path id="Path_3146" data-name="Path 3146" d="M113.462-711.029a.2.2,0,0,1-.2-.2v-11.339a.2.2,0,0,1,.2-.2.2.2,0,0,1,.2.2v11.339A.2.2,0,0,1,113.462-711.029Z" fill="#19191a"/>
            </g>
            <g id="Group_282" data-name="Group 282">
              <line id="Line_13" data-name="Line 13" y1="11.347" transform="translate(115.123 -722.503)" fill="#fff"/>
              <path id="Path_3147" data-name="Path 3147" d="M115.123-710.954a.2.2,0,0,1-.2-.2V-722.5a.2.2,0,0,1,.2-.2.2.2,0,0,1,.2.2v11.347A.2.2,0,0,1,115.123-710.954Z" fill="#19191a"/>
            </g>
            <g id="Group_283" data-name="Group 283">
              <line id="Line_14" data-name="Line 14" y1="11.355" transform="translate(116.785 -722.44)" fill="#fff"/>
              <path id="Path_3148" data-name="Path 3148" d="M116.785-710.884a.2.2,0,0,1-.2-.2V-722.44a.2.2,0,0,1,.2-.2.2.2,0,0,1,.2.2v11.354A.2.2,0,0,1,116.785-710.884Z" fill="#19191a"/>
            </g>
            <g id="Group_284" data-name="Group 284">
              <line id="Line_15" data-name="Line 15" y1="11.362" transform="translate(118.447 -722.381)" fill="#fff"/>
              <path id="Path_3149" data-name="Path 3149" d="M118.447-710.817a.2.2,0,0,1-.2-.2v-11.363a.2.2,0,0,1,.2-.2.2.2,0,0,1,.2.2v11.363A.2.2,0,0,1,118.447-710.817Z" fill="#19191a"/>
            </g>
            <g id="Group_285" data-name="Group 285">
              <line id="Line_16" data-name="Line 16" y1="11.368" transform="translate(120.109 -722.323)" fill="#fff"/>
              <path id="Path_3150" data-name="Path 3150" d="M120.109-710.753a.2.2,0,0,1-.2-.2v-11.368a.2.2,0,0,1,.2-.2.2.2,0,0,1,.2.2v11.368A.2.2,0,0,1,120.109-710.753Z" fill="#19191a"/>
            </g>
            <g id="Group_286" data-name="Group 286">
              <line id="Line_17" data-name="Line 17" y1="11.375" transform="translate(121.771 -722.269)" fill="#fff"/>
              <path id="Path_3151" data-name="Path 3151" d="M121.771-710.693a.2.2,0,0,1-.2-.2v-11.375a.2.2,0,0,1,.2-.2.2.2,0,0,1,.2.2v11.375A.2.2,0,0,1,121.771-710.693Z" fill="#19191a"/>
            </g>
            <g id="Group_287" data-name="Group 287">
              <line id="Line_18" data-name="Line 18" y1="11.38" transform="translate(123.433 -722.217)" fill="#fff"/>
              <path id="Path_3152" data-name="Path 3152" d="M123.433-710.636a.2.2,0,0,1-.2-.2v-11.38a.2.2,0,0,1,.2-.2.2.2,0,0,1,.2.2v11.38A.2.2,0,0,1,123.433-710.636Z" fill="#19191a"/>
            </g>
            <g id="Group_288" data-name="Group 288">
              <line id="Line_19" data-name="Line 19" y1="11.384" transform="translate(125.094 -722.168)" fill="#fff"/>
              <path id="Path_3153" data-name="Path 3153" d="M125.094-710.583a.2.2,0,0,1-.2-.2v-11.384a.2.2,0,0,1,.2-.2.2.2,0,0,1,.2.2v11.384A.2.2,0,0,1,125.094-710.583Z" fill="#19191a"/>
            </g>
            <g id="Group_289" data-name="Group 289">
              <line id="Line_20" data-name="Line 20" y1="11.388" transform="translate(126.757 -722.122)" fill="#fff"/>
              <path id="Path_3154" data-name="Path 3154" d="M126.757-710.532a.2.2,0,0,1-.2-.2v-11.388a.2.2,0,0,1,.2-.2.2.2,0,0,1,.2.2v11.388A.2.2,0,0,1,126.757-710.532Z" fill="#19191a"/>
            </g>
            <g id="Group_290" data-name="Group 290">
              <line id="Line_21" data-name="Line 21" y1="11.392" transform="translate(128.418 -722.078)" fill="#fff"/>
              <path id="Path_3155" data-name="Path 3155" d="M128.418-710.485a.2.2,0,0,1-.2-.2v-11.392a.2.2,0,0,1,.2-.2.2.2,0,0,1,.2.2v11.392A.2.2,0,0,1,128.418-710.485Z" fill="#19191a"/>
            </g>
            <g id="Group_291" data-name="Group 291">
              <line id="Line_22" data-name="Line 22" y1="11.395" transform="translate(130.08 -722.038)" fill="#fff"/>
              <path id="Path_3156" data-name="Path 3156" d="M130.081-710.441a.2.2,0,0,1-.2-.2v-11.4a.2.2,0,0,1,.2-.2.2.2,0,0,1,.2.2v11.4A.2.2,0,0,1,130.081-710.441Z" fill="#19191a"/>
            </g>
            <g id="Group_292" data-name="Group 292">
              <line id="Line_23" data-name="Line 23" y1="11.399" transform="translate(131.742 -722.001)" fill="#fff"/>
              <path id="Path_3157" data-name="Path 3157" d="M131.742-710.4a.2.2,0,0,1-.2-.2V-722a.2.2,0,0,1,.2-.2.2.2,0,0,1,.2.2v11.4A.2.2,0,0,1,131.742-710.4Z" fill="#19191a"/>
            </g>
            <g id="Group_293" data-name="Group 293">
              <line id="Line_24" data-name="Line 24" y1="11.401" transform="translate(133.403 -721.966)" fill="#fff"/>
              <path id="Path_3158" data-name="Path 3158" d="M133.4-710.363a.2.2,0,0,1-.2-.2v-11.4a.2.2,0,0,1,.2-.2.2.2,0,0,1,.2.2v11.4A.2.2,0,0,1,133.4-710.363Z" fill="#19191a"/>
            </g>
            <g id="Group_294" data-name="Group 294">
              <line id="Line_25" data-name="Line 25" y1="11.404" transform="translate(135.066 -721.934)" fill="#fff"/>
              <path id="Path_3159" data-name="Path 3159" d="M135.066-710.329a.2.2,0,0,1-.2-.2v-11.4a.2.2,0,0,1,.2-.2.2.2,0,0,1,.2.2v11.4A.2.2,0,0,1,135.066-710.329Z" fill="#19191a"/>
            </g>
            <g id="Group_295" data-name="Group 295">
              <line id="Line_26" data-name="Line 26" y1="11.407" transform="translate(136.727 -721.906)" fill="#fff"/>
              <path id="Path_3160" data-name="Path 3160" d="M136.727-710.3a.2.2,0,0,1-.2-.2v-11.407a.2.2,0,0,1,.2-.2.2.2,0,0,1,.2.2V-710.5A.2.2,0,0,1,136.727-710.3Z" fill="#19191a"/>
            </g>
            <g id="Group_296" data-name="Group 296">
              <line id="Line_27" data-name="Line 27" y1="11.409" transform="translate(138.39 -721.88)" fill="#fff"/>
              <path id="Path_3161" data-name="Path 3161" d="M138.39-710.27a.2.2,0,0,1-.2-.2V-721.88a.2.2,0,0,1,.2-.2.2.2,0,0,1,.2.2v11.409A.2.2,0,0,1,138.39-710.27Z" fill="#19191a"/>
            </g>
            <g id="Group_297" data-name="Group 297">
              <line id="Line_28" data-name="Line 28" y1="11.409" transform="translate(140.051 -721.857)" fill="#fff"/>
              <path id="Path_3162" data-name="Path 3162" d="M140.051-710.246a.2.2,0,0,1-.2-.2v-11.41a.2.2,0,0,1,.2-.2.2.2,0,0,1,.2.2v11.41A.2.2,0,0,1,140.051-710.246Z" fill="#19191a"/>
            </g>
            <g id="Group_298" data-name="Group 298">
              <line id="Line_29" data-name="Line 29" y1="11.41" transform="translate(141.713 -721.836)" fill="#fff"/>
              <path id="Path_3163" data-name="Path 3163" d="M141.713-710.224a.2.2,0,0,1-.2-.2v-11.41a.2.2,0,0,1,.2-.2.2.2,0,0,1,.2.2v11.41A.2.2,0,0,1,141.713-710.224Z" fill="#19191a"/>
            </g>
            <g id="Group_299" data-name="Group 299">
              <line id="Line_30" data-name="Line 30" y1="11.412" transform="translate(143.375 -721.819)" fill="#fff"/>
              <path id="Path_3164" data-name="Path 3164" d="M143.375-710.205a.2.2,0,0,1-.2-.2v-11.412a.2.2,0,0,1,.2-.2.2.2,0,0,1,.2.2v11.412A.2.2,0,0,1,143.375-710.205Z" fill="#19191a"/>
            </g>
            <g id="Group_300" data-name="Group 300">
              <line id="Line_31" data-name="Line 31" y1="11.413" transform="translate(145.037 -721.805)" fill="#fff"/>
              <path id="Path_3165" data-name="Path 3165" d="M145.037-710.191a.2.2,0,0,1-.2-.2V-721.8a.2.2,0,0,1,.2-.2.2.2,0,0,1,.2.2v11.412A.2.2,0,0,1,145.037-710.191Z" fill="#19191a"/>
            </g>
            <g id="Group_301" data-name="Group 301">
              <line id="Line_32" data-name="Line 32" y1="11.413" transform="translate(146.699 -721.794)" fill="#fff"/>
              <path id="Path_3166" data-name="Path 3166" d="M146.7-710.18a.2.2,0,0,1-.2-.2v-11.413a.2.2,0,0,1,.2-.2.2.2,0,0,1,.2.2v11.413A.2.2,0,0,1,146.7-710.18Z" fill="#19191a"/>
            </g>
            <g id="Group_302" data-name="Group 302">
              <line id="Line_33" data-name="Line 33" y1="11.413" transform="translate(148.361 -721.786)" fill="#fff"/>
              <path id="Path_3167" data-name="Path 3167" d="M148.361-710.171a.2.2,0,0,1-.2-.2v-11.413a.2.2,0,0,1,.2-.2.2.2,0,0,1,.2.2v11.413A.2.2,0,0,1,148.361-710.171Z" fill="#19191a"/>
            </g>
            <g id="Group_303" data-name="Group 303">
              <line id="Line_34" data-name="Line 34" y1="11.413" transform="translate(150.022 -721.781)" fill="#fff"/>
              <path id="Path_3168" data-name="Path 3168" d="M150.022-710.166a.2.2,0,0,1-.2-.2v-11.413a.2.2,0,0,1,.2-.2.2.2,0,0,1,.2.2v11.413A.2.2,0,0,1,150.022-710.166Z" fill="#19191a"/>
            </g>
            <g id="Group_304" data-name="Group 304">
              <line id="Line_35" data-name="Line 35" y1="11.413" transform="translate(151.685 -721.78)" fill="#fff"/>
              <path id="Path_3169" data-name="Path 3169" d="M151.685-710.165a.2.2,0,0,1-.2-.2V-721.78a.2.2,0,0,1,.2-.2.2.2,0,0,1,.2.2v11.414A.2.2,0,0,1,151.685-710.165Z" fill="#19191a"/>
            </g>
            <g id="Group_305" data-name="Group 305">
              <line id="Line_36" data-name="Line 36" y1="11.413" transform="translate(153.346 -721.781)" fill="#fff"/>
              <path id="Path_3170" data-name="Path 3170" d="M153.346-710.166a.2.2,0,0,1-.2-.2v-11.413a.2.2,0,0,1,.2-.2.2.2,0,0,1,.2.2v11.413A.2.2,0,0,1,153.346-710.166Z" fill="#19191a"/>
            </g>
            <g id="Group_306" data-name="Group 306">
              <line id="Line_37" data-name="Line 37" y1="11.413" transform="translate(155.008 -721.786)" fill="#fff"/>
              <path id="Path_3171" data-name="Path 3171" d="M155.008-710.171a.2.2,0,0,1-.2-.2v-11.413a.2.2,0,0,1,.2-.2.2.2,0,0,1,.2.2v11.413A.2.2,0,0,1,155.008-710.171Z" fill="#19191a"/>
            </g>
            <g id="Group_307" data-name="Group 307">
              <line id="Line_38" data-name="Line 38" y1="11.413" transform="translate(156.67 -721.794)" fill="#fff"/>
              <path id="Path_3172" data-name="Path 3172" d="M156.67-710.18a.2.2,0,0,1-.2-.2v-11.413a.2.2,0,0,1,.2-.2.2.2,0,0,1,.2.2v11.413A.2.2,0,0,1,156.67-710.18Z" fill="#19191a"/>
            </g>
            <g id="Group_308" data-name="Group 308">
              <line id="Line_39" data-name="Line 39" y1="11.413" transform="translate(158.331 -721.805)" fill="#fff"/>
              <path id="Path_3173" data-name="Path 3173" d="M158.332-710.191a.2.2,0,0,1-.2-.2V-721.8a.2.2,0,0,1,.2-.2.2.2,0,0,1,.2.2v11.412A.2.2,0,0,1,158.332-710.191Z" fill="#19191a"/>
            </g>
            <g id="Group_309" data-name="Group 309">
              <line id="Line_40" data-name="Line 40" y1="11.412" transform="translate(159.994 -721.819)" fill="#fff"/>
              <path id="Path_3174" data-name="Path 3174" d="M159.994-710.205a.2.2,0,0,1-.2-.2v-11.412a.2.2,0,0,1,.2-.2.2.2,0,0,1,.2.2v11.412A.2.2,0,0,1,159.994-710.205Z" fill="#19191a"/>
            </g>
            <g id="Group_310" data-name="Group 310">
              <line id="Line_41" data-name="Line 41" y1="11.41" transform="translate(161.655 -721.836)" fill="#fff"/>
              <path id="Path_3175" data-name="Path 3175" d="M161.655-710.224a.2.2,0,0,1-.2-.2v-11.41a.2.2,0,0,1,.2-.2.2.2,0,0,1,.2.2v11.41A.2.2,0,0,1,161.655-710.224Z" fill="#19191a"/>
            </g>
            <g id="Group_311" data-name="Group 311">
              <line id="Line_42" data-name="Line 42" y1="11.409" transform="translate(163.318 -721.857)" fill="#fff"/>
              <path id="Path_3176" data-name="Path 3176" d="M163.318-710.246a.2.2,0,0,1-.2-.2v-11.41a.2.2,0,0,1,.2-.2.2.2,0,0,1,.2.2v11.41A.2.2,0,0,1,163.318-710.246Z" fill="#19191a"/>
            </g>
            <g id="Group_312" data-name="Group 312">
              <line id="Line_43" data-name="Line 43" y1="11.408" transform="translate(164.979 -721.879)" fill="#fff"/>
              <path id="Path_3177" data-name="Path 3177" d="M164.979-710.27a.2.2,0,0,1-.2-.2v-11.408a.2.2,0,0,1,.2-.2.2.2,0,0,1,.2.2v11.408A.2.2,0,0,1,164.979-710.27Z" fill="#19191a"/>
            </g>
            <g id="Group_313" data-name="Group 313">
              <line id="Line_44" data-name="Line 44" y1="11.407" transform="translate(166.641 -721.906)" fill="#fff"/>
              <path id="Path_3178" data-name="Path 3178" d="M166.641-710.3a.2.2,0,0,1-.2-.2v-11.407a.2.2,0,0,1,.2-.2.2.2,0,0,1,.2.2V-710.5A.2.2,0,0,1,166.641-710.3Z" fill="#19191a"/>
            </g>
            <g id="Group_314" data-name="Group 314">
              <line id="Line_45" data-name="Line 45" y1="11.404" transform="translate(168.303 -721.934)" fill="#fff"/>
              <path id="Path_3179" data-name="Path 3179" d="M168.3-710.329a.2.2,0,0,1-.2-.2v-11.4a.2.2,0,0,1,.2-.2.2.2,0,0,1,.2.2v11.4A.2.2,0,0,1,168.3-710.329Z" fill="#19191a"/>
            </g>
            <g id="Group_315" data-name="Group 315">
              <line id="Line_46" data-name="Line 46" y1="11.401" transform="translate(169.965 -721.966)" fill="#fff"/>
              <path id="Path_3180" data-name="Path 3180" d="M169.965-710.363a.2.2,0,0,1-.2-.2v-11.4a.2.2,0,0,1,.2-.2.2.2,0,0,1,.2.2v11.4A.2.2,0,0,1,169.965-710.363Z" fill="#19191a"/>
            </g>
            <g id="Group_316" data-name="Group 316">
              <line id="Line_47" data-name="Line 47" y1="11.399" transform="translate(171.627 -722.001)" fill="#fff"/>
              <path id="Path_3181" data-name="Path 3181" d="M171.627-710.4a.2.2,0,0,1-.2-.2V-722a.2.2,0,0,1,.2-.2.2.2,0,0,1,.2.2v11.4A.2.2,0,0,1,171.627-710.4Z" fill="#19191a"/>
            </g>
            <g id="Group_317" data-name="Group 317">
              <line id="Line_48" data-name="Line 48" y1="11.395" transform="translate(173.289 -722.038)" fill="#fff"/>
              <path id="Path_3182" data-name="Path 3182" d="M173.289-710.441a.2.2,0,0,1-.2-.2v-11.4a.2.2,0,0,1,.2-.2.2.2,0,0,1,.2.2v11.4A.2.2,0,0,1,173.289-710.441Z" fill="#19191a"/>
            </g>
            <g id="Group_318" data-name="Group 318">
              <line id="Line_49" data-name="Line 49" y1="11.392" transform="translate(174.95 -722.078)" fill="#fff"/>
              <path id="Path_3183" data-name="Path 3183" d="M174.95-710.485a.2.2,0,0,1-.2-.2v-11.392a.2.2,0,0,1,.2-.2.2.2,0,0,1,.2.2v11.392A.2.2,0,0,1,174.95-710.485Z" fill="#19191a"/>
            </g>
            <g id="Group_319" data-name="Group 319">
              <line id="Line_50" data-name="Line 50" y1="11.388" transform="translate(176.612 -722.122)" fill="#fff"/>
              <path id="Path_3184" data-name="Path 3184" d="M176.612-710.532a.2.2,0,0,1-.2-.2v-11.388a.2.2,0,0,1,.2-.2.2.2,0,0,1,.2.2v11.388A.2.2,0,0,1,176.612-710.532Z" fill="#19191a"/>
            </g>
            <g id="Group_320" data-name="Group 320">
              <line id="Line_51" data-name="Line 51" y1="11.384" transform="translate(178.274 -722.168)" fill="#fff"/>
              <path id="Path_3185" data-name="Path 3185" d="M178.274-710.583a.2.2,0,0,1-.2-.2v-11.384a.2.2,0,0,1,.2-.2.2.2,0,0,1,.2.2v11.384A.2.2,0,0,1,178.274-710.583Z" fill="#19191a"/>
            </g>
            <g id="Group_321" data-name="Group 321">
              <line id="Line_52" data-name="Line 52" y1="11.38" transform="translate(179.936 -722.217)" fill="#fff"/>
              <path id="Path_3186" data-name="Path 3186" d="M179.936-710.636a.2.2,0,0,1-.2-.2v-11.38a.2.2,0,0,1,.2-.2.2.2,0,0,1,.2.2v11.38A.2.2,0,0,1,179.936-710.636Z" fill="#19191a"/>
            </g>
            <g id="Group_322" data-name="Group 322">
              <line id="Line_53" data-name="Line 53" y1="11.375" transform="translate(181.598 -722.269)" fill="#fff"/>
              <path id="Path_3187" data-name="Path 3187" d="M181.6-710.693a.2.2,0,0,1-.2-.2v-11.375a.2.2,0,0,1,.2-.2.2.2,0,0,1,.2.2v11.375A.2.2,0,0,1,181.6-710.693Z" fill="#19191a"/>
            </g>
            <g id="Group_323" data-name="Group 323">
              <line id="Line_54" data-name="Line 54" y1="11.368" transform="translate(183.26 -722.323)" fill="#fff"/>
              <path id="Path_3188" data-name="Path 3188" d="M183.26-710.753a.2.2,0,0,1-.2-.2v-11.368a.2.2,0,0,1,.2-.2.2.2,0,0,1,.2.2v11.368A.2.2,0,0,1,183.26-710.753Z" fill="#19191a"/>
            </g>
            <g id="Group_324" data-name="Group 324">
              <line id="Line_55" data-name="Line 55" y1="11.362" transform="translate(184.922 -722.381)" fill="#fff"/>
              <path id="Path_3189" data-name="Path 3189" d="M184.922-710.817a.2.2,0,0,1-.2-.2v-11.363a.2.2,0,0,1,.2-.2.2.2,0,0,1,.2.2v11.363A.2.2,0,0,1,184.922-710.817Z" fill="#19191a"/>
            </g>
            <g id="Group_325" data-name="Group 325">
              <line id="Line_56" data-name="Line 56" y1="11.355" transform="translate(186.583 -722.44)" fill="#fff"/>
              <path id="Path_3190" data-name="Path 3190" d="M186.583-710.884a.2.2,0,0,1-.2-.2V-722.44a.2.2,0,0,1,.2-.2.2.2,0,0,1,.2.2v11.354A.2.2,0,0,1,186.583-710.884Z" fill="#19191a"/>
            </g>
            <g id="Group_326" data-name="Group 326">
              <line id="Line_57" data-name="Line 57" y1="11.347" transform="translate(188.246 -722.503)" fill="#fff"/>
              <path id="Path_3191" data-name="Path 3191" d="M188.246-710.954a.2.2,0,0,1-.2-.2V-722.5a.2.2,0,0,1,.2-.2.2.2,0,0,1,.2.2v11.347A.2.2,0,0,1,188.246-710.954Z" fill="#19191a"/>
            </g>
            <g id="Group_327" data-name="Group 327">
              <line id="Line_58" data-name="Line 58" y1="11.339" transform="translate(189.907 -722.569)" fill="#fff"/>
              <path id="Path_3192" data-name="Path 3192" d="M189.907-711.029a.2.2,0,0,1-.2-.2v-11.339a.2.2,0,0,1,.2-.2.2.2,0,0,1,.2.2v11.339A.2.2,0,0,1,189.907-711.029Z" fill="#19191a"/>
            </g>
            <g id="Group_328" data-name="Group 328">
              <line id="Line_59" data-name="Line 59" y1="11.332" transform="translate(191.569 -722.639)" fill="#fff"/>
              <path id="Path_3193" data-name="Path 3193" d="M191.569-711.106a.2.2,0,0,1-.2-.2v-11.332a.2.2,0,0,1,.2-.2.2.2,0,0,1,.2.2v11.332A.2.2,0,0,1,191.569-711.106Z" fill="#19191a"/>
            </g>
            <g id="Group_329" data-name="Group 329">
              <line id="Line_60" data-name="Line 60" y1="11.323" transform="translate(193.231 -722.711)" fill="#fff"/>
              <path id="Path_3194" data-name="Path 3194" d="M193.231-711.186a.2.2,0,0,1-.2-.2v-11.323a.2.2,0,0,1,.2-.2.2.2,0,0,1,.2.2v11.323A.2.2,0,0,1,193.231-711.186Z" fill="#19191a"/>
            </g>
            <g id="Group_330" data-name="Group 330">
              <line id="Line_61" data-name="Line 61" y1="11.313" transform="translate(194.892 -722.785)" fill="#fff"/>
              <path id="Path_3195" data-name="Path 3195" d="M194.892-711.271a.2.2,0,0,1-.2-.2v-11.313a.2.2,0,0,1,.2-.2.2.2,0,0,1,.2.2v11.313A.2.2,0,0,1,194.892-711.271Z" fill="#19191a"/>
            </g>
            <g id="Group_331" data-name="Group 331">
              <line id="Line_62" data-name="Line 62" y1="11.302" transform="translate(196.555 -722.863)" fill="#fff"/>
              <path id="Path_3196" data-name="Path 3196" d="M196.555-711.36a.2.2,0,0,1-.2-.2v-11.3a.2.2,0,0,1,.2-.2.2.2,0,0,1,.2.2v11.3A.2.2,0,0,1,196.555-711.36Z" fill="#19191a"/>
            </g>
            <g id="Group_332" data-name="Group 332">
              <line id="Line_63" data-name="Line 63" y1="11.291" transform="translate(198.216 -722.944)" fill="#fff"/>
              <path id="Path_3197" data-name="Path 3197" d="M198.216-711.452a.2.2,0,0,1-.2-.2v-11.291a.2.2,0,0,1,.2-.2.2.2,0,0,1,.2.2v11.291A.2.2,0,0,1,198.216-711.452Z" fill="#19191a"/>
            </g>
            <g id="Group_333" data-name="Group 333">
              <line id="Line_64" data-name="Line 64" y1="11.279" transform="translate(199.879 -723.03)" fill="#fff"/>
              <path id="Path_3198" data-name="Path 3198" d="M199.879-711.549a.2.2,0,0,1-.2-.2v-11.28a.2.2,0,0,1,.2-.2.2.2,0,0,1,.2.2v11.28A.2.2,0,0,1,199.879-711.549Z" fill="#19191a"/>
            </g>
            <g id="Group_334" data-name="Group 334">
              <line id="Line_65" data-name="Line 65" y1="11.266" transform="translate(201.54 -723.117)" fill="#fff"/>
              <path id="Path_3199" data-name="Path 3199" d="M201.54-711.65a.2.2,0,0,1-.2-.2v-11.266a.2.2,0,0,1,.2-.2.2.2,0,0,1,.2.2v11.266A.2.2,0,0,1,201.54-711.65Z" fill="#19191a"/>
            </g>
            <g id="Group_335" data-name="Group 335">
              <line id="Line_66" data-name="Line 66" y1="11.252" transform="translate(203.202 -723.209)" fill="#fff"/>
              <path id="Path_3200" data-name="Path 3200" d="M203.2-711.756a.2.2,0,0,1-.2-.2v-11.252a.2.2,0,0,1,.2-.2.2.2,0,0,1,.2.2v11.252A.2.2,0,0,1,203.2-711.756Z" fill="#19191a"/>
            </g>
            <g id="Group_336" data-name="Group 336">
              <line id="Line_67" data-name="Line 67" y1="11.238" transform="translate(204.864 -723.305)" fill="#fff"/>
              <path id="Path_3201" data-name="Path 3201" d="M204.864-711.866a.2.2,0,0,1-.2-.2V-723.3a.2.2,0,0,1,.2-.2.2.2,0,0,1,.2.2v11.238A.2.2,0,0,1,204.864-711.866Z" fill="#19191a"/>
            </g>
            <g id="Group_337" data-name="Group 337">
              <line id="Line_68" data-name="Line 68" y1="11.221" transform="translate(206.526 -723.406)" fill="#fff"/>
              <path id="Path_3202" data-name="Path 3202" d="M206.526-711.983a.2.2,0,0,1-.2-.2v-11.221a.2.2,0,0,1,.2-.2.2.2,0,0,1,.2.2v11.221A.2.2,0,0,1,206.526-711.983Z" fill="#19191a"/>
            </g>
            <g id="Group_338" data-name="Group 338">
              <line id="Line_69" data-name="Line 69" y1="7.7" x2="8.045" transform="translate(2.462 -766.679)" fill="#fff"/>
              <path id="Path_3203" data-name="Path 3203" d="M2.462-758.778a.2.2,0,0,1-.146-.062.2.2,0,0,1,.006-.285l8.045-7.7a.2.2,0,0,1,.285.006.2.2,0,0,1-.006.285l-8.045,7.7A.2.2,0,0,1,2.462-758.778Z" fill="#19191a"/>
            </g>
            <g id="Group_339" data-name="Group 339">
              <line id="Line_70" data-name="Line 70" x1="8.29" y2="7.935" transform="translate(3.554 -765.404)" fill="#fff"/>
              <path id="Path_3204" data-name="Path 3204" d="M3.555-757.267a.2.2,0,0,1-.146-.062.2.2,0,0,1,.006-.285l8.29-7.935a.2.2,0,0,1,.285.006.2.2,0,0,1-.006.285l-8.29,7.935A.2.2,0,0,1,3.555-757.267Z" fill="#19191a"/>
            </g>
            <g id="Group_340" data-name="Group 340">
              <line id="Line_71" data-name="Line 71" x1="8.489" y2="8.124" transform="translate(4.679 -764.114)" fill="#fff"/>
              <path id="Path_3205" data-name="Path 3205" d="M4.68-755.788a.2.2,0,0,1-.146-.062.2.2,0,0,1,.006-.285l8.489-8.125a.2.2,0,0,1,.285.007.2.2,0,0,1-.006.285l-8.489,8.124A.2.2,0,0,1,4.68-755.788Z" fill="#19191a"/>
            </g>
            <g id="Group_341" data-name="Group 341">
              <line id="Line_72" data-name="Line 72" x1="8.642" y2="8.272" transform="translate(5.837 -762.813)" fill="#fff"/>
              <path id="Path_3206" data-name="Path 3206" d="M5.837-754.34a.2.2,0,0,1-.146-.062.2.2,0,0,1,.006-.285l8.642-8.272a.2.2,0,0,1,.285.006.2.2,0,0,1-.006.285L5.976-754.4A.2.2,0,0,1,5.837-754.34Z" fill="#19191a"/>
            </g>
            <g id="Group_342" data-name="Group 342">
              <line id="Line_73" data-name="Line 73" x1="8.749" y2="8.374" transform="translate(7.028 -761.499)" fill="#fff"/>
              <path id="Path_3207" data-name="Path 3207" d="M7.028-752.924a.2.2,0,0,1-.146-.062.2.2,0,0,1,.007-.285l8.748-8.373a.2.2,0,0,1,.285.006.2.2,0,0,1-.006.285L7.167-752.98A.2.2,0,0,1,7.028-752.924Z" fill="#19191a"/>
            </g>
            <g id="Group_343" data-name="Group 343">
              <line id="Line_74" data-name="Line 74" x1="8.809" y2="8.431" transform="translate(8.251 -760.17)" fill="#fff"/>
              <path id="Path_3208" data-name="Path 3208" d="M8.251-751.538A.2.2,0,0,1,8.1-751.6a.2.2,0,0,1,.006-.285l8.81-8.431a.2.2,0,0,1,.285.007.2.2,0,0,1-.007.284L8.39-751.594A.2.2,0,0,1,8.251-751.538Z" fill="#19191a"/>
            </g>
            <g id="Group_344" data-name="Group 344">
              <line id="Line_75" data-name="Line 75" x1="8.819" y2="8.44" transform="translate(9.507 -758.826)" fill="#fff"/>
              <path id="Path_3209" data-name="Path 3209" d="M9.507-750.184a.2.2,0,0,1-.146-.062.2.2,0,0,1,.006-.285l8.819-8.44a.2.2,0,0,1,.285.006.2.2,0,0,1-.006.285l-8.819,8.44A.2.2,0,0,1,9.507-750.184Z" fill="#19191a"/>
            </g>
            <g id="Group_345" data-name="Group 345">
              <line id="Line_76" data-name="Line 76" x1="8.774" y2="8.398" transform="translate(10.795 -757.46)" fill="#fff"/>
              <path id="Path_3210" data-name="Path 3210" d="M10.8-748.861a.2.2,0,0,1-.146-.062.2.2,0,0,1,.006-.285l8.775-8.4a.2.2,0,0,1,.285.006.2.2,0,0,1-.007.285l-8.774,8.4A.2.2,0,0,1,10.8-748.861Z" fill="#19191a"/>
            </g>
            <g id="Group_346" data-name="Group 346">
              <line id="Line_77" data-name="Line 77" x1="8.67" y2="8.298" transform="translate(12.115 -756.068)" fill="#fff"/>
              <path id="Path_3211" data-name="Path 3211" d="M12.115-747.568a.2.2,0,0,1-.145-.062.2.2,0,0,1,.006-.285l8.67-8.3a.2.2,0,0,1,.285.007.2.2,0,0,1-.006.284l-8.67,8.3A.206.206,0,0,1,12.115-747.568Z" fill="#19191a"/>
            </g>
            <g id="Group_347" data-name="Group 347">
              <line id="Line_78" data-name="Line 78" x1="8.495" y2="8.129" transform="translate(13.467 -754.638)" fill="#fff"/>
              <path id="Path_3212" data-name="Path 3212" d="M13.467-746.307a.2.2,0,0,1-.146-.062.2.2,0,0,1,.007-.285l8.495-8.129a.2.2,0,0,1,.285.006.2.2,0,0,1-.006.285l-8.5,8.129A.2.2,0,0,1,13.467-746.307Z" fill="#19191a"/>
            </g>
            <g id="Group_348" data-name="Group 348">
              <line id="Line_79" data-name="Line 79" x1="8.494" y2="7.634" transform="translate(14.581 -753.148)" fill="#fff"/>
              <path id="Path_3213" data-name="Path 3213" d="M14.582-745.313a.2.2,0,0,1-.15-.067.2.2,0,0,1,.015-.285l8.494-7.633a.2.2,0,0,1,.285.015.2.2,0,0,1-.015.285l-8.5,7.633A.2.2,0,0,1,14.582-745.313Z" fill="#19191a"/>
            </g>
            <g id="Group_349" data-name="Group 349">
              <path id="Path_3214" data-name="Path 3214" d="M208.94-804.9l70.366,53.355c2.323-4.624,13.556-15.139,13.556-15.139l-89.9-85.525S197.854-826.243,208.94-804.9Z" fill="#fff"/>
              <path id="Path_3215" data-name="Path 3215" d="M279.306-751.338a.2.2,0,0,1-.122-.041l-70.366-53.356a.217.217,0,0,1-.057-.067,61.854,61.854,0,0,1-5.631-16.452,83.937,83.937,0,0,1-1.541-15.3,85.372,85.372,0,0,1,1.17-15.69.2.2,0,0,1,.136-.153.2.2,0,0,1,.2.046L293-766.825a.2.2,0,0,1,.063.146.208.208,0,0,1-.064.147c-.112.1-11.234,10.543-13.514,15.083a.2.2,0,0,1-.134.1A.183.183,0,0,1,279.306-751.338ZM209.1-805.028l70.14,53.183c2.393-4.446,11.935-13.52,13.331-14.835L203.088-851.8a87.67,87.67,0,0,0-1.1,15.253C202.093-828.226,203.409-816.007,209.1-805.028Z" fill="#19191a"/>
            </g>
            <g id="Group_350" data-name="Group 350">
              <path id="Path_3216" data-name="Path 3216" d="M279.306-751.54l8.466,6.9a75.941,75.941,0,0,0,7.313-7.06,75.908,75.908,0,0,0,5.822-7.277l-8.045-7.7S281.629-756.164,279.306-751.54Z" fill="#fff"/>
              <path id="Path_3217" data-name="Path 3217" d="M287.772-744.442a.2.2,0,0,1-.127-.045l-8.466-6.9a.2.2,0,0,1-.053-.246c2.312-4.6,13.139-14.766,13.6-15.2a.2.2,0,0,1,.277,0l8.045,7.7a.2.2,0,0,1,.026.261,76.452,76.452,0,0,1-5.838,7.3,76.32,76.32,0,0,1-7.332,7.079A.2.2,0,0,1,287.772-744.442Zm-8.212-7.151,8.21,6.688a75.993,75.993,0,0,0,7.165-6.933,76.125,76.125,0,0,0,5.707-7.116l-7.781-7.447C291.579-765.19,281.846-755.92,279.56-751.593Z" fill="#19191a"/>
            </g>
            <g id="Group_351" data-name="Group 351">
              <line id="Line_80" data-name="Line 80" x1="8.045" y1="7.7" transform="translate(292.862 -766.679)" fill="#fff"/>
              <path id="Path_3218" data-name="Path 3218" d="M300.907-758.778a.2.2,0,0,1-.139-.056l-8.045-7.7a.2.2,0,0,1-.007-.285.2.2,0,0,1,.285-.006l8.045,7.7a.2.2,0,0,1,.007.285A.2.2,0,0,1,300.907-758.778Z" fill="#19191a"/>
            </g>
            <g id="Group_352" data-name="Group 352">
              <line id="Line_81" data-name="Line 81" x1="8.29" y1="7.935" transform="translate(291.524 -765.404)" fill="#fff"/>
              <path id="Path_3219" data-name="Path 3219" d="M299.814-757.267a.2.2,0,0,1-.139-.056l-8.29-7.935a.2.2,0,0,1-.006-.285.2.2,0,0,1,.285-.006l8.29,7.935a.2.2,0,0,1,.006.285A.2.2,0,0,1,299.814-757.267Z" fill="#19191a"/>
            </g>
            <g id="Group_353" data-name="Group 353">
              <line id="Line_82" data-name="Line 82" x1="8.489" y1="8.124" transform="translate(290.201 -764.114)" fill="#fff"/>
              <path id="Path_3220" data-name="Path 3220" d="M298.689-755.788a.2.2,0,0,1-.139-.056l-8.489-8.124a.2.2,0,0,1-.006-.285.2.2,0,0,1,.285-.007l8.489,8.125a.2.2,0,0,1,.006.285A.2.2,0,0,1,298.689-755.788Z" fill="#19191a"/>
            </g>
            <g id="Group_354" data-name="Group 354">
              <line id="Line_83" data-name="Line 83" x1="8.642" y1="8.272" transform="translate(288.89 -762.813)" fill="#fff"/>
              <path id="Path_3221" data-name="Path 3221" d="M297.532-754.34a.2.2,0,0,1-.139-.056l-8.642-8.272a.2.2,0,0,1-.007-.285.2.2,0,0,1,.285-.006l8.642,8.272a.2.2,0,0,1,.006.285A.2.2,0,0,1,297.532-754.34Z" fill="#19191a"/>
            </g>
            <g id="Group_355" data-name="Group 355">
              <line id="Line_84" data-name="Line 84" x1="8.749" y1="8.374" transform="translate(287.592 -761.499)" fill="#fff"/>
              <path id="Path_3222" data-name="Path 3222" d="M296.341-752.924a.2.2,0,0,1-.14-.056l-8.748-8.373a.2.2,0,0,1-.007-.285.2.2,0,0,1,.285-.006l8.749,8.373a.2.2,0,0,1,.006.285A.2.2,0,0,1,296.341-752.924Z" fill="#19191a"/>
            </g>
            <g id="Group_356" data-name="Group 356">
              <line id="Line_85" data-name="Line 85" x1="8.809" y1="8.431" transform="translate(286.309 -760.17)" fill="#fff"/>
              <path id="Path_3223" data-name="Path 3223" d="M295.118-751.538a.2.2,0,0,1-.139-.056l-8.809-8.431a.2.2,0,0,1-.007-.284.2.2,0,0,1,.285-.007l8.809,8.431a.2.2,0,0,1,.006.285A.2.2,0,0,1,295.118-751.538Z" fill="#19191a"/>
            </g>
            <g id="Group_357" data-name="Group 357">
              <line id="Line_86" data-name="Line 86" x1="8.819" y1="8.44" transform="translate(285.043 -758.826)" fill="#fff"/>
              <path id="Path_3224" data-name="Path 3224" d="M293.862-750.184a.2.2,0,0,1-.139-.056l-8.819-8.44a.2.2,0,0,1-.007-.285.2.2,0,0,1,.285-.006l8.819,8.44a.2.2,0,0,1,.007.285A.2.2,0,0,1,293.862-750.184Z" fill="#19191a"/>
            </g>
            <g id="Group_358" data-name="Group 358">
              <line id="Line_87" data-name="Line 87" x1="8.774" y1="8.398" transform="translate(283.8 -757.46)" fill="#fff"/>
              <path id="Path_3225" data-name="Path 3225" d="M292.574-748.861a.2.2,0,0,1-.139-.055l-8.775-8.4a.2.2,0,0,1-.006-.285.2.2,0,0,1,.285-.006l8.774,8.4a.2.2,0,0,1,.007.285A.2.2,0,0,1,292.574-748.861Z" fill="#19191a"/>
            </g>
            <g id="Group_359" data-name="Group 359">
              <line id="Line_88" data-name="Line 88" x1="8.67" y1="8.298" transform="translate(282.584 -756.068)" fill="#fff"/>
              <path id="Path_3226" data-name="Path 3226" d="M291.254-747.568a.2.2,0,0,1-.14-.056l-8.67-8.3a.2.2,0,0,1-.006-.284.2.2,0,0,1,.285-.007l8.67,8.3a.2.2,0,0,1,.006.285A.2.2,0,0,1,291.254-747.568Z" fill="#19191a"/>
            </g>
            <g id="Group_360" data-name="Group 360">
              <line id="Line_89" data-name="Line 89" x1="8.495" y1="8.129" transform="translate(281.406 -754.638)" fill="#fff"/>
              <path id="Path_3227" data-name="Path 3227" d="M289.9-746.307a.2.2,0,0,1-.14-.056l-8.495-8.129a.2.2,0,0,1-.006-.285.2.2,0,0,1,.285-.006l8.495,8.129a.2.2,0,0,1,.006.285A.2.2,0,0,1,289.9-746.307Z" fill="#19191a"/>
            </g>
            <g id="Group_361" data-name="Group 361">
              <line id="Line_90" data-name="Line 90" x1="8.494" y1="7.634" transform="translate(280.293 -753.148)" fill="#fff"/>
              <path id="Path_3228" data-name="Path 3228" d="M288.787-745.313a.2.2,0,0,1-.134-.052l-8.5-7.633a.2.2,0,0,1-.015-.285.2.2,0,0,1,.285-.015l8.494,7.633a.2.2,0,0,1,.015.285A.2.2,0,0,1,288.787-745.313Z" fill="#19191a"/>
            </g>
          </g>
          <g id="袋">
            <path id="Path_3229" data-name="Path 3229" d="M151.289-721.555c-10.271,0-20.661-.2-30.91-.606a.2.2,0,0,1-.185-.143l-4.6-15.035a.2.2,0,0,1,.069-.218c5.693-4.455,7.861-11,8.678-15.705a35.863,35.863,0,0,0,.411-9.265.2.2,0,0,1,.05-.157.2.2,0,0,1,.15-.068H177.57a.2.2,0,0,1,.151.068.2.2,0,0,1,.049.157,35.863,35.863,0,0,0,.411,9.265c.817,4.706,2.986,11.25,8.679,15.705a.2.2,0,0,1,.068.218l-4.6,15.035a.2.2,0,0,1-.185.143c-9.7.381-19.537.584-29.244.6Zm-30.751-1c10.735.419,21.621.621,32.365.6,9.654-.02,19.44-.221,29.086-.6l4.513-14.767a22.251,22.251,0,0,1-6.072-7.586,30,30,0,0,1-2.648-8.294,37.071,37.071,0,0,1-.435-9.144H125.18a37.018,37.018,0,0,1-.435,9.144,30.027,30.027,0,0,1-2.647,8.294,22.265,22.265,0,0,1-6.073,7.586Z" fill="#19191a"/>
            <g id="Group_367" data-name="Group 367">
              <g id="Group_363" data-name="Group 363">
                <path id="Path_3230" data-name="Path 3230" d="M127.468-762.032a.079.079,0,0,1-.079-.07c-.039-.3-.067-.474-.068-.475a.081.081,0,0,1,.066-.093.08.08,0,0,1,.093.066c0,.006.03.172.069.482a.082.082,0,0,1-.07.09Z" fill="#19191a"/>
                <path id="Path_3231" data-name="Path 3231" d="M117.675-736.077a.084.084,0,0,1-.066-.033.081.081,0,0,1,.018-.113c.259-.19.517-.388.766-.587a.08.08,0,0,1,.113.013.08.08,0,0,1-.012.113c-.251.2-.511.4-.772.591A.076.076,0,0,1,117.675-736.077Zm1.512-1.209a.083.083,0,0,1-.061-.028.082.082,0,0,1,.008-.114c.243-.211.483-.429.715-.649a.082.082,0,0,1,.114,0,.081.081,0,0,1,0,.114c-.234.221-.476.441-.72.654A.081.081,0,0,1,119.187-737.286Zm1.406-1.332a.079.079,0,0,1-.056-.023.08.08,0,0,1,0-.114c.222-.23.443-.468.656-.707a.08.08,0,0,1,.114-.007.082.082,0,0,1,.007.114c-.215.241-.437.481-.661.712A.083.083,0,0,1,120.593-738.618Zm1.286-1.448a.082.082,0,0,1-.051-.018.081.081,0,0,1-.011-.113c.2-.249.4-.505.593-.761a.081.081,0,0,1,.113-.017.081.081,0,0,1,.017.113c-.193.259-.4.517-.6.767A.082.082,0,0,1,121.879-740.066Zm1.159-1.552a.073.073,0,0,1-.045-.014.081.081,0,0,1-.022-.112c.18-.263.358-.535.528-.808a.081.081,0,0,1,.111-.026.08.08,0,0,1,.026.111c-.171.275-.35.549-.531.814A.081.081,0,0,1,123.038-741.618Zm1.025-1.643a.078.078,0,0,1-.039-.01.081.081,0,0,1-.031-.11c.158-.278.313-.564.461-.849a.08.08,0,0,1,.108-.035.081.081,0,0,1,.035.109c-.149.287-.305.575-.463.854A.083.083,0,0,1,124.063-743.261Zm.891-1.721a.087.087,0,0,1-.035-.007.08.08,0,0,1-.038-.107c.136-.29.268-.587.393-.883a.08.08,0,0,1,.106-.042.08.08,0,0,1,.043.1c-.126.3-.26.6-.4.888A.081.081,0,0,1,124.954-744.982Zm.756-1.784a.072.072,0,0,1-.029-.005.081.081,0,0,1-.047-.1c.114-.3.224-.6.328-.909a.081.081,0,0,1,.1-.05.08.08,0,0,1,.051.1c-.1.307-.216.615-.33.915A.08.08,0,0,1,125.71-746.766Zm.625-1.834-.023,0a.081.081,0,0,1-.054-.1c.092-.3.181-.616.265-.929a.08.08,0,0,1,.1-.057.08.08,0,0,1,.057.1c-.084.315-.174.629-.267.935A.079.079,0,0,1,126.335-748.6Zm.5-1.872-.019,0a.081.081,0,0,1-.06-.1c.072-.312.141-.63.2-.945a.081.081,0,0,1,.1-.063.079.079,0,0,1,.063.094c-.063.317-.132.637-.205.95A.081.081,0,0,1,126.836-750.472Zm.38-1.9H127.2a.08.08,0,0,1-.066-.093c.053-.313.1-.635.147-.956a.08.08,0,0,1,.09-.069.08.08,0,0,1,.069.091c-.045.323-.094.646-.147.961A.081.081,0,0,1,127.216-752.373Zm.267-1.92h-.009a.081.081,0,0,1-.071-.089c.035-.317.065-.641.092-.963a.081.081,0,0,1,.087-.074.08.08,0,0,1,.073.087c-.026.324-.057.649-.092.968A.082.082,0,0,1,127.483-754.293Zm.158-1.933h0a.082.082,0,0,1-.076-.085c.017-.321.031-.646.039-.967a.08.08,0,0,1,.083-.078.079.079,0,0,1,.078.083c-.008.321-.021.648-.039.971A.08.08,0,0,1,127.641-756.226Zm.052-1.939a.08.08,0,0,1-.081-.08c0-.322,0-.647-.013-.967a.08.08,0,0,1,.078-.083.081.081,0,0,1,.083.079c.009.321.013.647.013.971A.08.08,0,0,1,127.693-758.165Zm-.054-1.937a.08.08,0,0,1-.08-.076c-.019-.327-.042-.652-.069-.964a.081.081,0,0,1,.073-.087.081.081,0,0,1,.088.073c.027.314.05.64.069.969a.081.081,0,0,1-.076.085Z" fill="#19191a"/>
                <path id="Path_3232" data-name="Path 3232" d="M116.477-735.253a.085.085,0,0,1-.068-.037.082.082,0,0,1,.024-.112c.136-.087.27-.176.4-.265a.081.081,0,0,1,.112.022.081.081,0,0,1-.022.112c-.133.089-.269.179-.4.267A.09.09,0,0,1,116.477-735.253Z" fill="#19191a"/>
              </g>
              <g id="Group_364" data-name="Group 364">
                <path id="Path_3233" data-name="Path 3233" d="M128.578-762.032a.081.081,0,0,1-.079-.07c-.04-.3-.07-.473-.07-.475a.08.08,0,0,1,.065-.093.081.081,0,0,1,.094.065c0,.007.03.173.07.482a.079.079,0,0,1-.069.09Z" fill="#19191a"/>
                <path id="Path_3234" data-name="Path 3234" d="M118-734.93a.08.08,0,0,1-.066-.035.08.08,0,0,1,.02-.112c.258-.182.516-.372.767-.564a.08.08,0,0,1,.112.016.079.079,0,0,1-.015.113c-.251.192-.511.383-.771.567A.082.082,0,0,1,118-734.93Zm1.516-1.16a.081.081,0,0,1-.062-.029.081.081,0,0,1,.011-.114c.243-.2.486-.41.72-.621a.081.081,0,0,1,.114.007.079.079,0,0,1-.006.113c-.236.212-.48.422-.725.625A.08.08,0,0,1,119.514-736.09Zm1.421-1.274a.079.079,0,0,1-.058-.025.081.081,0,0,1,0-.114c.227-.22.452-.447.669-.676a.081.081,0,0,1,.114,0,.081.081,0,0,1,0,.114c-.219.23-.445.459-.674.68A.079.079,0,0,1,120.935-737.364Zm1.315-1.383a.081.081,0,0,1-.053-.02.081.081,0,0,1-.007-.114c.208-.237.414-.482.613-.727a.08.08,0,0,1,.113-.012.08.08,0,0,1,.012.113c-.2.247-.407.493-.617.732A.078.078,0,0,1,122.25-738.747Zm1.2-1.484a.081.081,0,0,1-.048-.016.081.081,0,0,1-.016-.113c.188-.253.374-.513.553-.774a.079.079,0,0,1,.112-.021.08.08,0,0,1,.021.112c-.18.262-.367.525-.557.779A.079.079,0,0,1,123.45-740.231Zm1.079-1.575a.075.075,0,0,1-.043-.013.08.08,0,0,1-.025-.111c.167-.266.332-.54.49-.815a.081.081,0,0,1,.11-.03.081.081,0,0,1,.03.11c-.159.277-.326.553-.494.821A.08.08,0,0,1,124.529-741.806Zm.953-1.655a.085.085,0,0,1-.038-.009.081.081,0,0,1-.033-.109c.146-.278.29-.564.427-.85a.08.08,0,0,1,.108-.038.08.08,0,0,1,.038.107c-.139.288-.283.576-.431.856A.078.078,0,0,1,125.482-743.461Zm.826-1.721a.077.077,0,0,1-.032-.007.081.081,0,0,1-.042-.106c.126-.288.249-.583.366-.879a.08.08,0,0,1,.1-.046.082.082,0,0,1,.046.1c-.118.3-.241.595-.368.885A.081.081,0,0,1,126.308-745.182Zm.7-1.776a.086.086,0,0,1-.027-.005.081.081,0,0,1-.049-.1c.105-.3.207-.6.3-.9a.079.079,0,0,1,.1-.053.08.08,0,0,1,.052.1c-.1.306-.2.611-.305.908A.081.081,0,0,1,127.01-746.958Zm.58-1.82a.077.077,0,0,1-.022,0,.081.081,0,0,1-.056-.1c.085-.3.168-.611.245-.92a.08.08,0,0,1,.1-.059.08.08,0,0,1,.058.1c-.077.31-.16.622-.246.925A.08.08,0,0,1,127.59-748.778Zm.462-1.854-.017,0a.08.08,0,0,1-.062-.1c.066-.306.13-.62.188-.935a.081.081,0,0,1,.094-.064.081.081,0,0,1,.065.094c-.059.316-.123.632-.189.939A.081.081,0,0,1,128.052-750.632Zm.35-1.878h-.013a.08.08,0,0,1-.067-.092c.049-.311.094-.628.134-.944a.081.081,0,0,1,.09-.069.08.08,0,0,1,.07.09c-.04.317-.086.636-.134.948A.081.081,0,0,1,128.4-752.51Zm.242-1.9h-.008a.081.081,0,0,1-.072-.088c.031-.313.059-.632.082-.95a.081.081,0,0,1,.086-.074.081.081,0,0,1,.075.086c-.023.319-.051.64-.083.954A.08.08,0,0,1,128.644-754.405Zm.139-1.906h0a.081.081,0,0,1-.077-.085c.015-.315.026-.636.032-.953a.081.081,0,0,1,.08-.079h0a.08.08,0,0,1,.079.082c-.006.319-.017.641-.032.958A.08.08,0,0,1,128.783-756.311Zm.038-1.911a.081.081,0,0,1-.081-.08c0-.319-.009-.639-.019-.953a.081.081,0,0,1,.078-.083.082.082,0,0,1,.083.078c.011.315.017.637.019.957a.08.08,0,0,1-.08.081Zm-.065-1.909a.08.08,0,0,1-.08-.075c-.02-.323-.045-.643-.073-.95a.081.081,0,0,1,.073-.088.081.081,0,0,1,.088.073c.028.309.053.63.073.955a.081.081,0,0,1-.076.085Z" fill="#19191a"/>
                <path id="Path_3235" data-name="Path 3235" d="M116.8-734.133a.081.081,0,0,1-.069-.038.081.081,0,0,1,.026-.111q.205-.129.406-.259a.081.081,0,0,1,.112.023.082.082,0,0,1-.024.112c-.135.087-.271.175-.409.261A.081.081,0,0,1,116.8-734.133Z" fill="#19191a"/>
              </g>
              <g id="Group_365" data-name="Group 365">
                <path id="Path_3236" data-name="Path 3236" d="M174.978-762.032h-.01a.081.081,0,0,1-.07-.09c.039-.31.067-.476.068-.482a.081.081,0,0,1,.093-.066.08.08,0,0,1,.066.093s-.028.17-.067.475A.08.08,0,0,1,174.978-762.032Z" fill="#19191a"/>
                <path id="Path_3237" data-name="Path 3237" d="M184.772-736.077a.081.081,0,0,1-.048-.016c-.26-.191-.52-.39-.771-.591a.08.08,0,0,1-.013-.113.08.08,0,0,1,.113-.013c.25.2.508.4.767.587a.081.081,0,0,1,.017.113A.082.082,0,0,1,184.772-736.077Zm-1.513-1.209a.085.085,0,0,1-.053-.02c-.244-.213-.486-.433-.719-.654a.081.081,0,0,1,0-.114.082.082,0,0,1,.114,0c.231.22.472.438.714.649a.081.081,0,0,1,.008.114A.082.082,0,0,1,183.259-737.286Zm-1.4-1.332a.083.083,0,0,1-.058-.025c-.224-.231-.447-.471-.661-.712a.08.08,0,0,1,.007-.114.079.079,0,0,1,.113.007c.213.239.434.477.657.707a.081.081,0,0,1,0,.114A.082.082,0,0,1,181.854-738.618Zm-1.287-1.448a.081.081,0,0,1-.062-.029c-.2-.25-.4-.508-.6-.767a.081.081,0,0,1,.016-.113.081.081,0,0,1,.113.017c.192.256.392.512.594.761a.08.08,0,0,1-.012.113A.082.082,0,0,1,180.567-740.066Zm-1.158-1.552a.081.081,0,0,1-.067-.035c-.181-.265-.36-.539-.531-.814a.08.08,0,0,1,.025-.111.081.081,0,0,1,.111.026c.171.273.348.545.528.808a.08.08,0,0,1-.021.112A.077.077,0,0,1,179.409-741.618Zm-1.026-1.643a.081.081,0,0,1-.07-.041c-.159-.279-.315-.567-.463-.854a.081.081,0,0,1,.034-.109.081.081,0,0,1,.109.035c.147.285.3.571.46.849a.081.081,0,0,1-.03.11A.082.082,0,0,1,178.383-743.261Zm-.89-1.721a.081.081,0,0,1-.073-.046c-.137-.292-.27-.59-.4-.888a.08.08,0,0,1,.043-.1.081.081,0,0,1,.106.042c.125.3.257.593.393.883a.081.081,0,0,1-.039.107A.083.083,0,0,1,177.493-744.982Zm-.756-1.784a.079.079,0,0,1-.075-.051c-.115-.3-.226-.608-.33-.915a.08.08,0,0,1,.05-.1.08.08,0,0,1,.1.05c.1.3.215.611.328.909a.081.081,0,0,1-.046.1A.078.078,0,0,1,176.737-746.766Zm-.626-1.834a.081.081,0,0,1-.077-.057c-.092-.306-.182-.62-.266-.935a.08.08,0,0,1,.057-.1.081.081,0,0,1,.1.057c.083.313.172.625.264.929a.081.081,0,0,1-.053.1A.1.1,0,0,1,176.111-748.6Zm-.5-1.872a.079.079,0,0,1-.078-.063c-.073-.313-.142-.633-.206-.95a.08.08,0,0,1,.063-.094.08.08,0,0,1,.1.063c.063.315.132.633.205.945a.081.081,0,0,1-.061.1Zm-.381-1.9a.081.081,0,0,1-.079-.067c-.053-.315-.1-.638-.148-.961a.081.081,0,0,1,.069-.091.081.081,0,0,1,.091.069c.045.321.094.643.147.956a.081.081,0,0,1-.066.093Zm-.266-1.92a.08.08,0,0,1-.08-.072c-.035-.319-.066-.644-.093-.968a.082.082,0,0,1,.074-.087.082.082,0,0,1,.087.074c.026.322.057.646.092.963a.081.081,0,0,1-.071.089Zm-.158-1.933a.081.081,0,0,1-.081-.076c-.017-.323-.03-.65-.039-.971a.081.081,0,0,1,.079-.083.078.078,0,0,1,.082.078c.009.321.022.646.039.967a.08.08,0,0,1-.076.085Zm-.052-1.939h0a.08.08,0,0,1-.081-.08c0-.324,0-.65.014-.971a.079.079,0,0,1,.082-.079.081.081,0,0,1,.079.083c-.009.32-.013.645-.014.967A.08.08,0,0,1,174.754-758.165Zm.054-1.937H174.8a.08.08,0,0,1-.076-.085c.018-.329.042-.655.069-.969a.081.081,0,0,1,.087-.073.081.081,0,0,1,.074.087c-.028.312-.051.637-.069.964A.08.08,0,0,1,174.808-760.1Z" fill="#19191a"/>
                <path id="Path_3238" data-name="Path 3238" d="M185.969-735.253a.086.086,0,0,1-.043-.013c-.137-.088-.272-.178-.4-.267a.081.081,0,0,1-.022-.112.081.081,0,0,1,.112-.022c.132.089.266.178.4.265a.081.081,0,0,1,.024.112A.082.082,0,0,1,185.969-735.253Z" fill="#19191a"/>
              </g>
              <g id="Group_366" data-name="Group 366">
                <path id="Path_3239" data-name="Path 3239" d="M173.868-762.032h-.01a.08.08,0,0,1-.07-.09c.041-.309.07-.475.071-.482a.079.079,0,0,1,.093-.065.081.081,0,0,1,.066.093s-.03.17-.07.475A.081.081,0,0,1,173.868-762.032Z" fill="#19191a"/>
                <path id="Path_3240" data-name="Path 3240" d="M184.448-734.93a.079.079,0,0,1-.046-.015c-.26-.184-.52-.375-.772-.567a.081.081,0,0,1-.015-.113.081.081,0,0,1,.113-.016c.25.192.508.382.767.564a.08.08,0,0,1,.019.112A.08.08,0,0,1,184.448-734.93Zm-1.516-1.16a.077.077,0,0,1-.051-.019c-.245-.2-.489-.413-.725-.625a.079.079,0,0,1-.007-.113.081.081,0,0,1,.114-.007c.235.211.477.419.721.621a.082.082,0,0,1,.011.114A.082.082,0,0,1,182.932-736.09Zm-1.421-1.274a.082.082,0,0,1-.056-.023c-.228-.221-.455-.45-.673-.68a.081.081,0,0,1,0-.114.081.081,0,0,1,.114,0c.218.229.443.456.669.676a.081.081,0,0,1,0,.114A.079.079,0,0,1,181.511-737.364Zm-1.315-1.383a.077.077,0,0,1-.06-.028c-.21-.239-.418-.485-.617-.732a.08.08,0,0,1,.012-.113.08.08,0,0,1,.113.012c.2.245.4.49.613.727a.081.081,0,0,1-.008.114A.081.081,0,0,1,180.2-738.747Zm-1.2-1.484a.081.081,0,0,1-.065-.033c-.189-.254-.376-.517-.556-.779a.08.08,0,0,1,.021-.112.08.08,0,0,1,.112.021c.178.261.365.521.553.774a.081.081,0,0,1-.017.113A.077.077,0,0,1,179-740.231Zm-1.078-1.575a.083.083,0,0,1-.069-.038c-.168-.268-.334-.544-.493-.821a.08.08,0,0,1,.029-.11.08.08,0,0,1,.11.03c.159.275.324.549.491.815a.081.081,0,0,1-.025.111A.08.08,0,0,1,177.918-741.806Zm-.953-1.655a.081.081,0,0,1-.072-.043c-.147-.28-.292-.568-.43-.856a.08.08,0,0,1,.038-.107.08.08,0,0,1,.107.038c.138.286.282.572.428.85a.08.08,0,0,1-.034.109A.084.084,0,0,1,176.965-743.461Zm-.827-1.721a.081.081,0,0,1-.074-.048c-.126-.29-.25-.588-.367-.885a.082.082,0,0,1,.045-.1.081.081,0,0,1,.1.046c.117.3.24.591.365.879a.08.08,0,0,1-.042.106A.071.071,0,0,1,176.138-745.182Zm-.7-1.776a.081.081,0,0,1-.076-.054c-.106-.3-.209-.6-.306-.908a.081.081,0,0,1,.052-.1.081.081,0,0,1,.1.053c.1.3.2.607.3.9a.081.081,0,0,1-.049.1A.086.086,0,0,1,175.437-746.958Zm-.58-1.82a.081.081,0,0,1-.078-.059c-.085-.3-.168-.615-.246-.925a.082.082,0,0,1,.059-.1.081.081,0,0,1,.1.059c.077.309.159.618.245.92a.081.081,0,0,1-.056.1A.083.083,0,0,1,174.857-748.778Zm-.462-1.854a.08.08,0,0,1-.079-.063c-.067-.307-.13-.623-.189-.939a.08.08,0,0,1,.064-.094.081.081,0,0,1,.094.064c.059.315.122.629.189.935a.081.081,0,0,1-.062.1Zm-.35-1.878a.081.081,0,0,1-.08-.068c-.049-.312-.094-.631-.135-.948a.081.081,0,0,1,.07-.09.079.079,0,0,1,.09.069c.041.316.086.633.134.944a.08.08,0,0,1-.067.092Zm-.243-1.9a.08.08,0,0,1-.08-.073c-.031-.314-.059-.635-.082-.954a.08.08,0,0,1,.074-.086.081.081,0,0,1,.087.074c.023.318.05.637.082.95a.081.081,0,0,1-.073.088Zm-.138-1.906a.081.081,0,0,1-.081-.077c-.015-.317-.025-.639-.031-.958a.08.08,0,0,1,.079-.082h0a.081.081,0,0,1,.081.079c.006.317.017.638.031.953a.081.081,0,0,1-.077.085Zm-.038-1.911h0a.081.081,0,0,1-.08-.081c0-.32.009-.642.019-.957a.083.083,0,0,1,.084-.078.081.081,0,0,1,.078.083c-.011.314-.017.634-.02.953A.08.08,0,0,1,173.626-758.222Zm.064-1.909h-.005a.08.08,0,0,1-.075-.085c.02-.325.044-.646.073-.955a.081.081,0,0,1,.088-.073.081.081,0,0,1,.073.088c-.029.307-.053.627-.073.95A.081.081,0,0,1,173.69-760.131Z" fill="#19191a"/>
                <path id="Path_3241" data-name="Path 3241" d="M185.647-734.133a.085.085,0,0,1-.043-.012c-.138-.086-.274-.174-.409-.261a.082.082,0,0,1-.023-.112.081.081,0,0,1,.112-.023c.133.087.269.173.406.259a.08.08,0,0,1,.025.111A.078.078,0,0,1,185.647-734.133Z" fill="#19191a"/>
              </g>
            </g>
          </g>
          <g id="Group_384" data-name="Group 384">
            <g id="Group_381" data-name="Group 381">
              <g id="Group_374" data-name="Group 374">
                <g id="Group_368" data-name="Group 368">
                  <path id="Path_3242" data-name="Path 3242" d="M125.724-868.066l.07.03-.07-.029c-.155-.071-.338-.157-.537-.257C125.386-868.223,125.569-868.136,125.724-868.066Z" fill="#fff"/>
                  <path id="Path_3243" data-name="Path 3243" d="M125.794-867.834a.207.207,0,0,1-.077-.015l-.077-.034c-.177-.079-.36-.167-.544-.259a.2.2,0,0,1-.09-.27.2.2,0,0,1,.27-.09c.181.09.365.177.531.252h0l.036.016.031.013a.2.2,0,0,1,.1.264A.2.2,0,0,1,125.794-867.834Z" fill="#19191a"/>
                </g>
                <g id="Group_369" data-name="Group 369">
                  <ellipse id="Ellipse_3" data-name="Ellipse 3" cx="1.476" cy="1.533" rx="1.476" ry="1.533" transform="translate(140.38 -860.964)" fill="#fff"/>
                  <path id="Path_3244" data-name="Path 3244" d="M141.856-857.7a1.709,1.709,0,0,1-1.678-1.735,1.709,1.709,0,0,1,1.678-1.734,1.709,1.709,0,0,1,1.678,1.734A1.709,1.709,0,0,1,141.856-857.7Zm0-3.066a1.305,1.305,0,0,0-1.275,1.331,1.306,1.306,0,0,0,1.275,1.332,1.306,1.306,0,0,0,1.275-1.332A1.305,1.305,0,0,0,141.856-860.762Z" fill="#19191a"/>
                </g>
                <g id="Group_370" data-name="Group 370">
                  <path id="Path_3245" data-name="Path 3245" d="M131.349-872.868c-.462,1.478-5.323,4.919-5.323,4.919l-.081-.028c-.053-.019-.1-.038-.151-.059l-.07-.029c-.155-.071-.338-.157-.537-.257l-.2-.1-.213-.111c-.073-.038-.145-.078-.219-.118l-.074-.04c-.075-.041-.149-.083-.224-.126-.1-.057-.2-.115-.3-.175q-.111-.066-.222-.135c-.927-.581-1.723-1.239-1.576-1.691a.394.394,0,0,1,.112-.171.7.7,0,0,1,.143-.1,2.821,2.821,0,0,1,.414-.186c.117-.044.246-.088.387-.131l.062-.019c.144-.043.3-.086.465-.129l.143-.038.225-.054.076-.019.156-.036.159-.036.081-.018.247-.054.254-.053.173-.035C127.682-872.391,130.752-872.792,131.349-872.868Z" fill="#fff"/>
                  <path id="Path_3246" data-name="Path 3246" d="M126.026-867.747a.193.193,0,0,1-.067-.012l-.079-.027c-.06-.022-.113-.042-.164-.064-.025-.01-.051-.021-.076-.033-.177-.079-.36-.167-.544-.259l-.149-.075-.056-.028c-.072-.037-.145-.074-.218-.114s-.138-.074-.21-.113l-.01-.005-.074-.041-.226-.127c-.1-.058-.2-.117-.3-.177-.075-.045-.15-.091-.224-.138-1.279-.8-1.823-1.429-1.662-1.923a.6.6,0,0,1,.166-.256.972.972,0,0,1,.182-.131,3.151,3.151,0,0,1,.441-.2c.119-.044.253-.089.4-.135.023-.006.042-.012.059-.018.135-.04.285-.082.476-.132l.143-.037.228-.056.075-.018.145-.034.014,0,.161-.036.037-.008.047-.011.089-.019.157-.034.255-.054.081-.016.095-.019c2.454-.494,5.52-.893,6.11-.968a.2.2,0,0,1,.18.071.2.2,0,0,1,.037.189c-.476,1.526-5.2,4.882-5.4,5.024A.2.2,0,0,1,126.026-867.747Zm4.985-4.874c-1.035.136-3.606.491-5.719.917l-.093.018-.081.016-.251.053-.155.034-.173.038-.156.035-.015,0-.139.032-.079.019-.221.054-.141.037c-.184.048-.33.089-.457.127-.019.007-.043.014-.065.02-.135.042-.262.084-.372.125a2.9,2.9,0,0,0-.384.173.574.574,0,0,0-.105.073.2.2,0,0,0-.058.087c-.024.073-.063.485,1.491,1.458l.219.133c.1.059.2.117.295.173l.221.125.072.038.01.006.207.111.212.111.056.028.146.074c.18.09.358.175.531.253l.064.027c.04.017.08.033.123.049C127.276-869.088,130.256-871.374,131.011-872.621Z" fill="#19191a"/>
                </g>
                <g id="Group_371" data-name="Group 371">
                  <path id="Path_3247" data-name="Path 3247" d="M141.324-862.359c-3.62-1.662-7.663-3.635-8.9-4.155-1.794-.757-4.922-.937-6.4-1.435,0,0,4.861-3.441,5.323-4.919s1.31-3.178,3.237-3.251c.326-.013.8,0,1.4.035l-.043.021h0c-1.9.941-1.81,3.359-.2,5.485C137.361-868.435,140.9-864.186,141.324-862.359Z" fill="#fff"/>
                  <path id="Path_3248" data-name="Path 3248" d="M141.324-862.157a.205.205,0,0,1-.084-.018c-1.72-.79-3.514-1.64-5.1-2.39-1.69-.8-3.149-1.491-3.793-1.763a18.71,18.71,0,0,0-3.8-.89,19.065,19.065,0,0,1-2.584-.539.2.2,0,0,1-.136-.162.2.2,0,0,1,.083-.194c1.337-.946,4.885-3.656,5.248-4.815.7-2.222,1.814-3.331,3.421-3.393.306-.012.758,0,1.422.036a.2.2,0,0,1,.187.165.2.2,0,0,1-.116.22l-.031.015-.015.008a2.233,2.233,0,0,0-1.222,1.516,4.668,4.668,0,0,0,1.1,3.662c.3.394.668.869,1.059,1.371,1.772,2.275,4.2,5.39,4.558,6.923a.2.2,0,0,1-.069.2A.2.2,0,0,1,141.324-862.157Zm-14.846-5.869c.585.152,1.342.278,2.135.41a18.955,18.955,0,0,1,3.894.917c.651.275,2.044.934,3.808,1.77,1.455.689,3.088,1.462,4.676,2.2-.622-1.564-2.753-4.3-4.347-6.346-.392-.5-.763-.979-1.062-1.376a5,5,0,0,1-1.172-4,2.586,2.586,0,0,1,.921-1.459c-.314-.011-.554-.013-.737-.006-1.436.055-2.406,1.043-3.053,3.11C131.132-871.5,127.6-868.845,126.478-868.026Z" fill="#19191a"/>
                </g>
                <g id="Group_372" data-name="Group 372">
                  <path id="Path_3249" data-name="Path 3249" d="M167.646-870.578c-1.618,2.143-5.152,6.392-5.581,8.219-2.035.936-3.937,1.774-5.129,2.2-.1.034-.188.069-.279.106l-.13.055c-.1.044-.2.09-.293.137-.067.032-.132.066-.2.1l-.115.064c-.03.017-.06.034-.089.052-.094.055-.186.112-.274.172-.031.019-.062.039-.092.06-.1.069-.2.139-.29.211l-.1.075-.073.06c-.164.134-.317.273-.46.415-.018.018-.036.035-.053.053l-.054.055c-.1.1-.19.2-.278.3-.024.027-.047.056-.07.083l-.068.084c-.023.027-.045.056-.067.084-.109.139-.209.278-.3.414l-.054.082-.052.081c-.1.162-.2.32-.275.471l-.039.075c-.013.024-.025.049-.037.073-.073.146-.136.285-.188.411-.009.021-.018.042-.026.063-.039.1-.072.192-.1.275l-.016.051,0,.014c-.01.029-.018.058-.025.086a1.432,1.432,0,0,0-.047.239c-.046.648-.051,1.937-.053,2.278-.344.012-.693.017-1.046.017h-.009c-.351,0-.7-.005-1.039-.016,0-.34-.006-1.63-.052-2.279A6.617,6.617,0,0,0,146.862-860l-.13-.055c-.091-.037-.183-.072-.278-.106-1.193-.425-3.1-1.263-5.13-2.2-.429-1.827-3.963-6.076-5.581-8.219-1.608-2.126-1.695-4.544.2-5.485h0c.58.322,7.185,1.93,15.749,1.93s15.169-1.608,15.748-1.93h0C169.341-875.122,169.254-872.7,167.646-870.578Z" fill="#fff"/>
                  <path id="Path_3250" data-name="Path 3250" d="M151.7-853.156h-.009c-.352,0-.7-.006-1.045-.017a.2.2,0,0,1-.2-.2c0-.371-.007-1.632-.052-2.264a6.4,6.4,0,0,0-3.612-4.176l-.125-.053c-.1-.039-.184-.072-.271-.1-1.052-.375-2.735-1.1-5.146-2.205a.2.2,0,0,1-.112-.137c-.34-1.448-2.735-4.523-4.484-6.768-.392-.5-.763-.979-1.062-1.376a5,5,0,0,1-1.172-4,2.63,2.63,0,0,1,1.446-1.79.2.2,0,0,1,.188,0c.489.272,6.953,1.905,15.651,1.905s15.161-1.633,15.65-1.905a.207.207,0,0,1,.189,0,2.631,2.631,0,0,1,1.445,1.79,5,5,0,0,1-1.172,4h0c-.3.4-.67.872-1.062,1.376-1.749,2.245-4.144,5.32-4.484,6.768a.2.2,0,0,1-.112.137c-2.411,1.109-4.094,1.83-5.146,2.205-.087.031-.175.065-.27.1-.043.017-.085.035-.126.053-.092.04-.187.085-.283.132-.067.033-.129.065-.191.1l-.043.025-.068.037c-.028.017-.056.032-.083.049-.1.056-.185.111-.268.167-.033.021-.061.039-.088.058-.1.068-.193.137-.283.206l-.092.071-.072.059c-.151.124-.3.259-.447.4l-.02.019-.029.029-.051.052c-.1.1-.188.2-.274.3l-.067.08-.069.084-.059.075q-.156.2-.3.408l-.053.08-.05.078c-.1.149-.185.3-.266.457-.014.024-.025.046-.036.067l0,.009-.027.052-.008.016c-.069.137-.13.271-.181.4-.01.022-.018.041-.025.059-.038.1-.07.185-.1.264l-.015.047,0,.006,0,.013c-.009.026-.016.051-.022.075a1.258,1.258,0,0,0-.041.2c-.03.419-.047,1.175-.052,2.248v.016a.2.2,0,0,1-.194.2C152.411-853.162,152.056-853.156,151.7-853.156Zm-.847-.414c.275.007.556.011.838.011h.009c.288,0,.572,0,.845-.012.007-.987.024-1.692.053-2.1a1.538,1.538,0,0,1,.053-.277c.008-.029.016-.059.026-.09l.007-.023.01-.032.005-.015c.028-.088.063-.185.1-.288q.012-.031.027-.066c.055-.135.12-.278.194-.424l.007-.015.032-.063c.015-.028.027-.053.041-.077.085-.161.18-.324.281-.482l.053-.083.021-.033.035-.052c.1-.147.2-.291.31-.426.024-.031.046-.06.069-.087l.069-.084c.023-.029.048-.059.074-.088.089-.1.185-.209.285-.312l.053-.055.038-.038.017-.017c.156-.154.316-.3.476-.429.024-.02.05-.042.077-.063s.064-.051.1-.077c.094-.072.194-.145.3-.216.03-.022.063-.043.1-.065.086-.057.182-.117.281-.175.027-.017.059-.035.091-.053l.071-.04.045-.025c.07-.038.138-.073.208-.106.1-.05.2-.1.3-.141l.136-.057c.1-.04.193-.076.286-.109,1.027-.366,2.672-1.07,5.026-2.152.435-1.564,2.8-4.6,4.533-6.826.391-.5.761-.977,1.059-1.371h0a4.668,4.668,0,0,0,1.1-3.662,2.223,2.223,0,0,0-1.148-1.478,58.619,58.619,0,0,1-15.743,1.908,58.622,58.622,0,0,1-15.744-1.908,2.223,2.223,0,0,0-1.148,1.478,4.668,4.668,0,0,0,1.1,3.662c.3.394.668.869,1.059,1.371,1.735,2.228,4.1,5.262,4.533,6.826,2.354,1.082,4,1.786,5.026,2.152.093.033.186.069.287.11l.135.056a6.83,6.83,0,0,1,3.853,4.517C150.835-855.108,150.846-854.079,150.848-853.57Zm2.216-2.37v0Zm9-6.419h0Z" fill="#19191a"/>
                </g>
                <g id="Group_373" data-name="Group 373">
                  <path id="Path_3251" data-name="Path 3251" d="M150.6-855.653A6.617,6.617,0,0,0,146.862-860l-.13-.055c-.091-.037-.183-.072-.278-.106-1.193-.425-3.1-1.263-5.13-2.2-3.62-1.662-7.663-3.635-8.9-4.155-1.794-.757-4.922-.937-6.4-1.435l-.081-.028c-.053-.019-.1-.038-.151-.059l-.07-.029c-.155-.071-.338-.157-.537-.257l-.2-.1-.213-.111c-.073-.038-.145-.078-.219-.118l-.074-.04c-.075-.041-.149-.083-.224-.126-.1-.057-.2-.115-.3-.175q-.111-.066-.222-.135c-.927-.581-1.723-1.239-1.576-1.691a.394.394,0,0,1,.112-.171.666.666,0,0,1,.143-.1,2.937,2.937,0,0,1,.414-.185c.117-.044.246-.088.387-.131l.062-.019c.144-.043.3-.087.465-.129l.143-.038c.074-.018.148-.037.225-.054l.076-.019.156-.036.159-.036.081-.018c.081-.019.164-.036.247-.054l.254-.053.173-.035c2.43-.489,5.5-.89,6.1-.966-12.407-.739-10.866,1.625-10.788,3.768s2.774,4.286.462,5.024c-2.133.683-2.337,4.014-2.382,4.7-.041.628,10.668.461,13.71,1.281,3.863,1.04,11.522,4.88,19.344,4.88A10.38,10.38,0,0,1,150.6-855.653Zm-8.739-2.244a1.506,1.506,0,0,1-1.476-1.534,1.506,1.506,0,0,1,1.476-1.533,1.506,1.506,0,0,1,1.476,1.533A1.506,1.506,0,0,1,141.856-857.9Z" fill="#fff"/>
                  <path id="Path_3252" data-name="Path 3252" d="M151.7-853.009c-5.78,0-11.456-2.078-15.6-3.6-1.491-.546-2.779-1.017-3.8-1.291a53.829,53.829,0,0,0-8.144-.714c-3.879-.177-5.37-.273-5.644-.579a.272.272,0,0,1-.071-.2v-.014c.177-2.713,1.049-4.4,2.52-4.868a1.093,1.093,0,0,0,.743-.529c.184-.436-.161-1.127-.525-1.859a6.24,6.24,0,0,1-.82-2.437c-.007-.2-.028-.4-.048-.6a2.544,2.544,0,0,1,.468-2.22c1.12-1.166,4.384-1.521,10.582-1.152a.2.2,0,0,1,.19.194.2.2,0,0,1-.177.207c-.587.075-3.64.472-6.082.964l-.093.018-.081.016-.251.053-.007,0-.237.051-.084.019-.156.035-.015,0-.139.032-.079.019c-.074.017-.147.036-.219.054l-.143.037c-.159.041-.313.084-.457.127-.019.007-.043.014-.065.02-.135.042-.262.084-.372.125a2.712,2.712,0,0,0-.384.172.53.53,0,0,0-.1.073.2.2,0,0,0-.06.088c-.024.073-.063.485,1.491,1.458l.219.133c.1.059.2.117.295.173l.221.125.072.038.01.006.207.111.212.111.056.028.146.074c.18.09.358.175.531.253l.064.027c.046.019.093.038.143.056l.079.027a18.644,18.644,0,0,0,2.52.523,18.955,18.955,0,0,1,3.894.917c.651.275,2.044.934,3.808,1.77,1.582.749,3.376,1.6,5.093,2.387,2.4,1.1,4.073,1.821,5.113,2.192.093.033.186.069.287.11l.135.056a6.831,6.831,0,0,1,3.853,4.517h0a9.676,9.676,0,0,0,1.072,2.354.2.2,0,0,1,0,.2A.2.2,0,0,1,151.7-853.009Zm-32.847-6.431a35.971,35.971,0,0,0,5.326.427,53.7,53.7,0,0,1,8.23.728c1.034.278,2.33.753,3.83,1.3,4.031,1.476,9.523,3.487,15.112,3.568a8.078,8.078,0,0,1-.952-2.223h0a6.4,6.4,0,0,0-3.612-4.175l-.125-.053c-.1-.039-.184-.072-.271-.1-1.052-.375-2.735-1.1-5.146-2.205-1.72-.79-3.514-1.64-5.1-2.39-1.69-.8-3.149-1.491-3.793-1.763a18.71,18.71,0,0,0-3.8-.89,19.065,19.065,0,0,1-2.584-.539l-.082-.029c-.06-.022-.113-.042-.164-.064-.025-.01-.051-.021-.076-.033-.177-.079-.36-.167-.544-.259l-.149-.075-.056-.028c-.072-.037-.145-.074-.218-.114s-.138-.074-.21-.113l-.01-.005-.074-.041-.226-.127c-.1-.058-.2-.117-.3-.177-.075-.045-.15-.091-.224-.138-1.279-.8-1.823-1.429-1.662-1.923a.6.6,0,0,1,.166-.256.884.884,0,0,1,.182-.131,2.933,2.933,0,0,1,.442-.2c.118-.044.252-.089.4-.135.023-.006.042-.012.059-.018.153-.046.312-.09.476-.133l.143-.036c.077-.02.152-.039.23-.057l.073-.017.145-.034.014,0,.161-.036.037-.008.047-.011.238-.052h.008l.255-.054.081-.016.095-.019c1.3-.261,2.767-.5,3.95-.67-4.616-.157-7.208.21-8.094,1.132a2.21,2.21,0,0,0-.358,1.9c.021.206.043.42.05.631a5.957,5.957,0,0,0,.778,2.272c.424.852.791,1.588.535,2.2a1.457,1.457,0,0,1-.991.756C119.814-863.477,119.021-861.9,118.848-859.44Zm23.008,1.744a1.709,1.709,0,0,1-1.678-1.735,1.709,1.709,0,0,1,1.678-1.734,1.709,1.709,0,0,1,1.678,1.734A1.709,1.709,0,0,1,141.856-857.7Zm0-3.066a1.305,1.305,0,0,0-1.275,1.331,1.306,1.306,0,0,0,1.275,1.332,1.306,1.306,0,0,0,1.275-1.332A1.305,1.305,0,0,0,141.856-860.762Z" fill="#19191a"/>
                </g>
              </g>
              <g id="Group_380" data-name="Group 380">
                <g id="Group_375" data-name="Group 375">
                  <ellipse id="Ellipse_4" data-name="Ellipse 4" cx="1.476" cy="1.533" rx="1.476" ry="1.533" transform="translate(160.057 -860.964)" fill="#fff"/>
                  <path id="Path_3253" data-name="Path 3253" d="M161.533-857.7a1.709,1.709,0,0,1-1.678-1.735,1.709,1.709,0,0,1,1.678-1.734,1.709,1.709,0,0,1,1.678,1.734A1.709,1.709,0,0,1,161.533-857.7Zm0-3.066a1.3,1.3,0,0,0-1.274,1.331,1.3,1.3,0,0,0,1.274,1.332,1.306,1.306,0,0,0,1.275-1.332A1.305,1.305,0,0,0,161.533-860.762Z" fill="#19191a"/>
                </g>
                <g id="Group_376" data-name="Group 376">
                  <path id="Path_3254" data-name="Path 3254" d="M177.665-868.066c.155-.07.338-.157.537-.256-.2.1-.382.186-.537.257l-.07.029Z" fill="#fff"/>
                  <path id="Path_3255" data-name="Path 3255" d="M177.6-867.835a.2.2,0,0,1-.186-.121.2.2,0,0,1,.1-.263l.032-.014.035-.016h0c.167-.075.35-.162.531-.252a.2.2,0,0,1,.27.09.2.2,0,0,1-.09.27c-.183.092-.366.18-.545.26l-.073.032A.217.217,0,0,1,177.6-867.835Z" fill="#19191a"/>
                </g>
                <g id="Group_377" data-name="Group 377">
                  <path id="Path_3256" data-name="Path 3256" d="M179.658-869.13q-.111.069-.222.135c-.1.06-.2.118-.3.175l-.223.126-.075.04c-.074.04-.146.08-.219.118s-.143.076-.213.111l-.205.1c-.2.1-.382.186-.537.257l-.07.029c-.048.021-.1.04-.151.059l-.081.028s-4.861-3.441-5.323-4.919c.6.076,3.667.477,6.1.966l.173.035.254.053.247.054c.028.005.054.012.081.018l.159.036.156.036.077.019.224.054.143.038c.165.043.321.086.465.129l.062.019c.141.043.27.087.387.131a2.822,2.822,0,0,1,.414.186.7.7,0,0,1,.143.1.393.393,0,0,1,.112.171C181.381-870.369,180.586-869.711,179.658-869.13Z" fill="#fff"/>
                  <path id="Path_3257" data-name="Path 3257" d="M177.363-867.747a.2.2,0,0,1-.116-.037c-.2-.142-4.923-3.5-5.4-5.024a.2.2,0,0,1,.038-.189.2.2,0,0,1,.179-.071c.59.075,3.657.474,6.112.968l.094.019.078.016.256.054.157.034.092.02.046.01.034.007.163.037.008,0,.149.035.074.018.227.056.146.037c.192.051.342.093.474.132l.057.018c.152.047.286.092.4.136a3.06,3.06,0,0,1,.443.2.9.9,0,0,1,.182.131.6.6,0,0,1,.165.255c.161.494-.383,1.124-1.661,1.923h0c-.075.047-.15.093-.226.138-.1.06-.2.119-.3.177l-.226.127-.077.042c-.076.041-.148.081-.221.118s-.143.076-.214.112l-.057.029-.15.076c-.182.091-.365.179-.544.259l-.073.032c-.053.022-.106.042-.162.063l-.083.029A.218.218,0,0,1,177.363-867.747Zm-4.985-4.874c.755,1.247,3.735,3.533,5.017,4.448.041-.016.083-.032.123-.049l.062-.026c.176-.08.354-.165.532-.254l.148-.074.056-.029c.068-.034.138-.071.208-.109s.143-.076.215-.115l.078-.042.22-.124c.1-.056.2-.114.295-.173l.219-.133h0c1.554-.973,1.515-1.385,1.492-1.458a.2.2,0,0,0-.058-.085.522.522,0,0,0-.1-.075,2.941,2.941,0,0,0-.386-.173c-.109-.041-.236-.083-.376-.127a.611.611,0,0,1-.063-.019c-.124-.037-.269-.078-.455-.127-.047-.011-.1-.024-.144-.037l-.22-.053-.078-.019-.143-.034-.009,0-.158-.036-.173-.038-.154-.033-.252-.053-.078-.016-.092-.018C175.985-872.13,173.413-872.485,172.378-872.621Z" fill="#19191a"/>
                </g>
                <g id="Group_378" data-name="Group 378">
                  <path id="Path_3258" data-name="Path 3258" d="M177.363-867.949c-1.481.5-4.609.678-6.4,1.435-1.233.52-5.276,2.493-8.9,4.155.429-1.827,3.963-6.076,5.581-8.219,1.608-2.126,1.7-4.544-.2-5.485h0l-.043-.021c.6-.033,1.078-.048,1.4-.035,1.927.073,2.774,1.773,3.237,3.251S177.363-867.949,177.363-867.949Z" fill="#fff"/>
                  <path id="Path_3259" data-name="Path 3259" d="M162.065-862.157a.2.2,0,0,1-.127-.045.2.2,0,0,1-.069-.2c.36-1.533,2.786-4.648,4.558-6.923.391-.5.761-.977,1.059-1.371a4.668,4.668,0,0,0,1.1-3.662,2.237,2.237,0,0,0-1.222-1.517l-.015-.007-.03-.014a.2.2,0,0,1-.117-.221.2.2,0,0,1,.187-.165c.665-.036,1.116-.048,1.422-.036,1.607.062,2.726,1.171,3.421,3.393.363,1.159,3.911,3.869,5.248,4.815a.2.2,0,0,1,.083.194.2.2,0,0,1-.136.162,19.065,19.065,0,0,1-2.584.539,18.71,18.71,0,0,0-3.8.89c-.643.272-2.1.963-3.791,1.763-1.584.75-3.379,1.6-5.1,2.39A.205.205,0,0,1,162.065-862.157Zm5.993-13.755a2.586,2.586,0,0,1,.921,1.459,5,5,0,0,1-1.172,4c-.3.4-.67.872-1.062,1.376-1.594,2.046-3.725,4.782-4.347,6.346,1.589-.733,3.222-1.507,4.677-2.2,1.763-.835,3.156-1.494,3.807-1.769a18.955,18.955,0,0,1,3.894-.917c.793-.132,1.55-.258,2.135-.41-1.124-.819-4.654-3.474-5.063-4.782-.647-2.067-1.617-3.055-3.052-3.11C168.612-875.925,168.372-875.923,168.058-875.912Z" fill="#19191a"/>
                </g>
                <g id="Group_379" data-name="Group 379">
                  <path id="Path_3260" data-name="Path 3260" d="M182.366-864.076c-2.312-.738.386-2.882.462-5.024s1.619-4.507-10.788-3.768c.6.076,3.667.477,6.1.966l.173.035.254.053c.083.018.166.035.247.054.028.005.054.012.081.018l.159.036.156.036.077.019c.076.017.15.036.224.054l.143.038c.165.042.321.086.465.129l.062.019c.141.043.27.087.387.131a2.938,2.938,0,0,1,.414.185.666.666,0,0,1,.143.1.393.393,0,0,1,.112.171c.147.452-.648,1.11-1.576,1.691q-.111.069-.222.135c-.1.06-.2.118-.3.175l-.223.126-.075.04c-.074.04-.146.08-.219.118s-.143.076-.213.111l-.205.1c-.2.1-.382.186-.537.257l-.07.029c-.048.021-.1.04-.151.059l-.081.028c-1.481.5-4.609.678-6.4,1.435-1.233.52-5.276,2.493-8.9,4.155-2.035.936-3.937,1.774-5.129,2.2-.1.034-.188.069-.279.106l-.13.055c-.092.04-.181.083-.269.126l-.024.011c-.067.032-.132.066-.2.1l-.115.064c-.03.017-.06.034-.089.052-.094.055-.186.112-.274.172-.031.019-.062.039-.092.06-.1.069-.2.139-.29.211l-.1.075-.073.06c-.164.134-.317.273-.46.415-.018.018-.036.035-.053.053l-.054.055c-.1.1-.19.2-.278.3-.024.027-.047.056-.07.083l-.068.084c-.023.027-.045.056-.067.084-.109.139-.209.278-.3.414l-.054.082-.052.081c-.1.162-.2.32-.275.471l-.039.075c-.013.024-.025.049-.037.073-.073.146-.136.285-.188.411-.009.021-.018.042-.026.063-.039.1-.072.192-.1.275l-.016.051,0,.014c-.01.029-.018.058-.025.086a1.432,1.432,0,0,0-.047.239,10.405,10.405,0,0,1-1.1,2.442c7.982,0,15.48-3.84,19.343-4.88,3.039-.819,13.67-.491,13.629-1.12C184.622-859.9,184.5-863.393,182.366-864.076ZM161.533-857.9a1.506,1.506,0,0,1-1.476-1.534,1.506,1.506,0,0,1,1.476-1.533,1.506,1.506,0,0,1,1.476,1.533A1.506,1.506,0,0,1,161.533-857.9Z" fill="#fff"/>
                  <path id="Path_3261" data-name="Path 3261" d="M151.7-853.009a.2.2,0,0,1-.175-.1.2.2,0,0,1,0-.2,9.711,9.711,0,0,0,1.072-2.354,1.538,1.538,0,0,1,.053-.277c.008-.029.016-.059.026-.09l.007-.023.016-.05c.027-.085.062-.182.1-.285q.012-.031.027-.066c.055-.135.12-.278.194-.424l.007-.015.032-.063c.015-.028.027-.053.041-.077.085-.161.18-.324.281-.482l.053-.083.021-.033.035-.052c.1-.147.2-.291.31-.426.024-.031.046-.06.069-.087l.069-.084c.023-.029.048-.059.074-.088.089-.1.185-.209.285-.312l.056-.058.035-.035.017-.017c.156-.154.316-.3.476-.429.024-.02.05-.042.077-.063s.064-.051.1-.077c.094-.072.194-.145.3-.216.03-.022.063-.043.1-.065.086-.057.182-.117.281-.175.027-.017.059-.035.091-.053l.071-.04.045-.025c.07-.038.138-.073.208-.106l.016-.008c.1-.051.2-.094.283-.133l.136-.057c.1-.04.193-.076.286-.109,1.04-.371,2.712-1.087,5.113-2.192,1.718-.788,3.511-1.638,5.094-2.388,1.763-.835,3.156-1.494,3.807-1.769a18.955,18.955,0,0,1,3.894-.917,18.62,18.62,0,0,0,2.523-.524l.079-.027c.047-.017.094-.036.14-.055l.062-.026c.176-.08.354-.165.532-.254l.148-.074.056-.029c.068-.034.138-.071.209-.109l.214-.115.078-.042.22-.124c.1-.056.2-.114.295-.173l.219-.133c1.554-.973,1.515-1.385,1.492-1.458a.2.2,0,0,0-.058-.085.527.527,0,0,0-.1-.076,2.731,2.731,0,0,0-.385-.172c-.11-.041-.237-.083-.377-.127a.611.611,0,0,1-.063-.019c-.141-.042-.295-.085-.454-.126l-.145-.038c-.07-.017-.143-.036-.218-.053l-.08-.019-.143-.034-.009,0-.158-.036-.078-.017-.237-.052-.012,0-.252-.053-.078-.016-.092-.018c-2.443-.492-5.5-.889-6.084-.964a.2.2,0,0,1-.176-.207.2.2,0,0,1,.189-.194c6.2-.369,9.462-.014,10.582,1.152a2.544,2.544,0,0,1,.468,2.22c-.02.2-.041.406-.048.6a6.24,6.24,0,0,1-.82,2.437c-.364.732-.709,1.423-.524,1.859a1.091,1.091,0,0,0,.742.529h0c1.445.463,2.265,2.128,2.434,4.948l.006.1a.264.264,0,0,1-.071.2c-.271.3-1.719.374-5.481.5a51.109,51.109,0,0,0-8.226.635c-1.019.274-2.3.747-3.778,1.294C163.209-855.086,157.589-853.009,151.7-853.009Zm1.366-2.92,0,.013c-.009.026-.016.051-.022.075a1.258,1.258,0,0,0-.041.2,8.077,8.077,0,0,1-.952,2.223c5.7-.079,11.136-2.089,15.129-3.565,1.49-.551,2.777-1.026,3.814-1.3a51.074,51.074,0,0,1,8.317-.649,34.92,34.92,0,0,0,5.158-.346v-.016c-.159-2.637-.884-4.181-2.155-4.588a1.46,1.46,0,0,1-.991-.756c-.256-.607.111-1.343.535-2.2a5.957,5.957,0,0,0,.778-2.272c.008-.211.029-.425.05-.631a2.207,2.207,0,0,0-.358-1.9c-.886-.922-3.477-1.289-8.094-1.132,1.184.174,2.653.409,3.952.67l.094.019.078.016.256.054.012,0,.239.052.044.01.034.007.163.037.008,0,.149.035.074.018c.079.018.154.037.229.056l.144.037c.165.043.324.087.474.132l.057.018c.152.047.286.092.4.136a3,3,0,0,1,.443.2.872.872,0,0,1,.183.133.6.6,0,0,1,.164.254c.161.494-.383,1.124-1.662,1.923q-.111.07-.225.138c-.1.06-.2.119-.3.177l-.226.127-.077.042c-.076.041-.148.081-.221.118s-.143.076-.214.112l-.057.029-.15.076c-.182.091-.365.179-.544.259l-.073.032c-.053.022-.106.042-.162.063l-.083.029a19.052,19.052,0,0,1-2.587.54,18.71,18.71,0,0,0-3.8.89c-.643.272-2.1.963-3.791,1.763-1.584.75-3.379,1.6-5.1,2.39-2.411,1.109-4.094,1.83-5.146,2.205-.087.031-.175.065-.27.1-.043.017-.085.035-.126.053-.082.036-.167.076-.26.122l-.017.008-.008,0c-.065.031-.127.063-.189.1l-.043.025-.068.037c-.028.017-.056.032-.083.049-.1.056-.185.111-.268.167-.033.021-.061.039-.088.058-.1.068-.193.137-.283.206l-.092.071-.072.059c-.151.124-.3.259-.447.4l-.02.019-.029.029-.049.051c-.1.1-.19.2-.276.3l-.067.08-.069.084-.059.075q-.156.2-.3.408l-.053.08-.05.078c-.1.149-.185.3-.266.457-.014.024-.025.046-.036.067l0,.009-.027.052-.008.016c-.069.137-.13.271-.181.4-.01.022-.018.041-.025.059-.038.1-.07.185-.1.264l-.015.047Zm0-.01v0Zm0,0h0Zm31.4-3.259h0Zm-22.933,1.5a1.709,1.709,0,0,1-1.678-1.735,1.709,1.709,0,0,1,1.678-1.734,1.709,1.709,0,0,1,1.678,1.734A1.709,1.709,0,0,1,161.533-857.7Zm0-3.066a1.3,1.3,0,0,0-1.274,1.331,1.3,1.3,0,0,0,1.274,1.332,1.306,1.306,0,0,0,1.275-1.332A1.305,1.305,0,0,0,161.533-860.762Z" fill="#19191a"/>
                </g>
              </g>
            </g>
            <g id="Group_382" data-name="Group 382">
              <ellipse id="Ellipse_5" data-name="Ellipse 5" cx="1.476" cy="1.533" rx="1.476" ry="1.533" transform="translate(140.38 -860.964)" fill="#fff"/>
              <path id="Path_3262" data-name="Path 3262" d="M141.856-857.7a1.709,1.709,0,0,1-1.678-1.735,1.709,1.709,0,0,1,1.678-1.734,1.709,1.709,0,0,1,1.678,1.734A1.709,1.709,0,0,1,141.856-857.7Zm0-3.066a1.305,1.305,0,0,0-1.275,1.331,1.306,1.306,0,0,0,1.275,1.332,1.306,1.306,0,0,0,1.275-1.332A1.305,1.305,0,0,0,141.856-860.762Z" fill="#19191a"/>
            </g>
            <g id="Group_383" data-name="Group 383">
              <ellipse id="Ellipse_6" data-name="Ellipse 6" cx="1.476" cy="1.533" rx="1.476" ry="1.533" transform="translate(160.057 -860.964)" fill="#fff"/>
              <path id="Path_3263" data-name="Path 3263" d="M161.533-857.7a1.709,1.709,0,0,1-1.678-1.735,1.709,1.709,0,0,1,1.678-1.734,1.709,1.709,0,0,1,1.678,1.734A1.709,1.709,0,0,1,161.533-857.7Zm0-3.066a1.3,1.3,0,0,0-1.274,1.331,1.3,1.3,0,0,0,1.274,1.332,1.306,1.306,0,0,0,1.275-1.332A1.305,1.305,0,0,0,161.533-860.762Z" fill="#19191a"/>
            </g>
          </g>
          <g id="Group_391" data-name="Group 391">
            <g id="Group_386" data-name="Group 386">
              <g id="Group_385" data-name="Group 385">
                <path id="Path_3264" data-name="Path 3264" d="M158.125-824.322l1.827-.036c0-14.506.856-30.548,2.311-33.716.147-.322.3-.511.461-.552a1.867,1.867,0,0,0,.179-.812,1.391,1.391,0,0,0-1.18-1.533h-.029c-.406.031-.781.691-1.125,1.855C159.02-853.875,158.125-838.42,158.125-824.322Z" fill="#fff"/>
                <path id="Path_3265" data-name="Path 3265" d="M158.125-824.12a.2.2,0,0,1-.141-.058.2.2,0,0,1-.061-.144c0-7.142.228-14.5.642-20.732.448-6.745,1.074-11.628,1.81-14.119.392-1.326.806-1.961,1.3-2h.045a1.591,1.591,0,0,1,1.382,1.735,2.084,2.084,0,0,1-.2.9.2.2,0,0,1-.131.108c-.034.009-.157.066-.329.441-1.489,3.242-2.293,19.748-2.293,33.632a.2.2,0,0,1-.2.2l-1.827.037Zm3.591-36.65h-.008c-.135.011-.5.2-.946,1.711-1.591,5.385-2.427,21.4-2.436,34.532l1.424-.029c.008-13.885.824-30.324,2.329-33.6a1.24,1.24,0,0,1,.5-.626,1.687,1.687,0,0,0,.128-.654c0-.734-.439-1.332-.979-1.332Z" fill="#19191a"/>
              </g>
            </g>
            <g id="Group_390" data-name="Group 390">
              <g id="Group_387" data-name="Group 387">
                <path id="Path_3266" data-name="Path 3266" d="M145.264-824.322l-1.827-.036c0-14.506-.855-30.548-2.31-33.716-.148-.322-.3-.511-.462-.552a1.867,1.867,0,0,1-.179-.812,1.391,1.391,0,0,1,1.18-1.533h.029c.406.031.781.691,1.125,1.855C144.369-853.875,145.264-838.42,145.264-824.322Z" fill="#fff"/>
                <path id="Path_3267" data-name="Path 3267" d="M145.264-824.12h0l-1.827-.037a.2.2,0,0,1-.2-.2c0-13.884-.8-30.39-2.293-33.632-.172-.375-.295-.432-.329-.441a.2.2,0,0,1-.13-.108,2.07,2.07,0,0,1-.2-.9,1.591,1.591,0,0,1,1.382-1.735h.044c.5.038.912.673,1.3,2,.736,2.491,1.362,7.374,1.81,14.119.414,6.228.642,13.591.642,20.732a.2.2,0,0,1-.061.144A.2.2,0,0,1,145.264-824.12Zm-1.625-.436,1.424.029c-.009-13.127-.845-29.147-2.436-34.532-.447-1.513-.811-1.7-.947-1.711h-.014c-.54,0-.979.6-.979,1.332a1.691,1.691,0,0,0,.128.654,1.234,1.234,0,0,1,.495.626C142.815-854.88,143.631-838.441,143.639-824.556Z" fill="#19191a"/>
              </g>
              <g id="Group_388" data-name="Group 388">
                <rect id="Rectangle_69" data-name="Rectangle 69" width="1.476" height="6.79" transform="translate(159.776 -817.532) rotate(-180)" fill="#fff"/>
                <path id="Path_3268" data-name="Path 3268" d="M159.776-817.33H158.3a.2.2,0,0,1-.2-.2v-6.79a.2.2,0,0,1,.2-.2h1.476a.2.2,0,0,1,.2.2v6.79A.2.2,0,0,1,159.776-817.33Zm-1.274-.4h1.073v-6.387H158.5Z" fill="#19191a"/>
              </g>
              <g id="Group_389" data-name="Group 389">
                <rect id="Rectangle_70" data-name="Rectangle 70" width="1.476" height="6.79" transform="translate(143.613 -824.322)" fill="#fff"/>
                <path id="Path_3269" data-name="Path 3269" d="M145.089-817.33h-1.476a.2.2,0,0,1-.2-.2v-6.79a.2.2,0,0,1,.2-.2h1.476a.2.2,0,0,1,.2.2v6.79A.2.2,0,0,1,145.089-817.33Zm-1.275-.4h1.073v-6.387h-1.073Z" fill="#19191a"/>
              </g>
            </g>
          </g>
        </g>
      </g>
      <path id="Path_3270" data-name="Path 3270" d="M124.957-762.752H177.57a34.476,34.476,0,0,0,.681,10.938c.7,3.1,1.618,6.933,4.688,10.635a20.28,20.28,0,0,0,3.921,3.622L182.333-722.3c-10.42.4-21.267.594-32.512.523q-15.143-.1-29.283-.777L115.6-737.339a25.337,25.337,0,0,0,6.149-7.356,26.847,26.847,0,0,0,2.959-9.121A32.978,32.978,0,0,0,124.957-762.752Z" fill="#356671" style="mix-blend-mode: multiply;isolation: isolate"/>
    </g>
  </g>
</svg>
