<svg xmlns="http://www.w3.org/2000/svg" xmlns:xlink="http://www.w3.org/1999/xlink" width="104.084" height="104.084" viewBox="0 0 104.084 104.084">
  <defs>
    <clipPath id="clip-path">
      <circle id="SVGID" cx="52.042" cy="52.042" r="52.042" transform="translate(264.651 -791.262)" fill="none"/>
    </clipPath>
  </defs>
  <g id="Group_525" data-name="Group 525" transform="translate(-264.651 791.262)">
    <g id="Group_524" data-name="Group 524" clip-path="url(#clip-path)">
      <g id="Group_523" data-name="Group 523">
        <g id="Group_397" data-name="Group 397">
          <line id="Line_91" data-name="Line 91" x1="0.025" y2="0.013" transform="translate(194.812 -740.495)" fill="#fff"/>
          <g id="Group_396" data-name="Group 396">
            <path id="Path_3271" data-name="Path 3271" d="M194.3-740.691l-.026.013c-.04.021.259.159.326.128l.023-.011C194.663-740.579,194.369-740.725,194.3-740.691Z" fill="#231815" opacity="0.118"/>
            <path id="Path_3272" data-name="Path 3272" d="M194.332-740.361l-.025.014c-.02.01.39.219.486.173l.021-.01C194.832-740.193,194.427-740.412,194.332-740.361Z" fill="#231815" opacity="0.118"/>
            <path id="Path_3273" data-name="Path 3273" d="M194.216-740.806l-.025.014c-.038.02.28.169.349.134l.022-.011C194.6-740.687,194.285-740.843,194.216-740.806Z" fill="#231815" opacity="0.118"/>
            <path id="Path_3274" data-name="Path 3274" d="M194.191-740.626l-.025.013c-.022.012.38.217.473.171l.021-.01C194.681-740.463,194.283-740.676,194.191-740.626Z" fill="#231815" opacity="0.118"/>
            <path id="Path_3275" data-name="Path 3275" d="M194.283-740.812l-.026.013c-.043.021.232.145.293.118l.024-.011C194.614-740.709,194.346-740.843,194.283-740.812Z" fill="#231815" opacity="0.118"/>
            <path id="Path_3276" data-name="Path 3276" d="M194.178-740.9l-.025.013c-.038.02.277.168.346.133l.022-.01C194.558-740.786,194.247-740.94,194.178-740.9Z" fill="#231815" opacity="0.118"/>
            <path id="Path_3277" data-name="Path 3277" d="M194.272-740.463l-.025.013c-.019.01.4.223.494.176l.021-.01C194.778-740.292,194.369-740.516,194.272-740.463Z" fill="#231815" opacity="0.118"/>
            <path id="Path_3278" data-name="Path 3278" d="M194.144-740.981l-.025.013c-.039.021.271.165.339.132l.022-.011C194.518-740.866,194.212-741.017,194.144-740.981Z" fill="#231815" opacity="0.118"/>
            <path id="Path_3279" data-name="Path 3279" d="M194.144-740.837l-.025.014a.689.689,0,0,0,.406.15l.021-.01C194.576-740.7,194.223-740.88,194.144-740.837Z" fill="#231815" opacity="0.118"/>
            <path id="Path_3280" data-name="Path 3280" d="M194.266-740.609l-.025.013c-.03.017.328.192.407.151l.022-.01C194.7-740.47,194.346-740.652,194.266-740.609Z" fill="#231815" opacity="0.118"/>
            <path id="Path_3281" data-name="Path 3281" d="M194.215-741.022l-.024.014c-.049.029.208.137.258.108l.021-.012C194.519-740.941,194.265-741.052,194.215-741.022Z" fill="#231815" opacity="0.118"/>
          </g>
        </g>
        <g id="Group_399" data-name="Group 399">
          <path id="Path_3282" data-name="Path 3282" d="M255.514-774.909" fill="#fff"/>
          <g id="Group_398" data-name="Group 398">
            <path id="Path_3283" data-name="Path 3283" d="M256.044-774.435c.027,0-.226-.368-.326-.368C255.691-774.8,255.944-774.435,256.044-774.435Z" fill="#231815" opacity="0.118"/>
            <path id="Path_3284" data-name="Path 3284" d="M256.043-774.106s-.325-.371-.326-.372c-.056-.056-.263-.327-.371-.327,0,0,.324.371.326.372C255.728-774.376,255.934-774.106,256.043-774.106Z" fill="#231815" opacity="0.118"/>
            <path id="Path_3285" data-name="Path 3285" d="M255.992-774.523c.051,0-.129-.235-.194-.235S255.927-774.523,255.992-774.523Z" fill="#231815" opacity="0.118"/>
            <path id="Path_3286" data-name="Path 3286" d="M255.9-774.386c.028,0-.223-.365-.323-.365C255.55-774.751,255.8-774.386,255.9-774.386Z" fill="#231815" opacity="0.118"/>
            <path id="Path_3287" data-name="Path 3287" d="M256.063-774.531c.046,0-.152-.266-.225-.266C255.792-774.8,255.99-774.531,256.063-774.531Z" fill="#231815" opacity="0.118"/>
            <path id="Path_3288" data-name="Path 3288" d="M255.991-774.591c.059,0-.072-.162-.12-.162S255.943-774.591,255.991-774.591Z" fill="#231815" opacity="0.118"/>
            <path id="Path_3289" data-name="Path 3289" d="M255.974-774.228c.008,0-.262-.307-.259-.3-.052-.052-.209-.259-.3-.259-.008,0,.261.307.259.3C255.721-774.436,255.878-774.228,255.974-774.228Z" fill="#231815" opacity="0.118"/>
            <path id="Path_3290" data-name="Path 3290" d="M255.994-774.623c.078,0,0-.107-.035-.107C255.882-774.73,255.955-774.623,255.994-774.623Z" fill="#231815" opacity="0.118"/>
            <path id="Path_3291" data-name="Path 3291" d="M255.929-774.545c.057,0-.094-.189-.147-.189S255.875-774.545,255.929-774.545Z" fill="#231815" opacity="0.118"/>
            <path id="Path_3292" data-name="Path 3292" d="M256-774.368c-.088,0-.255-.418-.417-.418C255.668-774.786,255.835-774.368,256-774.368Z" fill="#231815" opacity="0.118"/>
            <path id="Path_3293" data-name="Path 3293" d="M256.075-774.661c.079,0,0-.108-.036-.108C255.96-774.769,256.036-774.661,256.075-774.661Z" fill="#231815" opacity="0.118"/>
          </g>
        </g>
        <g id="Group_520" data-name="Group 520">
          <g id="Group_495" data-name="Group 495">
            <g id="Group_400" data-name="Group 400">
              <path id="Path_3294" data-name="Path 3294" d="M369.7-709.749s-23.385,1.633-53,1.633-53-1.633-53-1.633c-1.817-12.146-.511-76.048-.511-76.048,10.361-19.952,5.593-44.216,5.593-44.216,3.691-1.691,24.946-9.67,24.946-9.67l5.71-3c3.566,2.362,17.264,2.427,17.264,2.427s13.7-.065,17.265-2.427l5.709,3s21.255,7.979,24.947,9.67c0,0-4.77,24.264,5.592,44.216C370.206-785.8,371.512-721.9,369.7-709.749Z" fill="#fff"/>
              <path id="Path_3295" data-name="Path 3295" d="M316.693-707.927c-29.284,0-52.782-1.617-53.016-1.634a.187.187,0,0,1-.173-.16c-1.8-12.023-.525-75.441-.512-76.08a.2.2,0,0,1,.021-.083c5.334-10.271,6.566-21.709,6.661-29.5a79.492,79.492,0,0,0-1.086-14.6.189.189,0,0,1,.106-.208c3.622-1.658,24.361-9.45,24.947-9.67l5.7-3a.191.191,0,0,1,.192.009c3.479,2.3,17.024,2.4,17.161,2.4s13.681-.092,17.16-2.4a.191.191,0,0,1,.192-.009l5.7,3c.586.22,21.327,8.012,24.948,9.67a.191.191,0,0,1,.107.208,79.378,79.378,0,0,0-1.086,14.6c.094,7.787,1.326,19.225,6.66,29.5a.186.186,0,0,1,.021.083c.013.639,1.286,64.057-.513,76.08a.187.187,0,0,1-.173.16C369.474-709.544,345.977-707.927,316.693-707.927Zm-52.838-2c2.065.139,24.8,1.622,52.838,1.622s50.772-1.483,52.838-1.622c1.742-12.223.527-73.843.488-75.824a57.781,57.781,0,0,1-5.243-15.337,78.4,78.4,0,0,1-1.44-14.3A81.433,81.433,0,0,1,364.4-829.9c-3.995-1.79-24.59-9.524-24.8-9.6l-.022-.01-5.612-2.951c-3.7,2.307-16.716,2.4-17.273,2.4s-13.57-.092-17.275-2.4l-5.613,2.951-.021.01c-.21.079-20.8,7.813-24.8,9.6a81.218,81.218,0,0,1,1.065,14.518,78.4,78.4,0,0,1-1.44,14.3,57.815,57.815,0,0,1-5.242,15.337C263.328-783.769,262.113-722.149,263.855-709.926Zm105.84.177h0Z" fill="#19191a"/>
            </g>
            <g id="Group_401" data-name="Group 401">
              <path id="Path_3296" data-name="Path 3296" d="M369.7-709.749v10.469s-22.236,1.832-53,1.832-53-1.832-53-1.832v-10.469s23.386,1.634,53,1.634S369.7-709.749,369.7-709.749Z" fill="#fff"/>
              <path id="Path_3297" data-name="Path 3297" d="M316.693-697.26c-30.421,0-52.795-1.814-53.018-1.833a.188.188,0,0,1-.173-.187v-10.469a.191.191,0,0,1,.06-.138.194.194,0,0,1,.142-.05c.234.017,23.719,1.633,52.989,1.633s52.756-1.616,52.989-1.633a.194.194,0,0,1,.142.05.191.191,0,0,1,.06.138v10.469a.188.188,0,0,1-.173.187C369.488-699.074,347.115-697.26,316.693-697.26Zm-52.814-2.194c2.144.169,23.821,1.818,52.814,1.818s50.67-1.649,52.814-1.818v-10.093c-2.358.158-24.97,1.62-52.814,1.62s-50.455-1.462-52.814-1.62Z" fill="#19191a"/>
            </g>
            <g id="Group_402" data-name="Group 402">
              <path id="Path_3298" data-name="Path 3298" d="M263.18-785.8,197.415-735.93c-2.171-4.322-12.67-14.15-12.67-14.15l84.028-79.933S273.542-805.749,263.18-785.8Z" fill="#fff"/>
              <path id="Path_3299" data-name="Path 3299" d="M197.415-735.742a.211.211,0,0,1-.043-.005.19.19,0,0,1-.126-.1c-2.131-4.242-12.525-14-12.63-14.1a.184.184,0,0,1-.059-.136.189.189,0,0,1,.058-.138l84.028-79.933a.189.189,0,0,1,.187-.043.188.188,0,0,1,.128.143,79.825,79.825,0,0,1,1.093,14.665,78.406,78.406,0,0,1-1.441,14.3,57.78,57.78,0,0,1-5.262,15.376.185.185,0,0,1-.054.064L197.529-735.78A.188.188,0,0,1,197.415-735.742Zm-12.4-14.339c1.305,1.229,10.223,9.71,12.46,13.866l65.554-49.707c5.317-10.261,6.547-21.681,6.641-29.458a81.762,81.762,0,0,0-1.024-14.256ZM263.18-785.8h0Z" fill="#19191a"/>
            </g>
            <g id="Group_403" data-name="Group 403">
              <path id="Path_3300" data-name="Path 3300" d="M197.415-735.93l-7.913,6.446a70.916,70.916,0,0,1-6.834-6.6,71.043,71.043,0,0,1-5.442-6.8l7.519-7.2S195.244-740.252,197.415-735.93Z" fill="#fff"/>
              <path id="Path_3301" data-name="Path 3301" d="M189.5-729.3a.194.194,0,0,1-.122-.044,71.443,71.443,0,0,1-6.852-6.616,71.552,71.552,0,0,1-5.456-6.819.188.188,0,0,1,.024-.245l7.519-7.2a.189.189,0,0,1,.259,0c.429.4,10.548,9.9,12.709,14.2a.189.189,0,0,1-.049.231l-7.913,6.446A.19.19,0,0,1,189.5-729.3ZM177.473-742.86a71.23,71.23,0,0,0,5.334,6.651,71.12,71.12,0,0,0,6.7,6.48l7.673-6.251c-2.136-4.044-11.232-12.708-12.431-13.84Z" fill="#19191a"/>
            </g>
            <g id="Group_404" data-name="Group 404">
              <line id="Line_92" data-name="Line 92" y1="10.488" transform="translate(265.437 -709.636)" fill="#fff"/>
              <path id="Path_3302" data-name="Path 3302" d="M265.437-698.96a.189.189,0,0,1-.189-.188v-10.488a.189.189,0,0,1,.189-.188.188.188,0,0,1,.188.188v10.488A.188.188,0,0,1,265.437-698.96Z" fill="#19191a"/>
            </g>
            <g id="Group_405" data-name="Group 405">
              <line id="Line_93" data-name="Line 93" y1="10.503" transform="translate(266.99 -709.542)" fill="#fff"/>
              <path id="Path_3303" data-name="Path 3303" d="M266.99-698.85a.188.188,0,0,1-.188-.188v-10.5a.188.188,0,0,1,.188-.188.189.189,0,0,1,.189.188v10.5A.189.189,0,0,1,266.99-698.85Z" fill="#19191a"/>
            </g>
            <g id="Group_406" data-name="Group 406">
              <line id="Line_94" data-name="Line 94" y1="10.516" transform="translate(268.543 -709.452)" fill="#fff"/>
              <path id="Path_3304" data-name="Path 3304" d="M268.543-698.747a.188.188,0,0,1-.188-.188v-10.517a.188.188,0,0,1,.188-.188.189.189,0,0,1,.189.188v10.517A.189.189,0,0,1,268.543-698.747Z" fill="#19191a"/>
            </g>
            <g id="Group_407" data-name="Group 407">
              <line id="Line_95" data-name="Line 95" y1="10.53" transform="translate(270.097 -709.366)" fill="#fff"/>
              <path id="Path_3305" data-name="Path 3305" d="M270.1-698.648a.189.189,0,0,1-.189-.188v-10.53a.189.189,0,0,1,.189-.188.188.188,0,0,1,.188.188v10.53A.188.188,0,0,1,270.1-698.648Z" fill="#19191a"/>
            </g>
            <g id="Group_408" data-name="Group 408">
              <line id="Line_96" data-name="Line 96" y1="10.542" transform="translate(271.65 -709.284)" fill="#fff"/>
              <path id="Path_3306" data-name="Path 3306" d="M271.65-698.554a.189.189,0,0,1-.189-.188v-10.542a.189.189,0,0,1,.189-.188.188.188,0,0,1,.188.188v10.542A.188.188,0,0,1,271.65-698.554Z" fill="#19191a"/>
            </g>
            <g id="Group_409" data-name="Group 409">
              <line id="Line_97" data-name="Line 97" y1="10.553" transform="translate(273.203 -709.204)" fill="#fff"/>
              <path id="Path_3307" data-name="Path 3307" d="M273.2-698.463a.188.188,0,0,1-.188-.188V-709.2a.189.189,0,0,1,.188-.189.19.19,0,0,1,.189.189v10.553A.189.189,0,0,1,273.2-698.463Z" fill="#19191a"/>
            </g>
            <g id="Group_410" data-name="Group 410">
              <line id="Line_98" data-name="Line 98" y1="10.563" transform="translate(274.756 -709.128)" fill="#fff"/>
              <path id="Path_3308" data-name="Path 3308" d="M274.756-698.377a.189.189,0,0,1-.188-.189v-10.562a.188.188,0,0,1,.188-.189.189.189,0,0,1,.189.189v10.562A.189.189,0,0,1,274.756-698.377Z" fill="#19191a"/>
            </g>
            <g id="Group_411" data-name="Group 411">
              <line id="Line_99" data-name="Line 99" y1="10.574" transform="translate(276.31 -709.056)" fill="#fff"/>
              <path id="Path_3309" data-name="Path 3309" d="M276.31-698.294a.189.189,0,0,1-.189-.188v-10.574a.189.189,0,0,1,.189-.188.188.188,0,0,1,.188.188v10.574A.188.188,0,0,1,276.31-698.294Z" fill="#19191a"/>
            </g>
            <g id="Group_412" data-name="Group 412">
              <line id="Line_100" data-name="Line 100" y1="10.583" transform="translate(277.863 -708.986)" fill="#fff"/>
              <path id="Path_3310" data-name="Path 3310" d="M277.863-698.215a.189.189,0,0,1-.189-.188v-10.583a.189.189,0,0,1,.189-.188.188.188,0,0,1,.188.188V-698.4A.188.188,0,0,1,277.863-698.215Z" fill="#19191a"/>
            </g>
            <g id="Group_413" data-name="Group 413">
              <line id="Line_101" data-name="Line 101" y1="10.591" transform="translate(279.416 -708.919)" fill="#fff"/>
              <path id="Path_3311" data-name="Path 3311" d="M279.416-698.14a.188.188,0,0,1-.188-.188v-10.591a.188.188,0,0,1,.188-.188.189.189,0,0,1,.189.188v10.591A.189.189,0,0,1,279.416-698.14Z" fill="#19191a"/>
            </g>
            <g id="Group_414" data-name="Group 414">
              <line id="Line_102" data-name="Line 102" y1="10.598" transform="translate(280.969 -708.854)" fill="#fff"/>
              <path id="Path_3312" data-name="Path 3312" d="M280.969-698.068a.188.188,0,0,1-.188-.188v-10.6a.188.188,0,0,1,.188-.188.188.188,0,0,1,.188.188v10.6A.188.188,0,0,1,280.969-698.068Z" fill="#19191a"/>
            </g>
            <g id="Group_415" data-name="Group 415">
              <line id="Line_103" data-name="Line 103" y1="10.605" transform="translate(282.522 -708.792)" fill="#fff"/>
              <path id="Path_3313" data-name="Path 3313" d="M282.522-698a.188.188,0,0,1-.188-.188v-10.606a.188.188,0,0,1,.188-.188.188.188,0,0,1,.188.188v10.606A.188.188,0,0,1,282.522-698Z" fill="#19191a"/>
            </g>
            <g id="Group_416" data-name="Group 416">
              <line id="Line_104" data-name="Line 104" y1="10.612" transform="translate(284.076 -708.733)" fill="#fff"/>
              <path id="Path_3314" data-name="Path 3314" d="M284.076-697.932a.189.189,0,0,1-.189-.189v-10.612a.189.189,0,0,1,.189-.188.188.188,0,0,1,.188.188v10.612A.189.189,0,0,1,284.076-697.932Z" fill="#19191a"/>
            </g>
            <g id="Group_417" data-name="Group 417">
              <line id="Line_105" data-name="Line 105" y1="10.619" transform="translate(285.628 -708.677)" fill="#fff"/>
              <path id="Path_3315" data-name="Path 3315" d="M285.629-697.87a.188.188,0,0,1-.189-.188v-10.619a.189.189,0,0,1,.189-.189.189.189,0,0,1,.188.189v10.619A.188.188,0,0,1,285.629-697.87Z" fill="#19191a"/>
            </g>
            <g id="Group_418" data-name="Group 418">
              <line id="Line_106" data-name="Line 106" y1="10.625" transform="translate(287.182 -708.623)" fill="#fff"/>
              <path id="Path_3316" data-name="Path 3316" d="M287.182-697.81a.188.188,0,0,1-.188-.188v-10.625a.189.189,0,0,1,.188-.189.189.189,0,0,1,.188.189V-698A.188.188,0,0,1,287.182-697.81Z" fill="#19191a"/>
            </g>
            <g id="Group_419" data-name="Group 419">
              <line id="Line_107" data-name="Line 107" y1="10.631" transform="translate(288.735 -708.573)" fill="#fff"/>
              <path id="Path_3317" data-name="Path 3317" d="M288.735-697.754a.188.188,0,0,1-.188-.188v-10.631a.188.188,0,0,1,.188-.188.188.188,0,0,1,.188.188v10.631A.188.188,0,0,1,288.735-697.754Z" fill="#19191a"/>
            </g>
            <g id="Group_420" data-name="Group 420">
              <line id="Line_108" data-name="Line 108" y1="10.636" transform="translate(290.289 -708.524)" fill="#fff"/>
              <path id="Path_3318" data-name="Path 3318" d="M290.289-697.7a.189.189,0,0,1-.189-.189v-10.635a.19.19,0,0,1,.189-.189.189.189,0,0,1,.188.189v10.635A.189.189,0,0,1,290.289-697.7Z" fill="#19191a"/>
            </g>
            <g id="Group_421" data-name="Group 421">
              <line id="Line_109" data-name="Line 109" y1="10.639" transform="translate(291.841 -708.479)" fill="#fff"/>
              <path id="Path_3319" data-name="Path 3319" d="M291.841-697.651a.188.188,0,0,1-.188-.188v-10.64a.188.188,0,0,1,.188-.188.188.188,0,0,1,.189.188v10.64A.188.188,0,0,1,291.841-697.651Z" fill="#19191a"/>
            </g>
            <g id="Group_422" data-name="Group 422">
              <line id="Line_110" data-name="Line 110" y1="10.643" transform="translate(293.395 -708.435)" fill="#fff"/>
              <path id="Path_3320" data-name="Path 3320" d="M293.395-697.6a.188.188,0,0,1-.188-.188v-10.643a.189.189,0,0,1,.188-.189.189.189,0,0,1,.188.189v10.643A.188.188,0,0,1,293.395-697.6Z" fill="#19191a"/>
            </g>
            <g id="Group_423" data-name="Group 423">
              <line id="Line_111" data-name="Line 111" y1="10.647" transform="translate(294.948 -708.395)" fill="#fff"/>
              <path id="Path_3321" data-name="Path 3321" d="M294.948-697.559a.189.189,0,0,1-.188-.189V-708.4a.188.188,0,0,1,.188-.188.188.188,0,0,1,.188.188v10.647A.189.189,0,0,1,294.948-697.559Z" fill="#19191a"/>
            </g>
            <g id="Group_424" data-name="Group 424">
              <line id="Line_112" data-name="Line 112" y1="10.65" transform="translate(296.502 -708.357)" fill="#fff"/>
              <path id="Path_3322" data-name="Path 3322" d="M296.5-697.518a.19.19,0,0,1-.189-.189v-10.65a.189.189,0,0,1,.189-.188.188.188,0,0,1,.188.188v10.65A.189.189,0,0,1,296.5-697.518Z" fill="#19191a"/>
            </g>
            <g id="Group_425" data-name="Group 425">
              <line id="Line_113" data-name="Line 113" y1="10.653" transform="translate(298.054 -708.322)" fill="#fff"/>
              <path id="Path_3323" data-name="Path 3323" d="M298.054-697.48a.189.189,0,0,1-.188-.189v-10.653a.189.189,0,0,1,.188-.189.189.189,0,0,1,.189.189v10.653A.189.189,0,0,1,298.054-697.48Z" fill="#19191a"/>
            </g>
            <g id="Group_426" data-name="Group 426">
              <line id="Line_114" data-name="Line 114" y1="10.656" transform="translate(299.607 -708.29)" fill="#fff"/>
              <path id="Path_3324" data-name="Path 3324" d="M299.607-697.446a.188.188,0,0,1-.188-.188V-708.29a.188.188,0,0,1,.188-.188.189.189,0,0,1,.189.188v10.656A.189.189,0,0,1,299.607-697.446Z" fill="#19191a"/>
            </g>
            <g id="Group_427" data-name="Group 427">
              <line id="Line_115" data-name="Line 115" y1="10.658" transform="translate(301.161 -708.26)" fill="#fff"/>
              <path id="Path_3325" data-name="Path 3325" d="M301.161-697.413a.188.188,0,0,1-.188-.189V-708.26a.188.188,0,0,1,.188-.188.188.188,0,0,1,.188.188V-697.6A.188.188,0,0,1,301.161-697.413Z" fill="#19191a"/>
            </g>
            <g id="Group_428" data-name="Group 428">
              <line id="Line_116" data-name="Line 116" y1="10.661" transform="translate(302.714 -708.233)" fill="#fff"/>
              <path id="Path_3326" data-name="Path 3326" d="M302.714-697.384a.189.189,0,0,1-.189-.188v-10.661a.19.19,0,0,1,.189-.189.189.189,0,0,1,.188.189v10.661A.188.188,0,0,1,302.714-697.384Z" fill="#19191a"/>
            </g>
            <g id="Group_429" data-name="Group 429">
              <line id="Line_117" data-name="Line 117" y1="10.663" transform="translate(304.267 -708.209)" fill="#fff"/>
              <path id="Path_3327" data-name="Path 3327" d="M304.267-697.358a.189.189,0,0,1-.188-.189v-10.662a.189.189,0,0,1,.188-.189.189.189,0,0,1,.189.189v10.662A.189.189,0,0,1,304.267-697.358Z" fill="#19191a"/>
            </g>
            <g id="Group_430" data-name="Group 430">
              <line id="Line_118" data-name="Line 118" y1="10.663" transform="translate(305.82 -708.188)" fill="#fff"/>
              <path id="Path_3328" data-name="Path 3328" d="M305.82-697.336a.188.188,0,0,1-.188-.188v-10.664a.188.188,0,0,1,.188-.188.189.189,0,0,1,.189.188v10.664A.189.189,0,0,1,305.82-697.336Z" fill="#19191a"/>
            </g>
            <g id="Group_431" data-name="Group 431">
              <line id="Line_119" data-name="Line 119" y1="10.664" transform="translate(307.374 -708.168)" fill="#fff"/>
              <path id="Path_3329" data-name="Path 3329" d="M307.374-697.316a.188.188,0,0,1-.188-.188v-10.664a.189.189,0,0,1,.188-.189.189.189,0,0,1,.188.189V-697.5A.188.188,0,0,1,307.374-697.316Z" fill="#19191a"/>
            </g>
            <g id="Group_432" data-name="Group 432">
              <line id="Line_120" data-name="Line 120" y1="10.666" transform="translate(308.927 -708.152)" fill="#fff"/>
              <path id="Path_3330" data-name="Path 3330" d="M308.927-697.3a.189.189,0,0,1-.189-.188v-10.666a.189.189,0,0,1,.189-.188.188.188,0,0,1,.188.188v10.666A.188.188,0,0,1,308.927-697.3Z" fill="#19191a"/>
            </g>
            <g id="Group_433" data-name="Group 433">
              <line id="Line_121" data-name="Line 121" y1="10.667" transform="translate(310.48 -708.14)" fill="#fff"/>
              <path id="Path_3331" data-name="Path 3331" d="M310.48-697.285a.188.188,0,0,1-.188-.188V-708.14a.188.188,0,0,1,.188-.188.189.189,0,0,1,.189.188v10.667A.189.189,0,0,1,310.48-697.285Z" fill="#19191a"/>
            </g>
            <g id="Group_434" data-name="Group 434">
              <line id="Line_122" data-name="Line 122" y1="10.667" transform="translate(312.033 -708.129)" fill="#fff"/>
              <path id="Path_3332" data-name="Path 3332" d="M312.033-697.274a.188.188,0,0,1-.188-.188v-10.667a.188.188,0,0,1,.188-.188.189.189,0,0,1,.189.188v10.667A.189.189,0,0,1,312.033-697.274Z" fill="#19191a"/>
            </g>
            <g id="Group_435" data-name="Group 435">
              <line id="Line_123" data-name="Line 123" y1="10.667" transform="translate(313.587 -708.122)" fill="#fff"/>
              <path id="Path_3333" data-name="Path 3333" d="M313.587-697.266a.188.188,0,0,1-.188-.189v-10.667a.188.188,0,0,1,.188-.188.188.188,0,0,1,.188.188v10.667A.188.188,0,0,1,313.587-697.266Z" fill="#19191a"/>
            </g>
            <g id="Group_436" data-name="Group 436">
              <line id="Line_124" data-name="Line 124" y1="10.667" transform="translate(315.14 -708.117)" fill="#fff"/>
              <path id="Path_3334" data-name="Path 3334" d="M315.14-697.262a.189.189,0,0,1-.189-.188v-10.667a.19.19,0,0,1,.189-.189.189.189,0,0,1,.188.189v10.667A.188.188,0,0,1,315.14-697.262Z" fill="#19191a"/>
            </g>
            <g id="Group_437" data-name="Group 437">
              <line id="Line_125" data-name="Line 125" y1="10.667" transform="translate(316.693 -708.116)" fill="#fff"/>
              <path id="Path_3335" data-name="Path 3335" d="M316.693-697.26a.188.188,0,0,1-.188-.188v-10.668a.188.188,0,0,1,.188-.188.189.189,0,0,1,.189.188v10.668A.189.189,0,0,1,316.693-697.26Z" fill="#19191a"/>
            </g>
            <g id="Group_438" data-name="Group 438">
              <line id="Line_126" data-name="Line 126" y1="10.667" transform="translate(318.246 -708.117)" fill="#fff"/>
              <path id="Path_3336" data-name="Path 3336" d="M318.246-697.262a.188.188,0,0,1-.188-.188v-10.667a.189.189,0,0,1,.188-.189.19.19,0,0,1,.189.189v10.667A.189.189,0,0,1,318.246-697.262Z" fill="#19191a"/>
            </g>
            <g id="Group_439" data-name="Group 439">
              <line id="Line_127" data-name="Line 127" y1="10.667" transform="translate(319.799 -708.122)" fill="#fff"/>
              <path id="Path_3337" data-name="Path 3337" d="M319.8-697.266a.188.188,0,0,1-.188-.189v-10.667a.188.188,0,0,1,.188-.188.189.189,0,0,1,.189.188v10.667A.189.189,0,0,1,319.8-697.266Z" fill="#19191a"/>
            </g>
            <g id="Group_440" data-name="Group 440">
              <line id="Line_128" data-name="Line 128" y1="10.667" transform="translate(321.353 -708.129)" fill="#fff"/>
              <path id="Path_3338" data-name="Path 3338" d="M321.353-697.274a.189.189,0,0,1-.189-.188v-10.667a.189.189,0,0,1,.189-.188.188.188,0,0,1,.188.188v10.667A.188.188,0,0,1,321.353-697.274Z" fill="#19191a"/>
            </g>
            <g id="Group_441" data-name="Group 441">
              <line id="Line_129" data-name="Line 129" y1="10.667" transform="translate(322.906 -708.14)" fill="#fff"/>
              <path id="Path_3339" data-name="Path 3339" d="M322.906-697.285a.189.189,0,0,1-.189-.188V-708.14a.189.189,0,0,1,.189-.188.188.188,0,0,1,.188.188v10.667A.188.188,0,0,1,322.906-697.285Z" fill="#19191a"/>
            </g>
            <g id="Group_442" data-name="Group 442">
              <line id="Line_130" data-name="Line 130" y1="10.666" transform="translate(324.459 -708.152)" fill="#fff"/>
              <path id="Path_3340" data-name="Path 3340" d="M324.459-697.3a.188.188,0,0,1-.188-.188v-10.666a.188.188,0,0,1,.188-.188.189.189,0,0,1,.189.188v10.666A.189.189,0,0,1,324.459-697.3Z" fill="#19191a"/>
            </g>
            <g id="Group_443" data-name="Group 443">
              <line id="Line_131" data-name="Line 131" y1="10.664" transform="translate(326.012 -708.168)" fill="#fff"/>
              <path id="Path_3341" data-name="Path 3341" d="M326.012-697.316a.188.188,0,0,1-.188-.188v-10.664a.189.189,0,0,1,.188-.189.189.189,0,0,1,.189.189V-697.5A.189.189,0,0,1,326.012-697.316Z" fill="#19191a"/>
            </g>
            <g id="Group_444" data-name="Group 444">
              <line id="Line_132" data-name="Line 132" y1="10.663" transform="translate(327.566 -708.188)" fill="#fff"/>
              <path id="Path_3342" data-name="Path 3342" d="M327.566-697.336a.189.189,0,0,1-.189-.188v-10.664a.189.189,0,0,1,.189-.188.188.188,0,0,1,.188.188v10.664A.188.188,0,0,1,327.566-697.336Z" fill="#19191a"/>
            </g>
            <g id="Group_445" data-name="Group 445">
              <line id="Line_133" data-name="Line 133" y1="10.662" transform="translate(329.119 -708.208)" fill="#fff"/>
              <path id="Path_3343" data-name="Path 3343" d="M329.119-697.358a.19.19,0,0,1-.189-.189v-10.662a.189.189,0,0,1,.189-.188.188.188,0,0,1,.188.188v10.662A.189.189,0,0,1,329.119-697.358Z" fill="#19191a"/>
            </g>
            <g id="Group_446" data-name="Group 446">
              <line id="Line_134" data-name="Line 134" y1="10.661" transform="translate(330.672 -708.233)" fill="#fff"/>
              <path id="Path_3344" data-name="Path 3344" d="M330.672-697.384a.188.188,0,0,1-.188-.188v-10.661a.189.189,0,0,1,.188-.189.19.19,0,0,1,.189.189v10.661A.189.189,0,0,1,330.672-697.384Z" fill="#19191a"/>
            </g>
            <g id="Group_447" data-name="Group 447">
              <line id="Line_135" data-name="Line 135" y1="10.658" transform="translate(332.225 -708.26)" fill="#fff"/>
              <path id="Path_3345" data-name="Path 3345" d="M332.225-697.413a.188.188,0,0,1-.188-.189V-708.26a.188.188,0,0,1,.188-.188.189.189,0,0,1,.189.188V-697.6A.189.189,0,0,1,332.225-697.413Z" fill="#19191a"/>
            </g>
            <g id="Group_448" data-name="Group 448">
              <line id="Line_136" data-name="Line 136" y1="10.656" transform="translate(333.779 -708.29)" fill="#fff"/>
              <path id="Path_3346" data-name="Path 3346" d="M333.779-697.446a.189.189,0,0,1-.189-.188V-708.29a.189.189,0,0,1,.189-.188.188.188,0,0,1,.188.188v10.656A.188.188,0,0,1,333.779-697.446Z" fill="#19191a"/>
            </g>
            <g id="Group_449" data-name="Group 449">
              <line id="Line_137" data-name="Line 137" y1="10.653" transform="translate(335.332 -708.322)" fill="#fff"/>
              <path id="Path_3347" data-name="Path 3347" d="M335.332-697.48a.19.19,0,0,1-.189-.189v-10.653a.189.189,0,0,1,.189-.189.189.189,0,0,1,.188.189v10.653A.189.189,0,0,1,335.332-697.48Z" fill="#19191a"/>
            </g>
            <g id="Group_450" data-name="Group 450">
              <line id="Line_138" data-name="Line 138" y1="10.65" transform="translate(336.885 -708.357)" fill="#fff"/>
              <path id="Path_3348" data-name="Path 3348" d="M336.885-697.518a.189.189,0,0,1-.188-.189v-10.65a.188.188,0,0,1,.188-.188.189.189,0,0,1,.189.188v10.65A.189.189,0,0,1,336.885-697.518Z" fill="#19191a"/>
            </g>
            <g id="Group_451" data-name="Group 451">
              <line id="Line_139" data-name="Line 139" y1="10.647" transform="translate(338.438 -708.395)" fill="#fff"/>
              <path id="Path_3349" data-name="Path 3349" d="M338.438-697.559a.189.189,0,0,1-.188-.189V-708.4a.188.188,0,0,1,.188-.188.189.189,0,0,1,.189.188v10.647A.189.189,0,0,1,338.438-697.559Z" fill="#19191a"/>
            </g>
            <g id="Group_452" data-name="Group 452">
              <line id="Line_140" data-name="Line 140" y1="10.643" transform="translate(339.991 -708.435)" fill="#fff"/>
              <path id="Path_3350" data-name="Path 3350" d="M339.991-697.6a.188.188,0,0,1-.188-.188v-10.643a.189.189,0,0,1,.188-.189.189.189,0,0,1,.188.189v10.643A.188.188,0,0,1,339.991-697.6Z" fill="#19191a"/>
            </g>
            <g id="Group_453" data-name="Group 453">
              <line id="Line_141" data-name="Line 141" y1="10.639" transform="translate(341.545 -708.479)" fill="#fff"/>
              <path id="Path_3351" data-name="Path 3351" d="M341.545-697.651a.189.189,0,0,1-.189-.188v-10.64a.189.189,0,0,1,.189-.188.188.188,0,0,1,.188.188v10.64A.188.188,0,0,1,341.545-697.651Z" fill="#19191a"/>
            </g>
            <g id="Group_454" data-name="Group 454">
              <line id="Line_142" data-name="Line 142" y1="10.636" transform="translate(343.098 -708.524)" fill="#fff"/>
              <path id="Path_3352" data-name="Path 3352" d="M343.1-697.7a.189.189,0,0,1-.189-.189v-10.635a.189.189,0,0,1,.189-.189.189.189,0,0,1,.188.189v10.635A.189.189,0,0,1,343.1-697.7Z" fill="#19191a"/>
            </g>
            <g id="Group_455" data-name="Group 455">
              <line id="Line_143" data-name="Line 143" y1="10.631" transform="translate(344.651 -708.573)" fill="#fff"/>
              <path id="Path_3353" data-name="Path 3353" d="M344.651-697.754a.188.188,0,0,1-.188-.188v-10.631a.188.188,0,0,1,.188-.188.189.189,0,0,1,.189.188v10.631A.189.189,0,0,1,344.651-697.754Z" fill="#19191a"/>
            </g>
            <g id="Group_456" data-name="Group 456">
              <line id="Line_144" data-name="Line 144" y1="10.625" transform="translate(346.204 -708.623)" fill="#fff"/>
              <path id="Path_3354" data-name="Path 3354" d="M346.2-697.81a.188.188,0,0,1-.188-.188v-10.625a.189.189,0,0,1,.188-.189.189.189,0,0,1,.188.189V-698A.188.188,0,0,1,346.2-697.81Z" fill="#19191a"/>
            </g>
            <g id="Group_457" data-name="Group 457">
              <line id="Line_145" data-name="Line 145" y1="10.619" transform="translate(347.758 -708.677)" fill="#fff"/>
              <path id="Path_3355" data-name="Path 3355" d="M347.758-697.87a.189.189,0,0,1-.189-.188v-10.619a.19.19,0,0,1,.189-.189.189.189,0,0,1,.188.189v10.619A.188.188,0,0,1,347.758-697.87Z" fill="#19191a"/>
            </g>
            <g id="Group_458" data-name="Group 458">
              <line id="Line_146" data-name="Line 146" y1="10.612" transform="translate(349.311 -708.733)" fill="#fff"/>
              <path id="Path_3356" data-name="Path 3356" d="M349.31-697.932a.189.189,0,0,1-.188-.189v-10.612a.188.188,0,0,1,.188-.188.188.188,0,0,1,.189.188v10.612A.189.189,0,0,1,349.31-697.932Z" fill="#19191a"/>
            </g>
            <g id="Group_459" data-name="Group 459">
              <line id="Line_147" data-name="Line 147" y1="10.605" transform="translate(350.864 -708.792)" fill="#fff"/>
              <path id="Path_3357" data-name="Path 3357" d="M350.864-698a.188.188,0,0,1-.188-.188v-10.606a.188.188,0,0,1,.188-.188.189.189,0,0,1,.189.188v10.606A.189.189,0,0,1,350.864-698Z" fill="#19191a"/>
            </g>
            <g id="Group_460" data-name="Group 460">
              <line id="Line_148" data-name="Line 148" y1="10.598" transform="translate(352.417 -708.854)" fill="#fff"/>
              <path id="Path_3358" data-name="Path 3358" d="M352.417-698.068a.188.188,0,0,1-.188-.188v-10.6a.188.188,0,0,1,.188-.188.188.188,0,0,1,.188.188v10.6A.188.188,0,0,1,352.417-698.068Z" fill="#19191a"/>
            </g>
            <g id="Group_461" data-name="Group 461">
              <line id="Line_149" data-name="Line 149" y1="10.591" transform="translate(353.971 -708.919)" fill="#fff"/>
              <path id="Path_3359" data-name="Path 3359" d="M353.971-698.14a.189.189,0,0,1-.189-.188v-10.591a.189.189,0,0,1,.189-.188.188.188,0,0,1,.188.188v10.591A.188.188,0,0,1,353.971-698.14Z" fill="#19191a"/>
            </g>
            <g id="Group_462" data-name="Group 462">
              <line id="Line_150" data-name="Line 150" y1="10.583" transform="translate(355.524 -708.986)" fill="#fff"/>
              <path id="Path_3360" data-name="Path 3360" d="M355.524-698.215a.189.189,0,0,1-.189-.188v-10.583a.189.189,0,0,1,.189-.188.188.188,0,0,1,.188.188V-698.4A.188.188,0,0,1,355.524-698.215Z" fill="#19191a"/>
            </g>
            <g id="Group_463" data-name="Group 463">
              <line id="Line_151" data-name="Line 151" y1="10.574" transform="translate(357.076 -709.056)" fill="#fff"/>
              <path id="Path_3361" data-name="Path 3361" d="M357.076-698.294a.188.188,0,0,1-.188-.188v-10.574a.188.188,0,0,1,.188-.188.189.189,0,0,1,.189.188v10.574A.189.189,0,0,1,357.076-698.294Z" fill="#19191a"/>
            </g>
            <g id="Group_464" data-name="Group 464">
              <line id="Line_152" data-name="Line 152" y1="10.563" transform="translate(358.63 -709.128)" fill="#fff"/>
              <path id="Path_3362" data-name="Path 3362" d="M358.63-698.377a.189.189,0,0,1-.188-.189v-10.562a.188.188,0,0,1,.188-.189.188.188,0,0,1,.188.189v10.562A.189.189,0,0,1,358.63-698.377Z" fill="#19191a"/>
            </g>
            <g id="Group_465" data-name="Group 465">
              <line id="Line_153" data-name="Line 153" y1="10.553" transform="translate(360.183 -709.204)" fill="#fff"/>
              <path id="Path_3363" data-name="Path 3363" d="M360.183-698.463a.189.189,0,0,1-.189-.188V-709.2a.19.19,0,0,1,.189-.189.189.189,0,0,1,.188.189v10.553A.188.188,0,0,1,360.183-698.463Z" fill="#19191a"/>
            </g>
            <g id="Group_466" data-name="Group 466">
              <line id="Line_154" data-name="Line 154" y1="10.542" transform="translate(361.737 -709.284)" fill="#fff"/>
              <path id="Path_3364" data-name="Path 3364" d="M361.737-698.554a.188.188,0,0,1-.189-.188v-10.542a.188.188,0,0,1,.189-.188.188.188,0,0,1,.188.188v10.542A.188.188,0,0,1,361.737-698.554Z" fill="#19191a"/>
            </g>
            <g id="Group_467" data-name="Group 467">
              <line id="Line_155" data-name="Line 155" y1="10.53" transform="translate(363.289 -709.366)" fill="#fff"/>
              <path id="Path_3365" data-name="Path 3365" d="M363.289-698.648a.188.188,0,0,1-.188-.188v-10.53a.188.188,0,0,1,.188-.188.189.189,0,0,1,.189.188v10.53A.189.189,0,0,1,363.289-698.648Z" fill="#19191a"/>
            </g>
            <g id="Group_468" data-name="Group 468">
              <line id="Line_156" data-name="Line 156" y1="10.516" transform="translate(364.843 -709.452)" fill="#fff"/>
              <path id="Path_3366" data-name="Path 3366" d="M364.843-698.747a.188.188,0,0,1-.188-.188v-10.517a.188.188,0,0,1,.188-.188.188.188,0,0,1,.188.188v10.517A.188.188,0,0,1,364.843-698.747Z" fill="#19191a"/>
            </g>
            <g id="Group_469" data-name="Group 469">
              <line id="Line_157" data-name="Line 157" y1="10.503" transform="translate(366.396 -709.542)" fill="#fff"/>
              <path id="Path_3367" data-name="Path 3367" d="M366.4-698.85a.189.189,0,0,1-.189-.188v-10.5a.189.189,0,0,1,.189-.188.188.188,0,0,1,.188.188v10.5A.188.188,0,0,1,366.4-698.85Z" fill="#19191a"/>
            </g>
            <g id="Group_470" data-name="Group 470">
              <line id="Line_158" data-name="Line 158" y1="10.488" transform="translate(367.949 -709.636)" fill="#fff"/>
              <path id="Path_3368" data-name="Path 3368" d="M367.95-698.96a.188.188,0,0,1-.189-.188v-10.488a.188.188,0,0,1,.189-.188.188.188,0,0,1,.188.188v10.488A.188.188,0,0,1,367.95-698.96Z" fill="#19191a"/>
            </g>
            <g id="Group_471" data-name="Group 471">
              <line id="Line_159" data-name="Line 159" y1="7.196" x2="7.519" transform="translate(177.226 -750.08)" fill="#fff"/>
              <path id="Path_3369" data-name="Path 3369" d="M177.226-742.7a.19.19,0,0,1-.136-.058.189.189,0,0,1,.006-.267l7.519-7.2a.188.188,0,0,1,.266.006.188.188,0,0,1-.006.266l-7.519,7.2A.187.187,0,0,1,177.226-742.7Z" fill="#19191a"/>
            </g>
            <g id="Group_472" data-name="Group 472">
              <line id="Line_160" data-name="Line 160" x1="7.748" y2="7.416" transform="translate(178.247 -748.888)" fill="#fff"/>
              <path id="Path_3370" data-name="Path 3370" d="M178.247-741.283a.191.191,0,0,1-.136-.058.189.189,0,0,1,.006-.267l7.748-7.416a.188.188,0,0,1,.266.006.188.188,0,0,1,0,.266l-7.748,7.416A.191.191,0,0,1,178.247-741.283Z" fill="#19191a"/>
            </g>
            <g id="Group_473" data-name="Group 473">
              <line id="Line_161" data-name="Line 161" x1="7.934" y2="7.593" transform="translate(179.299 -747.682)" fill="#fff"/>
              <path id="Path_3371" data-name="Path 3371" d="M179.3-739.9a.185.185,0,0,1-.136-.058.187.187,0,0,1,.006-.266l7.933-7.593a.189.189,0,0,1,.267.005.189.189,0,0,1-.006.267l-7.934,7.593A.186.186,0,0,1,179.3-739.9Z" fill="#19191a"/>
            </g>
            <g id="Group_474" data-name="Group 474">
              <line id="Line_162" data-name="Line 162" x1="8.077" y2="7.731" transform="translate(180.381 -746.467)" fill="#fff"/>
              <path id="Path_3372" data-name="Path 3372" d="M180.381-738.547a.189.189,0,0,1-.137-.059.188.188,0,0,1,.006-.266l8.077-7.731a.188.188,0,0,1,.266.006.188.188,0,0,1-.005.266l-8.077,7.731A.19.19,0,0,1,180.381-738.547Z" fill="#19191a"/>
            </g>
            <g id="Group_475" data-name="Group 475">
              <line id="Line_163" data-name="Line 163" x1="8.177" y2="7.826" transform="translate(181.494 -745.238)" fill="#fff"/>
              <path id="Path_3373" data-name="Path 3373" d="M181.494-737.224a.185.185,0,0,1-.136-.058.187.187,0,0,1,.006-.266l8.176-7.826a.189.189,0,0,1,.267.006.188.188,0,0,1-.006.266l-8.177,7.826A.186.186,0,0,1,181.494-737.224Z" fill="#19191a"/>
            </g>
            <g id="Group_476" data-name="Group 476">
              <line id="Line_164" data-name="Line 164" x1="8.233" y2="7.88" transform="translate(182.637 -743.996)" fill="#fff"/>
              <path id="Path_3374" data-name="Path 3374" d="M182.637-735.928a.189.189,0,0,1-.136-.058.189.189,0,0,1,0-.267l8.234-7.879a.188.188,0,0,1,.266.005.189.189,0,0,1-.006.267l-8.233,7.879A.188.188,0,0,1,182.637-735.928Z" fill="#19191a"/>
            </g>
            <g id="Group_477" data-name="Group 477">
              <line id="Line_165" data-name="Line 165" x1="8.242" y2="7.888" transform="translate(183.81 -742.74)" fill="#fff"/>
              <path id="Path_3375" data-name="Path 3375" d="M183.81-734.663a.191.191,0,0,1-.136-.058.189.189,0,0,1,.006-.267l8.243-7.888a.188.188,0,0,1,.266.006.188.188,0,0,1-.006.266l-8.242,7.888A.191.191,0,0,1,183.81-734.663Z" fill="#19191a"/>
            </g>
            <g id="Group_478" data-name="Group 478">
              <line id="Line_166" data-name="Line 166" x1="8.201" y2="7.849" transform="translate(185.014 -741.463)" fill="#fff"/>
              <path id="Path_3376" data-name="Path 3376" d="M185.014-733.426a.191.191,0,0,1-.136-.058.189.189,0,0,1,.006-.267l8.2-7.848a.187.187,0,0,1,.266.006.188.188,0,0,1-.006.266l-8.2,7.849A.189.189,0,0,1,185.014-733.426Z" fill="#19191a"/>
            </g>
            <g id="Group_479" data-name="Group 479">
              <line id="Line_167" data-name="Line 167" x1="8.103" y2="7.756" transform="translate(186.248 -740.162)" fill="#fff"/>
              <path id="Path_3377" data-name="Path 3377" d="M186.248-732.218a.191.191,0,0,1-.136-.058.189.189,0,0,1,.006-.267l8.1-7.756a.189.189,0,0,1,.267.006.189.189,0,0,1-.006.267l-8.1,7.755A.191.191,0,0,1,186.248-732.218Z" fill="#19191a"/>
            </g>
            <g id="Group_480" data-name="Group 480">
              <line id="Line_168" data-name="Line 168" x1="7.94" y2="7.598" transform="translate(187.512 -738.826)" fill="#fff"/>
              <path id="Path_3378" data-name="Path 3378" d="M187.512-731.039a.189.189,0,0,1-.136-.058.189.189,0,0,1,.006-.267l7.94-7.6a.188.188,0,0,1,.266.006.189.189,0,0,1-.006.267l-7.94,7.6A.19.19,0,0,1,187.512-731.039Z" fill="#19191a"/>
            </g>
            <g id="Group_481" data-name="Group 481">
              <line id="Line_169" data-name="Line 169" x1="7.939" y2="7.135" transform="translate(188.553 -737.434)" fill="#fff"/>
              <path id="Path_3379" data-name="Path 3379" d="M188.554-730.111a.191.191,0,0,1-.141-.062.188.188,0,0,1,.015-.266l7.939-7.135a.188.188,0,0,1,.266.015.188.188,0,0,1-.015.266l-7.939,7.134A.189.189,0,0,1,188.554-730.111Z" fill="#19191a"/>
            </g>
            <g id="Group_482" data-name="Group 482">
              <path id="Path_3380" data-name="Path 3380" d="M370.206-785.8l65.765,49.867c2.171-4.322,12.67-14.15,12.67-14.15l-84.028-79.933S359.844-805.749,370.206-785.8Z" fill="#fff"/>
              <path id="Path_3381" data-name="Path 3381" d="M435.971-735.742a.187.187,0,0,1-.113-.038l-65.766-49.867a.182.182,0,0,1-.053-.064,57.745,57.745,0,0,1-5.263-15.376,78.321,78.321,0,0,1-1.44-14.3,79.992,79.992,0,0,1,1.092-14.665.192.192,0,0,1,.128-.143.189.189,0,0,1,.187.043l84.028,79.933a.19.19,0,0,1,.059.138.188.188,0,0,1-.06.136c-.1.1-10.5,9.855-12.63,14.1a.186.186,0,0,1-.126.1A.2.2,0,0,1,435.971-735.742Zm-65.618-50.18,65.554,49.707c2.238-4.156,11.156-12.637,12.46-13.866l-83.631-79.555a81.977,81.977,0,0,0-1.024,14.256C363.807-807.6,365.036-796.183,370.353-785.922Z" fill="#19191a"/>
            </g>
            <g id="Group_483" data-name="Group 483">
              <path id="Path_3382" data-name="Path 3382" d="M435.971-735.93l7.913,6.446a71.033,71.033,0,0,0,6.835-6.6,71.02,71.02,0,0,0,5.441-6.8l-7.519-7.2S438.142-740.252,435.971-735.93Z" fill="#fff"/>
              <path id="Path_3383" data-name="Path 3383" d="M443.884-729.3a.19.19,0,0,1-.119-.042l-7.913-6.446a.189.189,0,0,1-.049-.231c2.161-4.3,12.28-13.8,12.709-14.2a.189.189,0,0,1,.259,0l7.519,7.2a.188.188,0,0,1,.024.245,71.552,71.552,0,0,1-5.456,6.819,71.443,71.443,0,0,1-6.852,6.616A.192.192,0,0,1,443.884-729.3Zm-7.675-6.684,7.673,6.251a71.122,71.122,0,0,0,6.7-6.48,71.1,71.1,0,0,0,5.334-6.651l-7.273-6.96C447.442-748.688,438.345-740.024,436.209-735.98Z" fill="#19191a"/>
            </g>
            <g id="Group_484" data-name="Group 484">
              <line id="Line_170" data-name="Line 170" x1="7.519" y1="7.196" transform="translate(448.641 -750.08)" fill="#fff"/>
              <path id="Path_3384" data-name="Path 3384" d="M456.16-742.7a.187.187,0,0,1-.13-.053l-7.519-7.2a.188.188,0,0,1-.006-.266.187.187,0,0,1,.266-.006l7.519,7.2a.188.188,0,0,1,.006.267A.189.189,0,0,1,456.16-742.7Z" fill="#19191a"/>
            </g>
            <g id="Group_485" data-name="Group 485">
              <line id="Line_171" data-name="Line 171" x1="7.748" y1="7.416" transform="translate(447.391 -748.888)" fill="#fff"/>
              <path id="Path_3385" data-name="Path 3385" d="M455.139-741.283a.187.187,0,0,1-.13-.053l-7.748-7.416a.187.187,0,0,1-.006-.266.188.188,0,0,1,.266-.006l7.748,7.416a.189.189,0,0,1,.006.267A.191.191,0,0,1,455.139-741.283Z" fill="#19191a"/>
            </g>
            <g id="Group_486" data-name="Group 486">
              <line id="Line_172" data-name="Line 172" x1="7.934" y1="7.593" transform="translate(446.154 -747.682)" fill="#fff"/>
              <path id="Path_3386" data-name="Path 3386" d="M454.087-739.9a.189.189,0,0,1-.13-.052l-7.934-7.593a.189.189,0,0,1-.005-.267.188.188,0,0,1,.266-.005l7.934,7.593a.188.188,0,0,1,.005.266A.184.184,0,0,1,454.087-739.9Z" fill="#19191a"/>
            </g>
            <g id="Group_487" data-name="Group 487">
              <line id="Line_173" data-name="Line 173" x1="8.077" y1="7.731" transform="translate(444.929 -746.467)" fill="#fff"/>
              <path id="Path_3387" data-name="Path 3387" d="M453.006-738.547a.191.191,0,0,1-.131-.053l-8.076-7.731a.187.187,0,0,1-.006-.266.188.188,0,0,1,.266-.006l8.077,7.731a.188.188,0,0,1,.006.266A.188.188,0,0,1,453.006-738.547Z" fill="#19191a"/>
            </g>
            <g id="Group_488" data-name="Group 488">
              <line id="Line_174" data-name="Line 174" x1="8.177" y1="7.826" transform="translate(443.716 -745.238)" fill="#fff"/>
              <path id="Path_3388" data-name="Path 3388" d="M451.892-737.224a.187.187,0,0,1-.13-.052l-8.177-7.826a.188.188,0,0,1-.005-.266.187.187,0,0,1,.266-.006l8.177,7.826a.188.188,0,0,1,.005.266A.186.186,0,0,1,451.892-737.224Z" fill="#19191a"/>
            </g>
            <g id="Group_489" data-name="Group 489">
              <line id="Line_175" data-name="Line 175" x1="8.233" y1="7.88" transform="translate(442.516 -743.996)" fill="#fff"/>
              <path id="Path_3389" data-name="Path 3389" d="M450.75-735.928a.191.191,0,0,1-.131-.053l-8.233-7.879a.189.189,0,0,1-.006-.267.189.189,0,0,1,.267-.005l8.233,7.879a.189.189,0,0,1,.006.267A.191.191,0,0,1,450.75-735.928Z" fill="#19191a"/>
            </g>
            <g id="Group_490" data-name="Group 490">
              <line id="Line_176" data-name="Line 176" x1="8.242" y1="7.888" transform="translate(441.333 -742.74)" fill="#fff"/>
              <path id="Path_3390" data-name="Path 3390" d="M449.576-734.663a.186.186,0,0,1-.13-.053L441.2-742.6a.188.188,0,0,1-.006-.266.189.189,0,0,1,.267-.006l8.242,7.888a.189.189,0,0,1,.006.267A.191.191,0,0,1,449.576-734.663Z" fill="#19191a"/>
            </g>
            <g id="Group_491" data-name="Group 491">
              <line id="Line_177" data-name="Line 177" x1="8.201" y1="7.849" transform="translate(440.171 -741.463)" fill="#fff"/>
              <path id="Path_3391" data-name="Path 3391" d="M448.372-733.426a.185.185,0,0,1-.13-.052l-8.2-7.849a.188.188,0,0,1-.006-.266.187.187,0,0,1,.266-.006l8.2,7.848a.189.189,0,0,1,.006.267A.191.191,0,0,1,448.372-733.426Z" fill="#19191a"/>
            </g>
            <g id="Group_492" data-name="Group 492">
              <line id="Line_178" data-name="Line 178" x1="8.103" y1="7.756" transform="translate(439.035 -740.162)" fill="#fff"/>
              <path id="Path_3392" data-name="Path 3392" d="M447.138-732.218a.187.187,0,0,1-.13-.053l-8.1-7.755a.189.189,0,0,1-.005-.267.189.189,0,0,1,.266-.006l8.1,7.756a.189.189,0,0,1,.006.267A.191.191,0,0,1,447.138-732.218Z" fill="#19191a"/>
            </g>
            <g id="Group_493" data-name="Group 493">
              <line id="Line_179" data-name="Line 179" x1="7.94" y1="7.598" transform="translate(437.934 -738.826)" fill="#fff"/>
              <path id="Path_3393" data-name="Path 3393" d="M445.874-731.039a.192.192,0,0,1-.13-.052l-7.94-7.6a.189.189,0,0,1-.006-.267.189.189,0,0,1,.267-.006l7.94,7.6a.189.189,0,0,1,.005.267A.19.19,0,0,1,445.874-731.039Z" fill="#19191a"/>
            </g>
            <g id="Group_494" data-name="Group 494">
              <line id="Line_180" data-name="Line 180" x1="7.939" y1="7.135" transform="translate(436.894 -737.434)" fill="#fff"/>
              <path id="Path_3394" data-name="Path 3394" d="M444.833-730.111a.189.189,0,0,1-.126-.048l-7.939-7.134a.187.187,0,0,1-.014-.266.188.188,0,0,1,.266-.015l7.939,7.135a.189.189,0,0,1,.014.266A.189.189,0,0,1,444.833-730.111Z" fill="#19191a"/>
            </g>
          </g>
          <g id="Group_512" data-name="Group 512">
            <g id="Group_509" data-name="Group 509">
              <g id="Group_502" data-name="Group 502">
                <g id="Group_496" data-name="Group 496">
                  <path id="Path_3395" data-name="Path 3395" d="M292.43-844.839l.065.029-.065-.028c-.145-.065-.316-.146-.5-.239C292.114-844.985,292.285-844.9,292.43-844.839Z" fill="#fff"/>
                  <path id="Path_3396" data-name="Path 3396" d="M292.495-844.622a.184.184,0,0,1-.072-.014c-.024-.01-.049-.02-.072-.031-.165-.074-.336-.156-.508-.242a.189.189,0,0,1-.084-.253.189.189,0,0,1,.253-.084c.169.084.34.166.5.236h0l.034.015.029.013a.189.189,0,0,1,.1.247A.188.188,0,0,1,292.495-844.622Z" fill="#19191a"/>
                </g>
                <g id="Group_497" data-name="Group 497">
                  <ellipse id="Ellipse_8" data-name="Ellipse 8" cx="1.38" cy="1.433" rx="1.38" ry="1.433" transform="translate(306.128 -838.201)" fill="#fff"/>
                  <path id="Path_3397" data-name="Path 3397" d="M307.507-835.146a1.6,1.6,0,0,1-1.568-1.621,1.6,1.6,0,0,1,1.568-1.622,1.6,1.6,0,0,1,1.568,1.622A1.6,1.6,0,0,1,307.507-835.146Zm0-2.866a1.22,1.22,0,0,0-1.191,1.245,1.22,1.22,0,0,0,1.191,1.244,1.22,1.22,0,0,0,1.191-1.244A1.22,1.22,0,0,0,307.507-838.012Z" fill="#19191a"/>
                </g>
                <g id="Group_498" data-name="Group 498">
                  <path id="Path_3398" data-name="Path 3398" d="M297.687-849.326c-.432,1.381-4.975,4.6-4.975,4.6l-.075-.026c-.05-.018-.1-.036-.142-.055l-.065-.028c-.145-.065-.316-.146-.5-.239l-.192-.1-.2-.1-.2-.11-.069-.038-.209-.117c-.093-.054-.186-.108-.279-.164-.069-.041-.139-.083-.207-.126-.868-.543-1.611-1.158-1.474-1.58a.367.367,0,0,1,.105-.16.691.691,0,0,1,.134-.1,2.858,2.858,0,0,1,.386-.174c.11-.04.231-.081.363-.122l.057-.017c.135-.041.28-.081.435-.121l.134-.035.209-.051.072-.018.145-.034.149-.033.076-.017.231-.051.237-.049.162-.033C294.26-848.881,297.13-849.255,297.687-849.326Z" fill="#fff"/>
                  <path id="Path_3399" data-name="Path 3399" d="M292.712-844.54a.2.2,0,0,1-.063-.011l-.073-.026c-.056-.02-.106-.039-.153-.059-.024-.01-.049-.02-.072-.031-.165-.074-.336-.156-.508-.242l-.139-.07-.053-.027c-.067-.034-.135-.069-.2-.106s-.129-.069-.2-.106l-.009,0-.07-.038-.211-.119-.283-.166c-.07-.042-.141-.085-.21-.129-1.195-.747-1.7-1.335-1.553-1.8a.559.559,0,0,1,.155-.24.869.869,0,0,1,.17-.122,3.138,3.138,0,0,1,.413-.186c.11-.041.236-.083.373-.126l.056-.017c.126-.038.266-.077.444-.124l.133-.034.214-.052.07-.017.135-.032.014,0,.15-.034.034-.008.045-.01.083-.018.147-.032.238-.05.075-.015.089-.018c2.293-.461,5.159-.834,5.71-.9a.191.191,0,0,1,.169.066.189.189,0,0,1,.035.177c-.446,1.425-4.859,4.562-5.046,4.7A.186.186,0,0,1,292.712-844.54Zm4.659-4.555c-.967.127-3.37.458-5.345.856l-.087.017-.075.016-.235.049-.145.031-.162.036-.145.033-.014,0-.131.031-.073.017-.207.051-.132.034c-.172.045-.308.083-.427.119l-.061.019c-.125.038-.244.078-.347.117a2.577,2.577,0,0,0-.359.161.508.508,0,0,0-.1.069.2.2,0,0,0-.055.08c-.022.069-.058.454,1.395,1.363.067.042.135.084.2.125.091.055.184.109.276.161q.1.06.207.117l.066.036.01.005c.066.036.13.071.194.1s.134.071.2.1l.052.027.137.069c.168.084.335.163.5.236.02.01.04.018.059.026.037.016.076.03.116.045C293.88-845.794,296.666-847.93,297.371-849.095Z" fill="#19191a"/>
                </g>
                <g id="Group_499" data-name="Group 499">
                  <path id="Path_3400" data-name="Path 3400" d="M307.01-839.5c-3.383-1.554-7.162-3.4-8.314-3.883-1.676-.708-4.6-.877-5.984-1.342,0,0,4.543-3.216,4.975-4.6s1.225-2.97,3.025-3.039c.3-.012.748,0,1.311.033l-.039.02h0c-1.773.879-1.692,3.139-.189,5.126C303.306-845.183,306.609-841.212,307.01-839.5Z" fill="#fff"/>
                  <path id="Path_3401" data-name="Path 3401" d="M307.01-839.316a.181.181,0,0,1-.079-.017c-1.607-.738-3.284-1.532-4.764-2.233-1.579-.748-2.943-1.394-3.544-1.648a17.509,17.509,0,0,0-3.555-.832,17.8,17.8,0,0,1-2.416-.5.188.188,0,0,1-.126-.151.186.186,0,0,1,.077-.181c1.249-.885,4.566-3.418,4.9-4.5.65-2.076,1.7-3.113,3.2-3.17.286-.012.708,0,1.329.033a.188.188,0,0,1,.175.154.188.188,0,0,1-.109.206l-.028.014-.015.007a2.088,2.088,0,0,0-1.142,1.418,4.362,4.362,0,0,0,1.029,3.422c.278.368.624.812.989,1.281,1.656,2.126,3.924,5.038,4.26,6.471a.187.187,0,0,1-.064.189A.186.186,0,0,1,307.01-839.316ZM293.134-844.8c.548.143,1.255.26,2,.383a17.8,17.8,0,0,1,3.639.857c.609.257,1.911.874,3.56,1.654,1.359.644,2.885,1.367,4.37,2.052a34.616,34.616,0,0,0-4.063-5.931c-.366-.471-.713-.915-.993-1.286a4.662,4.662,0,0,1-1.094-3.736,2.41,2.41,0,0,1,.86-1.364c-.293-.01-.518-.012-.689-.005-1.342.051-2.248.975-2.853,2.907C297.485-848.048,294.185-845.566,293.134-844.8Z" fill="#19191a"/>
                </g>
                <g id="Group_500" data-name="Group 500">
                  <path id="Path_3402" data-name="Path 3402" d="M331.612-847.186c-1.513,2-4.816,5.974-5.217,7.682-1.9.875-3.68,1.658-4.794,2.055-.089.031-.175.064-.26.1l-.122.051c-.093.041-.185.084-.274.128-.062.031-.123.062-.183.1l-.108.06-.083.048c-.088.051-.174.105-.257.161-.029.018-.057.037-.085.056-.094.064-.184.13-.271.2-.031.023-.061.047-.091.071l-.068.055c-.153.125-.3.256-.431.388l-.049.049-.05.052c-.091.1-.178.19-.26.285-.023.026-.044.052-.066.078s-.042.053-.064.078-.041.052-.061.079c-.1.13-.2.259-.282.387-.018.025-.034.051-.051.076l-.049.076c-.1.151-.181.3-.256.44-.013.023-.025.047-.037.07s-.023.046-.034.069c-.069.136-.128.266-.176.384-.008.02-.017.039-.024.059-.037.093-.068.179-.093.257l-.015.047,0,.013c-.009.028-.016.055-.023.081a1.271,1.271,0,0,0-.044.223c-.043.606-.048,1.811-.049,2.129q-.483.016-.978.016h-.009c-.327,0-.651-.005-.97-.015,0-.318-.006-1.523-.049-2.13a6.184,6.184,0,0,0-3.489-4.062l-.122-.051c-.085-.035-.171-.068-.26-.1-1.114-.4-2.892-1.18-4.794-2.055-.4-1.708-3.7-5.679-5.216-7.682-1.5-1.987-1.584-4.247.189-5.126h0a52.639,52.639,0,0,0,14.719,1.8,52.654,52.654,0,0,0,14.719-1.8h0C333.2-851.433,333.114-849.173,331.612-847.186Z" fill="#fff"/>
                  <path id="Path_3403" data-name="Path 3403" d="M316.7-830.9h-.009c-.329,0-.657-.006-.976-.016a.189.189,0,0,1-.183-.188c0-.347-.006-1.526-.048-2.116a5.978,5.978,0,0,0-3.376-3.9l-.117-.049c-.089-.037-.172-.068-.253-.1-.983-.35-2.556-1.024-4.81-2.061a.185.185,0,0,1-.1-.128c-.318-1.353-2.556-4.227-4.191-6.325-.366-.471-.713-.915-.993-1.286a4.662,4.662,0,0,1-1.094-3.736,2.454,2.454,0,0,1,1.35-1.673.192.192,0,0,1,.176,0A52.549,52.549,0,0,0,316.7-850.7a52.538,52.538,0,0,0,14.627-1.78.192.192,0,0,1,.176,0,2.458,2.458,0,0,1,1.351,1.673,4.667,4.667,0,0,1-1.1,3.736h0c-.28.371-.626.815-.993,1.286-1.634,2.1-3.873,4.972-4.19,6.325a.188.188,0,0,1-.105.128c-2.254,1.037-3.827,1.711-4.81,2.061-.081.029-.164.061-.252.1-.041.016-.08.033-.118.049-.086.038-.175.079-.264.124-.063.03-.121.06-.179.092l-.041.022-.062.035-.079.046c-.089.052-.172.1-.25.156-.03.019-.057.036-.082.054-.092.064-.181.128-.265.192l-.085.067c-.026.02-.047.038-.068.055-.141.116-.282.242-.418.377l-.018.018-.027.028-.048.048c-.091.1-.176.188-.256.281-.023.026-.043.05-.063.074l-.064.079c-.019.023-.037.046-.055.07-.1.124-.19.25-.278.381l-.05.075-.047.073c-.088.139-.172.283-.248.427-.013.023-.023.043-.033.063l-.005.008-.024.049-.008.015c-.064.128-.121.253-.169.371-.009.021-.017.038-.023.055-.036.09-.066.173-.089.247l-.014.044,0,.005,0,.012c-.008.025-.015.048-.021.071a1.15,1.15,0,0,0-.038.189c-.028.392-.044,1.1-.049,2.1v.015a.188.188,0,0,1-.182.187C317.372-830.909,317.041-830.9,316.7-830.9Zm-.791-.387c.257.007.519.01.782.01h.009c.269,0,.534,0,.79-.011.006-.922.023-1.581.049-1.959a1.488,1.488,0,0,1,.05-.259q.01-.041.024-.084l.007-.022.009-.029.005-.015c.026-.082.059-.172.1-.269.007-.019.016-.04.025-.061.052-.127.113-.26.181-.4l.007-.014.03-.059c.014-.026.025-.049.038-.071.08-.151.169-.3.262-.451l.05-.078.02-.03.033-.049c.093-.138.19-.272.289-.4l.065-.082.064-.078c.022-.027.046-.055.07-.082.083-.1.173-.2.266-.292.013-.014.031-.033.05-.051l.035-.035.016-.017c.146-.144.3-.278.444-.4.023-.02.048-.04.073-.059s.059-.048.092-.072c.088-.068.182-.136.278-.2l.091-.061c.08-.054.17-.11.263-.164l.085-.049.067-.037.041-.024c.066-.035.13-.068.2-.1.092-.047.187-.091.28-.131l.127-.054c.092-.037.18-.071.267-.1.96-.342,2.5-1,4.7-2.011.407-1.462,2.615-4.3,4.237-6.38.366-.469.711-.913.989-1.281h0a4.362,4.362,0,0,0,1.029-3.422,2.078,2.078,0,0,0-1.073-1.382A54.811,54.811,0,0,1,316.7-850.32a54.814,54.814,0,0,1-14.715-1.783,2.078,2.078,0,0,0-1.073,1.382,4.362,4.362,0,0,0,1.029,3.422c.278.368.624.812.989,1.281,1.622,2.082,3.83,4.918,4.237,6.38,2.2,1.011,3.737,1.669,4.7,2.011.086.031.173.064.267.1l.126.053a6.388,6.388,0,0,1,3.6,4.221C315.9-832.728,315.909-831.766,315.912-831.29Zm2.07-2.215v0Zm8.413-6h0Z" fill="#19191a"/>
                </g>
                <g id="Group_501" data-name="Group 501">
                  <path id="Path_3404" data-name="Path 3404" d="M315.675-833.237a6.184,6.184,0,0,0-3.489-4.062l-.122-.051c-.085-.035-.171-.068-.26-.1-1.114-.4-2.892-1.18-4.794-2.055-3.383-1.554-7.162-3.4-8.314-3.883-1.676-.708-4.6-.877-5.984-1.342l-.075-.026c-.05-.018-.1-.036-.142-.055l-.065-.028c-.145-.065-.316-.146-.5-.239l-.192-.1-.2-.1-.2-.11-.069-.038-.209-.117c-.093-.054-.186-.108-.279-.164-.069-.041-.139-.083-.207-.126-.868-.543-1.611-1.158-1.474-1.58a.367.367,0,0,1,.105-.16.614.614,0,0,1,.134-.1,2.634,2.634,0,0,1,.386-.174c.11-.04.231-.081.363-.122l.057-.017c.135-.041.28-.081.435-.121l.134-.035c.068-.017.138-.035.209-.051l.072-.018.145-.034.149-.033.076-.017.231-.051.237-.049.162-.033c2.271-.457,5.141-.831,5.7-.9-11.6-.691-10.155,1.519-10.083,3.521s2.593,4.006.432,4.7c-1.994.638-2.184,3.752-2.226,4.4-.038.588,9.97.432,12.814,1.2,3.61.972,10.768,4.561,18.079,4.561A9.7,9.7,0,0,1,315.675-833.237Zm-8.168-2.1a1.407,1.407,0,0,1-1.379-1.433,1.407,1.407,0,0,1,1.379-1.434,1.408,1.408,0,0,1,1.38,1.434A1.408,1.408,0,0,1,307.507-835.334Z" fill="#fff"/>
                  <path id="Path_3405" data-name="Path 3405" d="M316.7-830.766c-5.4,0-10.707-1.942-14.58-3.36-1.394-.511-2.6-.951-3.548-1.207a50.231,50.231,0,0,0-7.611-.667c-3.625-.166-5.019-.255-5.276-.542a.249.249,0,0,1-.066-.183v-.014c.166-2.536.98-4.109,2.356-4.549a1.023,1.023,0,0,0,.693-.495c.172-.407-.149-1.053-.49-1.737a5.834,5.834,0,0,1-.766-2.278c-.007-.185-.026-.378-.045-.565a2.376,2.376,0,0,1,.437-2.074c1.047-1.09,4.1-1.423,9.89-1.077a.188.188,0,0,1,.178.181.19.19,0,0,1-.165.194c-.549.069-3.4.44-5.685.9l-.087.017-.075.016-.235.049h-.007c-.074.016-.149.032-.221.049l-.079.017-.145.033-.014,0-.131.031-.073.017c-.069.016-.138.034-.205.051l-.134.034c-.148.038-.292.079-.427.119l-.061.019c-.125.038-.244.078-.347.117a2.575,2.575,0,0,0-.359.16.5.5,0,0,0-.1.068.2.2,0,0,0-.057.082c-.022.069-.058.454,1.395,1.363.067.042.135.084.2.125.091.055.184.109.276.161q.1.06.207.117l.066.036.01.005c.066.036.13.071.194.1s.134.071.2.1l.052.027.137.069c.168.084.335.163.5.236.02.01.04.018.059.026.043.018.087.035.134.052l.074.026a17.457,17.457,0,0,0,2.355.488,17.8,17.8,0,0,1,3.639.857c.609.257,1.911.874,3.56,1.654,1.479.7,3.155,1.495,4.76,2.232,2.243,1.032,3.806,1.7,4.779,2.048.086.031.173.064.267.1l.126.053a6.386,6.386,0,0,1,3.6,4.221h0a9,9,0,0,0,1,2.2.188.188,0,0,1,0,.189A.187.187,0,0,1,316.7-830.766Zm-30.7-6.01a33.7,33.7,0,0,0,4.978.4,50.138,50.138,0,0,1,7.692.68c.967.26,2.178.7,3.579,1.217,3.769,1.38,8.9,3.259,14.125,3.335a7.549,7.549,0,0,1-.89-2.078h0a5.979,5.979,0,0,0-3.376-3.9l-.117-.049c-.089-.037-.172-.068-.253-.1-.983-.35-2.556-1.024-4.81-2.061-1.607-.738-3.284-1.532-4.764-2.233-1.579-.748-2.943-1.394-3.544-1.648a17.509,17.509,0,0,0-3.555-.832,17.8,17.8,0,0,1-2.416-.5l-.076-.027c-.056-.02-.106-.039-.153-.059-.024-.01-.049-.02-.072-.031-.165-.074-.336-.156-.508-.242l-.139-.07-.053-.027c-.067-.034-.135-.069-.2-.106s-.129-.069-.2-.106l-.009,0-.07-.038-.211-.119-.283-.166c-.07-.042-.141-.085-.21-.129-1.195-.747-1.7-1.335-1.553-1.8a.559.559,0,0,1,.155-.24.813.813,0,0,1,.17-.122,2.881,2.881,0,0,1,.413-.186c.11-.041.236-.083.373-.126l.056-.017c.142-.043.291-.084.445-.124l.132-.034.216-.053.068-.016.135-.032.014,0,.15-.034.034-.008.045-.01.222-.048.008,0,.238-.05.075-.015.089-.018c1.213-.244,2.586-.463,3.692-.626-4.314-.147-6.737.2-7.565,1.059a2.06,2.06,0,0,0-.334,1.775c.019.193.039.392.046.59a5.58,5.58,0,0,0,.727,2.123c.4.8.74,1.485.5,2.052a1.364,1.364,0,0,1-.926.707C286.906-840.549,286.165-839.075,286-836.776Zm21.5,1.63a1.6,1.6,0,0,1-1.568-1.621,1.6,1.6,0,0,1,1.568-1.622,1.6,1.6,0,0,1,1.568,1.622A1.6,1.6,0,0,1,307.507-835.146Zm0-2.866a1.22,1.22,0,0,0-1.191,1.245,1.22,1.22,0,0,0,1.191,1.244,1.22,1.22,0,0,0,1.191-1.244A1.22,1.22,0,0,0,307.507-838.012Z" fill="#19191a"/>
                </g>
              </g>
              <g id="Group_508" data-name="Group 508">
                <g id="Group_503" data-name="Group 503">
                  <ellipse id="Ellipse_9" data-name="Ellipse 9" cx="1.38" cy="1.433" rx="1.38" ry="1.433" transform="translate(324.518 -838.201)" fill="#fff"/>
                  <path id="Path_3406" data-name="Path 3406" d="M325.9-835.146a1.6,1.6,0,0,1-1.568-1.621,1.6,1.6,0,0,1,1.568-1.622,1.6,1.6,0,0,1,1.568,1.622A1.6,1.6,0,0,1,325.9-835.146Zm0-2.866a1.22,1.22,0,0,0-1.191,1.245,1.22,1.22,0,0,0,1.191,1.244,1.22,1.22,0,0,0,1.191-1.244A1.22,1.22,0,0,0,325.9-838.012Z" fill="#19191a"/>
                </g>
                <g id="Group_504" data-name="Group 504">
                  <path id="Path_3407" data-name="Path 3407" d="M340.975-844.839c.145-.065.316-.146.5-.238-.187.093-.358.174-.5.239l-.065.028Z" fill="#fff"/>
                  <path id="Path_3408" data-name="Path 3408" d="M340.912-844.622a.19.19,0,0,1-.174-.114.187.187,0,0,1,.1-.246l.03-.013.033-.015h0c.156-.071.327-.152.5-.236a.188.188,0,0,1,.252.084.189.189,0,0,1-.084.253c-.171.086-.342.167-.51.243-.021.01-.044.019-.068.029A.182.182,0,0,1,340.912-844.622Z" fill="#19191a"/>
                </g>
                <g id="Group_505" data-name="Group 505">
                  <path id="Path_3409" data-name="Path 3409" d="M342.838-845.833c-.069.043-.138.085-.208.126-.092.056-.186.11-.279.164l-.209.117-.069.038c-.07.038-.137.075-.2.11s-.134.071-.2.1l-.191.1c-.187.093-.358.174-.5.239l-.065.028c-.045.019-.092.037-.141.055l-.076.026s-4.543-3.216-4.975-4.6c.558.071,3.428.445,5.7.9l.161.033.237.049.231.051.076.017.149.033.145.034.072.018.209.051.135.035c.154.04.3.08.434.121l.058.017c.131.041.253.082.362.122a2.937,2.937,0,0,1,.387.174.758.758,0,0,1,.134.1.375.375,0,0,1,.1.16C344.448-846.991,343.7-846.376,342.838-845.833Z" fill="#fff"/>
                  <path id="Path_3410" data-name="Path 3410" d="M340.693-844.54a.191.191,0,0,1-.109-.035c-.187-.133-4.6-3.27-5.046-4.7a.187.187,0,0,1,.036-.177.188.188,0,0,1,.168-.066c.551.07,3.417.443,5.712.905l.088.017.072.015.24.05.146.032.086.019.044.009.031.007.152.035.008,0,.139.032.069.017.213.052.136.035c.18.047.32.086.443.124l.053.016c.143.044.268.086.378.127a2.959,2.959,0,0,1,.414.187.841.841,0,0,1,.17.122.562.562,0,0,1,.155.239c.15.462-.359,1.05-1.553,1.8h0c-.07.044-.14.087-.211.129-.093.056-.188.111-.283.165l-.21.119-.072.039c-.072.039-.139.076-.207.111s-.134.071-.2.105l-.054.027-.14.07c-.17.086-.341.167-.509.243-.021.01-.044.019-.068.029-.049.021-.1.04-.151.059l-.077.027A.2.2,0,0,1,340.693-844.54Zm-4.659-4.555c.705,1.165,3.491,3.3,4.689,4.156.038-.014.077-.029.115-.045.021-.009.04-.016.058-.025.164-.074.331-.153.5-.237l.138-.069.053-.027c.063-.032.129-.066.194-.1s.134-.071.2-.107l.073-.04.206-.116c.091-.052.184-.106.275-.161.069-.041.137-.083.2-.125h0c1.453-.909,1.416-1.294,1.394-1.362a.19.19,0,0,0-.054-.08.478.478,0,0,0-.1-.07,2.727,2.727,0,0,0-.361-.162c-.1-.038-.22-.077-.351-.118l-.059-.018c-.116-.035-.252-.073-.425-.118l-.135-.035-.2-.05-.073-.018-.134-.031-.008,0-.148-.034-.161-.035-.144-.031-.237-.05-.072-.014-.086-.018C339.4-848.637,337-848.968,336.034-849.095Z" fill="#19191a"/>
                </g>
                <g id="Group_506" data-name="Group 506">
                  <path id="Path_3411" data-name="Path 3411" d="M340.693-844.729c-1.384.465-4.307.634-5.984,1.342-1.152.486-4.931,2.329-8.314,3.883.4-1.708,3.7-5.679,5.217-7.682,1.5-1.987,1.583-4.247-.19-5.126h0l-.04-.02c.563-.031,1.006-.045,1.311-.033,1.8.069,2.593,1.657,3.025,3.039S340.693-844.729,340.693-844.729Z" fill="#fff"/>
                  <path id="Path_3412" data-name="Path 3412" d="M326.395-839.316a.188.188,0,0,1-.119-.042.187.187,0,0,1-.064-.189c.336-1.433,2.6-4.345,4.26-6.471.366-.469.711-.913.989-1.281a4.362,4.362,0,0,0,1.029-3.422,2.087,2.087,0,0,0-1.143-1.418l-.013-.007-.029-.014a.189.189,0,0,1-.109-.206.188.188,0,0,1,.175-.154c.621-.034,1.044-.045,1.329-.033,1.5.057,2.548,1.094,3.2,3.17.338,1.084,3.655,3.616,4.9,4.5a.189.189,0,0,1,.078.181.191.191,0,0,1-.127.151,17.765,17.765,0,0,1-2.416.5,17.509,17.509,0,0,0-3.555.832c-.6.254-1.964.9-3.543,1.647-1.48.7-3.158,1.5-4.765,2.234A.181.181,0,0,1,326.395-839.316Zm5.6-12.856a2.42,2.42,0,0,1,.86,1.364,4.667,4.667,0,0,1-1.1,3.736c-.28.371-.626.815-.993,1.286a34.545,34.545,0,0,0-4.062,5.931c1.484-.685,3.011-1.408,4.371-2.052,1.647-.781,2.949-1.4,3.558-1.654a17.8,17.8,0,0,1,3.639-.857c.741-.123,1.448-.24,2-.383-1.051-.765-4.351-3.247-4.733-4.469-.6-1.932-1.511-2.856-2.852-2.907C332.514-852.184,332.29-852.182,332-852.172Z" fill="#19191a"/>
                </g>
                <g id="Group_507" data-name="Group 507">
                  <path id="Path_3413" data-name="Path 3413" d="M345.369-841.109c-2.161-.69.36-2.694.432-4.7s1.513-4.212-10.083-3.521c.558.071,3.428.445,5.7.9l.161.033.237.049.231.051.076.017.149.033.145.034.072.018c.072.016.141.034.209.051l.135.035c.154.04.3.08.434.121l.058.017c.131.041.253.082.362.122a2.7,2.7,0,0,1,.387.174.666.666,0,0,1,.134.1.375.375,0,0,1,.1.16c.137.422-.606,1.037-1.473,1.58-.069.043-.138.085-.208.126-.092.056-.186.11-.279.164l-.209.117-.069.038c-.07.038-.137.075-.2.11s-.134.071-.2.1l-.191.1c-.187.093-.358.174-.5.239l-.065.028c-.045.019-.092.037-.141.055l-.076.026c-1.384.465-4.307.634-5.984,1.342-1.152.486-4.931,2.329-8.314,3.883-1.9.875-3.68,1.658-4.794,2.055-.089.031-.175.064-.26.1l-.122.051c-.086.038-.169.077-.251.118l-.023.01c-.062.031-.123.062-.183.1l-.108.06-.083.048c-.088.051-.174.105-.257.161-.029.018-.057.037-.085.056-.094.064-.184.13-.271.2-.031.023-.061.047-.091.071l-.068.055c-.153.125-.3.256-.431.388l-.049.049-.05.052c-.091.1-.178.19-.26.285-.023.026-.044.052-.066.078s-.042.053-.064.078-.041.052-.061.079c-.1.13-.2.259-.282.387-.018.025-.034.051-.051.076l-.049.076c-.1.151-.181.3-.256.44-.013.023-.025.047-.037.07s-.023.046-.034.069c-.069.136-.128.266-.176.384-.008.02-.017.039-.024.059-.037.093-.068.179-.093.257l-.015.047,0,.013c-.009.028-.016.055-.023.081a1.271,1.271,0,0,0-.044.223,9.726,9.726,0,0,1-1.027,2.283c7.461,0,14.468-3.589,18.078-4.561,2.841-.766,12.777-.46,12.739-1.047C347.477-837.207,347.363-840.471,345.369-841.109ZM325.9-835.334a1.408,1.408,0,0,1-1.38-1.433,1.408,1.408,0,0,1,1.38-1.434,1.408,1.408,0,0,1,1.38,1.434A1.408,1.408,0,0,1,325.9-835.334Z" fill="#fff"/>
                  <path id="Path_3414" data-name="Path 3414" d="M316.7-830.766a.189.189,0,0,1-.164-.1.19.19,0,0,1,0-.189,9.016,9.016,0,0,0,1-2.2,1.488,1.488,0,0,1,.05-.259q.01-.041.024-.084l.007-.022.015-.046c.025-.08.058-.17.1-.267.007-.019.016-.04.025-.061.052-.127.113-.26.181-.4l.007-.014.03-.059c.014-.026.025-.049.038-.071.08-.151.169-.3.262-.451l.05-.078.02-.03.033-.049c.093-.138.19-.272.289-.4l.065-.082.064-.078c.022-.027.046-.055.07-.082.083-.1.173-.2.266-.292l.052-.054.033-.032.016-.017c.146-.144.3-.278.444-.4.023-.02.048-.04.073-.059s.059-.048.092-.072c.088-.068.182-.136.278-.2l.091-.061c.08-.054.17-.11.263-.164l.085-.049.067-.037.041-.024c.066-.035.13-.068.2-.1l.015-.007c.1-.048.182-.088.264-.124l.128-.054c.092-.037.18-.071.267-.1.972-.346,2.535-1.016,4.779-2.048,1.605-.737,3.281-1.531,4.761-2.232,1.647-.781,2.949-1.4,3.558-1.654a17.8,17.8,0,0,1,3.639-.857,17.41,17.41,0,0,0,2.358-.489l.074-.026c.044-.016.088-.033.131-.051.021-.009.04-.016.058-.025.164-.074.331-.153.5-.237l.138-.069.053-.027c.063-.032.129-.066.195-.1l.2-.107.073-.04.206-.116c.091-.052.184-.106.275-.161.069-.041.137-.083.2-.125,1.454-.909,1.417-1.294,1.395-1.362a.19.19,0,0,0-.054-.08.47.47,0,0,0-.1-.071,2.652,2.652,0,0,0-.36-.16c-.1-.039-.221-.078-.352-.119l-.059-.018c-.132-.039-.276-.08-.425-.118l-.135-.035c-.065-.016-.133-.034-.2-.05l-.074-.018-.134-.031-.008,0-.148-.034-.073-.016-.222-.048-.01,0-.237-.05-.072-.014-.086-.018c-2.283-.46-5.138-.831-5.687-.9a.189.189,0,0,1-.164-.194.187.187,0,0,1,.177-.181c5.793-.346,8.843-.013,9.89,1.077a2.376,2.376,0,0,1,.437,2.074c-.019.187-.038.38-.045.565a5.817,5.817,0,0,1-.766,2.278c-.34.684-.662,1.33-.49,1.737a1.028,1.028,0,0,0,.694.495h0c1.351.432,2.116,1.988,2.275,4.624l.006.089a.255.255,0,0,1-.067.185c-.254.279-1.606.349-5.123.464a47.714,47.714,0,0,0-7.688.593c-.952.256-2.147.7-3.531,1.209C327.464-832.707,322.212-830.766,316.7-830.766Zm1.277-2.729,0,.012c-.008.025-.015.048-.021.071a1.15,1.15,0,0,0-.038.189,7.587,7.587,0,0,1-.889,2.078c5.324-.074,10.407-1.953,14.139-3.332,1.393-.515,2.6-.959,3.564-1.22a47.733,47.733,0,0,1,7.774-.606,32.483,32.483,0,0,0,4.821-.324v-.014c-.148-2.465-.826-3.908-2.014-4.289a1.361,1.361,0,0,1-.926-.706c-.24-.567.1-1.255.5-2.052a5.563,5.563,0,0,0,.727-2.123c.007-.2.027-.4.046-.59a2.06,2.06,0,0,0-.334-1.775c-.828-.863-3.25-1.206-7.565-1.059,1.106.163,2.48.382,3.694.627l.088.017.072.015.24.05.011,0,.223.048.042.009.031.007.152.035.008,0,.139.032.069.017.215.052.134.035c.154.04.3.081.443.124l.053.016c.143.044.268.086.378.127a2.95,2.95,0,0,1,.414.186.839.839,0,0,1,.171.124.56.56,0,0,1,.154.238c.15.462-.359,1.05-1.554,1.8q-.1.066-.21.129c-.093.056-.188.111-.283.165l-.21.119-.072.039c-.072.039-.139.076-.207.111s-.134.071-.2.105l-.054.027-.14.07c-.17.086-.341.167-.509.243-.021.01-.044.019-.068.029-.049.021-.1.04-.151.059l-.077.027a17.744,17.744,0,0,1-2.419.505,17.509,17.509,0,0,0-3.555.832c-.6.254-1.964.9-3.543,1.647-1.48.7-3.158,1.5-4.765,2.234-2.254,1.037-3.827,1.711-4.81,2.061-.081.029-.164.061-.252.1-.041.016-.08.033-.118.049-.076.034-.156.071-.243.114l-.016.008-.008,0c-.06.029-.118.059-.176.091l-.041.022-.062.035-.079.046c-.089.052-.172.1-.25.156-.03.019-.057.036-.082.054-.092.064-.181.128-.265.192l-.085.067c-.026.02-.047.038-.068.055-.141.116-.282.242-.418.377l-.018.018-.027.028-.047.047c-.092.1-.177.189-.257.282-.023.026-.043.05-.063.074l-.064.079c-.019.023-.037.046-.055.07-.1.124-.19.25-.278.381l-.05.075-.047.073c-.088.139-.172.283-.248.427-.013.023-.023.043-.033.063l-.005.008-.024.049-.008.015c-.064.128-.121.253-.169.371-.009.021-.017.038-.023.055-.036.09-.066.173-.089.247l-.014.044Zm0-.009v0Zm0,0h0Zm29.35-3.046h0ZM325.9-835.146a1.6,1.6,0,0,1-1.568-1.621,1.6,1.6,0,0,1,1.568-1.622,1.6,1.6,0,0,1,1.568,1.622A1.6,1.6,0,0,1,325.9-835.146Zm0-2.866a1.22,1.22,0,0,0-1.191,1.245,1.22,1.22,0,0,0,1.191,1.244,1.22,1.22,0,0,0,1.191-1.244A1.22,1.22,0,0,0,325.9-838.012Z" fill="#19191a"/>
                </g>
              </g>
            </g>
            <g id="Group_510" data-name="Group 510">
              <ellipse id="Ellipse_10" data-name="Ellipse 10" cx="1.38" cy="1.433" rx="1.38" ry="1.433" transform="translate(306.128 -838.201)" fill="#fff"/>
              <path id="Path_3415" data-name="Path 3415" d="M307.507-835.146a1.6,1.6,0,0,1-1.568-1.621,1.6,1.6,0,0,1,1.568-1.622,1.6,1.6,0,0,1,1.568,1.622A1.6,1.6,0,0,1,307.507-835.146Zm0-2.866a1.22,1.22,0,0,0-1.191,1.245,1.22,1.22,0,0,0,1.191,1.244,1.22,1.22,0,0,0,1.191-1.244A1.22,1.22,0,0,0,307.507-838.012Z" fill="#19191a"/>
            </g>
            <g id="Group_511" data-name="Group 511">
              <ellipse id="Ellipse_11" data-name="Ellipse 11" cx="1.38" cy="1.433" rx="1.38" ry="1.433" transform="translate(324.518 -838.201)" fill="#fff"/>
              <path id="Path_3416" data-name="Path 3416" d="M325.9-835.146a1.6,1.6,0,0,1-1.568-1.621,1.6,1.6,0,0,1,1.568-1.622,1.6,1.6,0,0,1,1.568,1.622A1.6,1.6,0,0,1,325.9-835.146Zm0-2.866a1.22,1.22,0,0,0-1.191,1.245,1.22,1.22,0,0,0,1.191,1.244,1.22,1.22,0,0,0,1.191-1.244A1.22,1.22,0,0,0,325.9-838.012Z" fill="#19191a"/>
            </g>
          </g>
          <g id="Group_519" data-name="Group 519">
            <g id="Group_514" data-name="Group 514">
              <g id="Group_513" data-name="Group 513">
                <path id="Path_3417" data-name="Path 3417" d="M322.712-803.954l1.708-.034c0-13.557.8-28.551,2.16-31.512.138-.3.282-.477.431-.516a1.753,1.753,0,0,0,.168-.759,1.3,1.3,0,0,0-1.1-1.432h-.027c-.379.029-.73.646-1.051,1.733C323.549-831.575,322.712-817.131,322.712-803.954Z" fill="#fff"/>
                <path id="Path_3418" data-name="Path 3418" d="M322.712-803.765a.189.189,0,0,1-.131-.054.187.187,0,0,1-.057-.135c0-6.675.213-13.556.6-19.376.419-6.3,1-10.868,1.692-13.2.366-1.239.753-1.832,1.218-1.868h.041a1.486,1.486,0,0,1,1.292,1.621,1.94,1.94,0,0,1-.186.841.185.185,0,0,1-.122.1c-.032.009-.147.063-.308.413-1.392,3.03-2.142,18.457-2.142,31.433a.188.188,0,0,1-.185.188l-1.708.035Zm3.357-34.254h-.007c-.127.01-.467.185-.885,1.6-1.486,5.032-2.268,20.005-2.276,32.274l1.331-.027c.007-12.978.769-28.341,2.177-31.406a1.156,1.156,0,0,1,.462-.584,1.589,1.589,0,0,0,.119-.612c0-.686-.41-1.244-.915-1.244Z" fill="#19191a"/>
              </g>
            </g>
            <g id="Group_518" data-name="Group 518">
              <g id="Group_515" data-name="Group 515">
                <path id="Path_3419" data-name="Path 3419" d="M310.693-803.954l-1.708-.034c0-13.557-.8-28.551-2.159-31.512-.139-.3-.283-.477-.432-.516a1.752,1.752,0,0,1-.167-.759,1.3,1.3,0,0,1,1.1-1.432h.027c.379.029.73.646,1.052,1.733C309.856-831.575,310.693-817.131,310.693-803.954Z" fill="#fff"/>
                <path id="Path_3420" data-name="Path 3420" d="M310.693-803.765h0l-1.708-.035a.188.188,0,0,1-.184-.188c0-12.976-.751-28.4-2.143-31.433-.16-.35-.276-.4-.307-.413a.181.181,0,0,1-.122-.1,1.94,1.94,0,0,1-.187-.841,1.487,1.487,0,0,1,1.292-1.621h.041c.465.036.852.629,1.218,1.868.688,2.329,1.273,6.892,1.692,13.2.387,5.82.6,12.7.6,19.376a.19.19,0,0,1-.056.135A.193.193,0,0,1,310.693-803.765Zm-1.52-.408,1.331.027c-.008-12.269-.789-27.241-2.276-32.274-.418-1.414-.758-1.589-.885-1.6h-.013c-.5,0-.915.558-.915,1.244a1.589,1.589,0,0,0,.119.612,1.162,1.162,0,0,1,.463.584C308.4-832.514,309.166-817.151,309.173-804.173Z" fill="#19191a"/>
              </g>
              <g id="Group_516" data-name="Group 516">
                <rect id="Rectangle_71" data-name="Rectangle 71" width="1.379" height="6.346" transform="translate(324.256 -797.608) rotate(-180)" fill="#fff"/>
                <path id="Path_3421" data-name="Path 3421" d="M324.256-797.42h-1.379a.189.189,0,0,1-.189-.188v-6.346a.189.189,0,0,1,.189-.188h1.379a.188.188,0,0,1,.188.188v6.346A.188.188,0,0,1,324.256-797.42Zm-1.191-.376h1v-5.969h-1Z" fill="#19191a"/>
              </g>
              <g id="Group_517" data-name="Group 517">
                <rect id="Rectangle_72" data-name="Rectangle 72" width="1.379" height="6.346" transform="translate(309.149 -803.954)" fill="#fff"/>
                <path id="Path_3422" data-name="Path 3422" d="M310.529-797.42h-1.38a.188.188,0,0,1-.188-.188v-6.346a.188.188,0,0,1,.188-.188h1.38a.188.188,0,0,1,.188.188v6.346A.188.188,0,0,1,310.529-797.42Zm-1.191-.376h1v-5.969h-1Z" fill="#19191a"/>
              </g>
            </g>
          </g>
        </g>
        <g id="Group_521" data-name="Group 521" style="mix-blend-mode: multiply;isolation: isolate">
          <rect id="Rectangle_73" data-name="Rectangle 73" width="49.271" height="34.776" rx="2.994" transform="translate(292.246 -753.362)" fill="#356671"/>
          <path id="Path_3423" data-name="Path 3423" d="M340.226-718.371H293.537a1.508,1.508,0,0,1-1.506-1.506v-32.194a1.508,1.508,0,0,1,1.506-1.507h46.689a1.509,1.509,0,0,1,1.507,1.507v32.194A1.508,1.508,0,0,1,340.226-718.371Zm-46.689-34.775a1.076,1.076,0,0,0-1.075,1.075v32.194a1.077,1.077,0,0,0,1.075,1.075h46.689a1.077,1.077,0,0,0,1.076-1.075v-32.194a1.077,1.077,0,0,0-1.076-1.075Z" fill="#231815"/>
        </g>
        <g id="Group_522" data-name="Group 522">
          <path id="Rectangle_74" data-name="Rectangle 74" d="M2.2,0H47.072a2.2,2.2,0,0,1,2.2,2.2v0A8.869,8.869,0,0,1,40.4,11.068H8.869A8.869,8.869,0,0,1,0,2.2v0A2.2,2.2,0,0,1,2.2,0Z" transform="translate(292.246 -753.844)" fill="#356671"/>
          <path id="Path_3424" data-name="Path 3424" d="M337.366-742.56H296.4a4.371,4.371,0,0,1-4.366-4.367v-5.887a1.246,1.246,0,0,1,1.245-1.245h47.212a1.246,1.246,0,0,1,1.245,1.245v5.887A4.372,4.372,0,0,1,337.366-742.56Zm-44.09-11.068a.815.815,0,0,0-.814.814v5.887a3.94,3.94,0,0,0,3.935,3.936h40.969a3.941,3.941,0,0,0,3.936-3.936v-5.887a.815.815,0,0,0-.814-.814Z" fill="#231815"/>
        </g>
      </g>
    </g>
  </g>
</svg>
