<svg xmlns="http://www.w3.org/2000/svg" width="408.706" height="227.871" viewBox="0 0 408.706 227.871">
  <g id="Group_50" data-name="Group 50" transform="translate(-160.581 295.284)">
    <g id="Group_38" data-name="Group 38" transform="translate(-211.158 602.082)">
      <path id="Path_9" data-name="Path 9" d="M654.094-688.629s-34.174,2.737-77.484,3.178-77.533-1.6-77.533-1.6c-2.838-17.736-1.88-111.2-1.88-111.2,14.854-29.331,7.519-64.743,7.519-64.743,5.048-2.375,32.686-13.1,36.009-14.386.214-.082,8.632-4.6,8.632-4.6,5.25,3.4,25.283,3.293,25.283,3.293s20.031-.3,25.211-3.808c0,0,8.513,4.349,8.739,4.43,3.418,1.246,31.193,11.375,36.28,13.643,0,0-6.613,35.554,8.838,64.576C653.708-799.848,656.571-706.419,654.094-688.629Z" fill="#fffefe" stroke="#19191a" stroke-linecap="round" stroke-linejoin="round" stroke-width="0.567"/>
      <path id="Path_10" data-name="Path 10" d="M654.095-688.629l.156,15.309s-32.491,3.01-77.482,3.469-77.536-1.889-77.536-1.889l-.156-15.309s34.223,2.04,77.533,1.6S654.095-688.629,654.095-688.629Z" fill="#fffefe" stroke="#19191a" stroke-linecap="round" stroke-linejoin="round" stroke-width="0.567"/>
      <path id="Path_11" data-name="Path 11" d="M497.2-798.252l-95.43,73.905c-3.239-6.288-18.739-20.5-18.739-20.5L504.716-862.995S512.052-827.584,497.2-798.252Z" fill="#fffefe" stroke="#19191a" stroke-linecap="round" stroke-linejoin="round" stroke-width="0.567"/>
      <path id="Path_12" data-name="Path 12" d="M401.767-724.347,390.292-714.8A103.862,103.862,0,0,1,380.2-724.35a104.017,104.017,0,0,1-8.059-9.865l10.888-10.636S398.528-730.635,401.767-724.347Z" fill="#fffefe" stroke="#19191a" stroke-linecap="round" stroke-linejoin="round" stroke-width="0.567"/>
      <line id="Line_90" data-name="Line 90" x1="0.156" y1="15.337" transform="translate(501.632 -686.91)" fill="#fffefe" stroke="#19191a" stroke-linecap="round" stroke-linejoin="round" stroke-width="0.567"/>
      <line id="Line_91" data-name="Line 91" x1="0.157" y1="15.36" transform="translate(503.905 -686.795)" fill="#fffefe" stroke="#19191a" stroke-linecap="round" stroke-linejoin="round" stroke-width="0.567"/>
      <line id="Line_92" data-name="Line 92" x1="0.157" y1="15.379" transform="translate(506.178 -686.687)" fill="#fffefe" stroke="#19191a" stroke-linecap="round" stroke-linejoin="round" stroke-width="0.567"/>
      <line id="Line_93" data-name="Line 93" x1="0.157" y1="15.398" transform="translate(508.451 -686.584)" fill="#fffefe" stroke="#19191a" stroke-linecap="round" stroke-linejoin="round" stroke-width="0.567"/>
      <line id="Line_94" data-name="Line 94" x1="0.157" y1="15.416" transform="translate(510.723 -686.488)" fill="#fffefe" stroke="#19191a" stroke-linecap="round" stroke-linejoin="round" stroke-width="0.567"/>
      <line id="Line_95" data-name="Line 95" x1="0.157" y1="15.432" transform="translate(512.996 -686.394)" fill="#fffefe" stroke="#19191a" stroke-linecap="round" stroke-linejoin="round" stroke-width="0.567"/>
      <line id="Line_96" data-name="Line 96" x1="0.157" y1="15.447" transform="translate(515.268 -686.307)" fill="#fffefe" stroke="#19191a" stroke-linecap="round" stroke-linejoin="round" stroke-width="0.567"/>
      <line id="Line_97" data-name="Line 97" x1="0.158" y1="15.463" transform="translate(517.541 -686.223)" fill="#fffefe" stroke="#19191a" stroke-linecap="round" stroke-linejoin="round" stroke-width="0.567"/>
      <line id="Line_98" data-name="Line 98" x1="0.158" y1="15.476" transform="translate(519.813 -686.145)" fill="#fffefe" stroke="#19191a" stroke-linecap="round" stroke-linejoin="round" stroke-width="0.567"/>
      <line id="Line_99" data-name="Line 99" x1="0.158" y1="15.488" transform="translate(522.086 -686.069)" fill="#fffefe" stroke="#19191a" stroke-linecap="round" stroke-linejoin="round" stroke-width="0.567"/>
      <line id="Line_100" data-name="Line 100" x1="0.158" y1="15.498" transform="translate(524.358 -685.997)" fill="#fffefe" stroke="#19191a" stroke-linecap="round" stroke-linejoin="round" stroke-width="0.567"/>
      <line id="Line_101" data-name="Line 101" x1="0.158" y1="15.509" transform="translate(526.63 -685.93)" fill="#fffefe" stroke="#19191a" stroke-linecap="round" stroke-linejoin="round" stroke-width="0.567"/>
      <line id="Line_102" data-name="Line 102" x1="0.158" y1="15.519" transform="translate(528.902 -685.867)" fill="#fffefe" stroke="#19191a" stroke-linecap="round" stroke-linejoin="round" stroke-width="0.567"/>
      <line id="Line_103" data-name="Line 103" x1="0.158" y1="15.529" transform="translate(531.174 -685.809)" fill="#fffefe" stroke="#19191a" stroke-linecap="round" stroke-linejoin="round" stroke-width="0.567"/>
      <line id="Line_104" data-name="Line 104" x1="0.158" y1="15.537" transform="translate(533.447 -685.753)" fill="#fffefe" stroke="#19191a" stroke-linecap="round" stroke-linejoin="round" stroke-width="0.567"/>
      <line id="Line_105" data-name="Line 105" x1="0.159" y1="15.546" transform="translate(535.719 -685.703)" fill="#fffefe" stroke="#19191a" stroke-linecap="round" stroke-linejoin="round" stroke-width="0.567"/>
      <line id="Line_106" data-name="Line 106" x1="0.159" y1="15.553" transform="translate(537.991 -685.654)" fill="#fffefe" stroke="#19191a" stroke-linecap="round" stroke-linejoin="round" stroke-width="0.567"/>
      <line id="Line_107" data-name="Line 107" x1="0.159" y1="15.559" transform="translate(540.263 -685.611)" fill="#fffefe" stroke="#19191a" stroke-linecap="round" stroke-linejoin="round" stroke-width="0.567"/>
      <line id="Line_108" data-name="Line 108" x1="0.159" y1="15.564" transform="translate(542.535 -685.571)" fill="#fffefe" stroke="#19191a" stroke-linecap="round" stroke-linejoin="round" stroke-width="0.567"/>
      <line id="Line_109" data-name="Line 109" x1="0.159" y1="15.57" transform="translate(544.807 -685.535)" fill="#fffefe" stroke="#19191a" stroke-linecap="round" stroke-linejoin="round" stroke-width="0.567"/>
      <line id="Line_110" data-name="Line 110" x1="0.159" y1="15.575" transform="translate(547.079 -685.503)" fill="#fffefe" stroke="#19191a" stroke-linecap="round" stroke-linejoin="round" stroke-width="0.567"/>
      <line id="Line_111" data-name="Line 111" x1="0.159" y1="15.579" transform="translate(549.351 -685.475)" fill="#fffefe" stroke="#19191a" stroke-linecap="round" stroke-linejoin="round" stroke-width="0.567"/>
      <line id="Line_112" data-name="Line 112" x1="0.159" y1="15.583" transform="translate(551.622 -685.451)" fill="#fffefe" stroke="#19191a" stroke-linecap="round" stroke-linejoin="round" stroke-width="0.567"/>
      <line id="Line_113" data-name="Line 113" x1="0.159" y1="15.586" transform="translate(553.895 -685.43)" fill="#fffefe" stroke="#19191a" stroke-linecap="round" stroke-linejoin="round" stroke-width="0.567"/>
      <line id="Line_114" data-name="Line 114" x1="0.159" y1="15.59" transform="translate(556.166 -685.414)" fill="#fffefe" stroke="#19191a" stroke-linecap="round" stroke-linejoin="round" stroke-width="0.567"/>
      <line id="Line_115" data-name="Line 115" x1="0.159" y1="15.593" transform="translate(558.438 -685.402)" fill="#fffefe" stroke="#19191a" stroke-linecap="round" stroke-linejoin="round" stroke-width="0.567"/>
      <line id="Line_116" data-name="Line 116" x1="0.159" y1="15.594" transform="translate(560.709 -685.394)" fill="#fffefe" stroke="#19191a" stroke-linecap="round" stroke-linejoin="round" stroke-width="0.567"/>
      <line id="Line_117" data-name="Line 117" x1="0.159" y1="15.595" transform="translate(562.982 -685.389)" fill="#fffefe" stroke="#19191a" stroke-linecap="round" stroke-linejoin="round" stroke-width="0.567"/>
      <line id="Line_118" data-name="Line 118" x1="0.159" y1="15.597" transform="translate(565.253 -685.388)" fill="#fffefe" stroke="#19191a" stroke-linecap="round" stroke-linejoin="round" stroke-width="0.567"/>
      <line id="Line_119" data-name="Line 119" x1="0.159" y1="15.598" transform="translate(567.525 -685.393)" fill="#fffefe" stroke="#19191a" stroke-linecap="round" stroke-linejoin="round" stroke-width="0.567"/>
      <line id="Line_120" data-name="Line 120" x1="0.159" y1="15.598" transform="translate(569.796 -685.4)" fill="#fffefe" stroke="#19191a" stroke-linecap="round" stroke-linejoin="round" stroke-width="0.567"/>
      <line id="Line_121" data-name="Line 121" x1="0.159" y1="15.6" transform="translate(572.068 -685.413)" fill="#fffefe" stroke="#19191a" stroke-linecap="round" stroke-linejoin="round" stroke-width="0.567"/>
      <line id="Line_122" data-name="Line 122" x1="0.159" y1="15.6" transform="translate(574.339 -685.43)" fill="#fffefe" stroke="#19191a" stroke-linecap="round" stroke-linejoin="round" stroke-width="0.567"/>
      <line id="Line_123" data-name="Line 123" x1="0.159" y1="15.6" transform="translate(576.611 -685.451)" fill="#fffefe" stroke="#19191a" stroke-linecap="round" stroke-linejoin="round" stroke-width="0.567"/>
      <line id="Line_124" data-name="Line 124" x1="0.159" y1="15.6" transform="translate(578.882 -685.476)" fill="#fffefe" stroke="#19191a" stroke-linecap="round" stroke-linejoin="round" stroke-width="0.567"/>
      <line id="Line_125" data-name="Line 125" x1="0.159" y1="15.6" transform="translate(581.152 -685.506)" fill="#fffefe" stroke="#19191a" stroke-linecap="round" stroke-linejoin="round" stroke-width="0.567"/>
      <line id="Line_126" data-name="Line 126" x1="0.159" y1="15.598" transform="translate(583.424 -685.539)" fill="#fffefe" stroke="#19191a" stroke-linecap="round" stroke-linejoin="round" stroke-width="0.567"/>
      <line id="Line_127" data-name="Line 127" x1="0.159" y1="15.598" transform="translate(585.695 -685.578)" fill="#fffefe" stroke="#19191a" stroke-linecap="round" stroke-linejoin="round" stroke-width="0.567"/>
      <line id="Line_128" data-name="Line 128" x1="0.159" y1="15.597" transform="translate(587.967 -685.62)" fill="#fffefe" stroke="#19191a" stroke-linecap="round" stroke-linejoin="round" stroke-width="0.567"/>
      <line id="Line_129" data-name="Line 129" x1="0.159" y1="15.595" transform="translate(590.237 -685.667)" fill="#fffefe" stroke="#19191a" stroke-linecap="round" stroke-linejoin="round" stroke-width="0.567"/>
      <line id="Line_130" data-name="Line 130" x1="0.159" y1="15.594" transform="translate(592.509 -685.718)" fill="#fffefe" stroke="#19191a" stroke-linecap="round" stroke-linejoin="round" stroke-width="0.567"/>
      <line id="Line_131" data-name="Line 131" x1="0.159" y1="15.592" transform="translate(594.78 -685.772)" fill="#fffefe" stroke="#19191a" stroke-linecap="round" stroke-linejoin="round" stroke-width="0.567"/>
      <line id="Line_132" data-name="Line 132" x1="0.159" y1="15.59" transform="translate(597.051 -685.831)" fill="#fffefe" stroke="#19191a" stroke-linecap="round" stroke-linejoin="round" stroke-width="0.567"/>
      <line id="Line_133" data-name="Line 133" x1="0.159" y1="15.586" transform="translate(599.322 -685.893)" fill="#fffefe" stroke="#19191a" stroke-linecap="round" stroke-linejoin="round" stroke-width="0.567"/>
      <line id="Line_134" data-name="Line 134" x1="0.159" y1="15.583" transform="translate(601.593 -685.96)" fill="#fffefe" stroke="#19191a" stroke-linecap="round" stroke-linejoin="round" stroke-width="0.567"/>
      <line id="Line_135" data-name="Line 135" x1="0.159" y1="15.579" transform="translate(603.864 -686.031)" fill="#fffefe" stroke="#19191a" stroke-linecap="round" stroke-linejoin="round" stroke-width="0.567"/>
      <line id="Line_136" data-name="Line 136" x1="0.159" y1="15.575" transform="translate(606.135 -686.105)" fill="#fffefe" stroke="#19191a" stroke-linecap="round" stroke-linejoin="round" stroke-width="0.567"/>
      <line id="Line_137" data-name="Line 137" x1="0.159" y1="15.57" transform="translate(608.405 -686.183)" fill="#fffefe" stroke="#19191a" stroke-linecap="round" stroke-linejoin="round" stroke-width="0.567"/>
      <line id="Line_138" data-name="Line 138" x1="0.159" y1="15.564" transform="translate(610.676 -686.265)" fill="#fffefe" stroke="#19191a" stroke-linecap="round" stroke-linejoin="round" stroke-width="0.567"/>
      <line id="Line_139" data-name="Line 139" x1="0.159" y1="15.559" transform="translate(612.947 -686.352)" fill="#fffefe" stroke="#19191a" stroke-linecap="round" stroke-linejoin="round" stroke-width="0.567"/>
      <line id="Line_140" data-name="Line 140" x1="0.159" y1="15.553" transform="translate(615.217 -686.442)" fill="#fffefe" stroke="#19191a" stroke-linecap="round" stroke-linejoin="round" stroke-width="0.567"/>
      <line id="Line_141" data-name="Line 141" x1="0.159" y1="15.546" transform="translate(617.488 -686.536)" fill="#fffefe" stroke="#19191a" stroke-linecap="round" stroke-linejoin="round" stroke-width="0.567"/>
      <line id="Line_142" data-name="Line 142" x1="0.158" y1="15.537" transform="translate(619.759 -686.633)" fill="#fffefe" stroke="#19191a" stroke-linecap="round" stroke-linejoin="round" stroke-width="0.567"/>
      <line id="Line_143" data-name="Line 143" x1="0.158" y1="15.529" transform="translate(622.03 -686.735)" fill="#fffefe" stroke="#19191a" stroke-linecap="round" stroke-linejoin="round" stroke-width="0.567"/>
      <line id="Line_144" data-name="Line 144" x1="0.158" y1="15.519" transform="translate(624.3 -686.84)" fill="#fffefe" stroke="#19191a" stroke-linecap="round" stroke-linejoin="round" stroke-width="0.567"/>
      <line id="Line_145" data-name="Line 145" x1="0.158" y1="15.509" transform="translate(626.571 -686.949)" fill="#fffefe" stroke="#19191a" stroke-linecap="round" stroke-linejoin="round" stroke-width="0.567"/>
      <line id="Line_146" data-name="Line 146" x1="0.158" y1="15.498" transform="translate(628.841 -687.063)" fill="#fffefe" stroke="#19191a" stroke-linecap="round" stroke-linejoin="round" stroke-width="0.567"/>
      <line id="Line_147" data-name="Line 147" x1="0.158" y1="15.488" transform="translate(631.112 -687.181)" fill="#fffefe" stroke="#19191a" stroke-linecap="round" stroke-linejoin="round" stroke-width="0.567"/>
      <line id="Line_148" data-name="Line 148" x1="0.158" y1="15.476" transform="translate(633.382 -687.303)" fill="#fffefe" stroke="#19191a" stroke-linecap="round" stroke-linejoin="round" stroke-width="0.567"/>
      <line id="Line_149" data-name="Line 149" x1="0.158" y1="15.463" transform="translate(635.651 -687.428)" fill="#fffefe" stroke="#19191a" stroke-linecap="round" stroke-linejoin="round" stroke-width="0.567"/>
      <line id="Line_150" data-name="Line 150" x1="0.157" y1="15.447" transform="translate(637.922 -687.557)" fill="#fffefe" stroke="#19191a" stroke-linecap="round" stroke-linejoin="round" stroke-width="0.567"/>
      <line id="Line_151" data-name="Line 151" x1="0.157" y1="15.432" transform="translate(640.192 -687.691)" fill="#fffefe" stroke="#19191a" stroke-linecap="round" stroke-linejoin="round" stroke-width="0.567"/>
      <line id="Line_152" data-name="Line 152" x1="0.157" y1="15.416" transform="translate(642.463 -687.831)" fill="#fffefe" stroke="#19191a" stroke-linecap="round" stroke-linejoin="round" stroke-width="0.567"/>
      <line id="Line_153" data-name="Line 153" x1="0.157" y1="15.398" transform="translate(644.733 -687.974)" fill="#fffefe" stroke="#19191a" stroke-linecap="round" stroke-linejoin="round" stroke-width="0.567"/>
      <line id="Line_154" data-name="Line 154" x1="0.157" y1="15.379" transform="translate(647.003 -688.123)" fill="#fffefe" stroke="#19191a" stroke-linecap="round" stroke-linejoin="round" stroke-width="0.567"/>
      <line id="Line_155" data-name="Line 155" x1="0.157" y1="15.36" transform="translate(649.273 -688.277)" fill="#fffefe" stroke="#19191a" stroke-linecap="round" stroke-linejoin="round" stroke-width="0.567"/>
      <line id="Line_156" data-name="Line 156" x1="0.156" y1="15.337" transform="translate(651.543 -688.438)" fill="#fffefe" stroke="#19191a" stroke-linecap="round" stroke-linejoin="round" stroke-width="0.567"/>
      <line id="Line_157" data-name="Line 157" y1="10.636" x2="10.888" transform="translate(372.14 -744.851)" fill="#fffefe" stroke="#19191a" stroke-linecap="round" stroke-linejoin="round" stroke-width="0.567"/>
      <line id="Line_158" data-name="Line 158" x1="11.22" y2="10.961" transform="translate(373.655 -743.126)" fill="#fffefe" stroke="#19191a" stroke-linecap="round" stroke-linejoin="round" stroke-width="0.567"/>
      <line id="Line_159" data-name="Line 159" x1="11.489" y2="11.223" transform="translate(375.213 -741.381)" fill="#fffefe" stroke="#19191a" stroke-linecap="round" stroke-linejoin="round" stroke-width="0.567"/>
      <line id="Line_160" data-name="Line 160" x1="11.696" y2="11.426" transform="translate(376.815 -739.622)" fill="#fffefe" stroke="#19191a" stroke-linecap="round" stroke-linejoin="round" stroke-width="0.567"/>
      <line id="Line_161" data-name="Line 161" x1="11.841" y2="11.567" transform="translate(378.463 -737.843)" fill="#fffefe" stroke="#19191a" stroke-linecap="round" stroke-linejoin="round" stroke-width="0.567"/>
      <line id="Line_162" data-name="Line 162" x1="11.922" y2="11.646" transform="translate(380.153 -736.045)" fill="#fffefe" stroke="#19191a" stroke-linecap="round" stroke-linejoin="round" stroke-width="0.567"/>
      <line id="Line_163" data-name="Line 163" x1="11.936" y2="11.658" transform="translate(381.888 -734.225)" fill="#fffefe" stroke="#19191a" stroke-linecap="round" stroke-linejoin="round" stroke-width="0.567"/>
      <line id="Line_164" data-name="Line 164" x1="11.875" y2="11.6" transform="translate(383.667 -732.376)" fill="#fffefe" stroke="#19191a" stroke-linecap="round" stroke-linejoin="round" stroke-width="0.567"/>
      <line id="Line_165" data-name="Line 165" x1="11.734" y2="11.463" transform="translate(385.49 -730.491)" fill="#fffefe" stroke="#19191a" stroke-linecap="round" stroke-linejoin="round" stroke-width="0.567"/>
      <line id="Line_166" data-name="Line 166" x1="11.498" y2="11.229" transform="translate(387.355 -728.552)" fill="#fffefe" stroke="#19191a" stroke-linecap="round" stroke-linejoin="round" stroke-width="0.567"/>
      <line id="Line_167" data-name="Line 167" x1="11.503" y2="10.552" transform="translate(388.892 -726.532)" fill="#fffefe" stroke="#19191a" stroke-linecap="round" stroke-linejoin="round" stroke-width="0.567"/>
      <path id="Path_13" data-name="Path 13" d="M653.707-799.848,750.624-727.9c3.111-6.353,18.317-20.881,18.317-20.881L644.87-864.424S638.257-828.87,653.707-799.848Z" fill="#fffefe" stroke="#19191a" stroke-linecap="round" stroke-linejoin="round" stroke-width="0.567"/>
      <path id="Path_14" data-name="Path 14" d="M750.624-727.9q5.835,4.653,11.668,9.308a103.9,103.9,0,0,0,9.9-9.751,104.026,104.026,0,0,0,7.856-10.027l-11.1-10.411S753.735-734.257,750.624-727.9Z" fill="#fffefe" stroke="#19191a" stroke-linecap="round" stroke-linejoin="round" stroke-width="0.567"/>
      <line id="Line_168" data-name="Line 168" x1="11.103" y1="10.412" transform="translate(768.941 -748.785)" fill="#fffefe" stroke="#19191a" stroke-linecap="round" stroke-linejoin="round" stroke-width="0.567"/>
      <line id="Line_169" data-name="Line 169" x1="11.441" y1="10.73" transform="translate(767.13 -747.023)" fill="#fffefe" stroke="#19191a" stroke-linecap="round" stroke-linejoin="round" stroke-width="0.567"/>
      <line id="Line_170" data-name="Line 170" x1="11.715" y1="10.986" transform="translate(765.339 -745.242)" fill="#fffefe" stroke="#19191a" stroke-linecap="round" stroke-linejoin="round" stroke-width="0.567"/>
      <line id="Line_171" data-name="Line 171" x1="11.927" y1="11.185" transform="translate(763.566 -743.446)" fill="#fffefe" stroke="#19191a" stroke-linecap="round" stroke-linejoin="round" stroke-width="0.567"/>
      <line id="Line_172" data-name="Line 172" x1="12.074" y1="11.323" transform="translate(761.81 -741.631)" fill="#fffefe" stroke="#19191a" stroke-linecap="round" stroke-linejoin="round" stroke-width="0.567"/>
      <line id="Line_173" data-name="Line 173" x1="12.157" y1="11.4" transform="translate(760.075 -739.797)" fill="#fffefe" stroke="#19191a" stroke-linecap="round" stroke-linejoin="round" stroke-width="0.567"/>
      <line id="Line_174" data-name="Line 174" x1="12.171" y1="11.412" transform="translate(758.364 -737.942)" fill="#fffefe" stroke="#19191a" stroke-linecap="round" stroke-linejoin="round" stroke-width="0.567"/>
      <line id="Line_175" data-name="Line 175" x1="12.109" y1="11.355" transform="translate(756.683 -736.058)" fill="#fffefe" stroke="#19191a" stroke-linecap="round" stroke-linejoin="round" stroke-width="0.567"/>
      <line id="Line_176" data-name="Line 176" x1="11.965" y1="11.221" transform="translate(755.041 -734.139)" fill="#fffefe" stroke="#19191a" stroke-linecap="round" stroke-linejoin="round" stroke-width="0.567"/>
      <line id="Line_177" data-name="Line 177" x1="11.724" y1="10.993" transform="translate(753.452 -732.167)" fill="#fffefe" stroke="#19191a" stroke-linecap="round" stroke-linejoin="round" stroke-width="0.567"/>
      <line id="Line_178" data-name="Line 178" x1="11.716" y1="10.315" transform="translate(751.951 -730.116)" fill="#fffefe" stroke="#19191a" stroke-linecap="round" stroke-linejoin="round" stroke-width="0.567"/>
    </g>
    <g id="Group_44" data-name="Group 44" transform="translate(-211.158 602.082)">
      <path id="Path_29" data-name="Path 29" d="M616.524-875.077a.085.085,0,0,1-.047.076c-.068,18.648-21.5,40.424-41.991,40.424S532.563-856.8,532.494-875a.086.086,0,0,1-.046-.076c.057-.858.367-6.146,3.077-7,2.936-.92-.489-3.591-.588-6.26s-2.056-5.616,13.705-4.7c.587-1.842,1.664-3.96,4.111-4.051.414-.016,1.745.061,1.727.07.738.4,9.127,2.405,20.006,2.405s19.268-2,20.005-2.405c-.017-.009,1.313-.086,1.727-.07,2.448.091,3.524,2.209,4.112,4.051,15.761-.921,13.8,2.025,13.7,4.7s-3.524,5.34-.588,6.26C616.157-881.223,616.466-875.935,616.524-875.077Z" fill="#fffefe" stroke="#19191a" stroke-linecap="round" stroke-linejoin="round" stroke-width="0.567"/>
      <path id="Path_30" data-name="Path 30" d="M541.661-884.451c3.45.6,12.519,3.818,16.856,5.525s-6.8.3-18.039-.6" fill="#fffefe" stroke="#19191a" stroke-linecap="round" stroke-linejoin="round" stroke-width="0.567"/>
      <path id="Path_31" data-name="Path 31" d="M607.311-884.451c-3.45.6-12.519,3.818-16.856,5.525s6.8.3,18.039-.6" fill="#fffefe" stroke="#19191a" stroke-linecap="round" stroke-linejoin="round" stroke-width="0.567"/>
      <path id="Path_32" data-name="Path 32" d="M551.42-891.884a72.542,72.542,0,0,0,46.132,0" fill="#fffefe" stroke="#19191a" stroke-linecap="round" stroke-linejoin="round" stroke-width="0.567"/>
    </g>
    <line id="Line_179" data-name="Line 179" y1="59.97" transform="translate(363.328 -292.514)" fill="#fffefe" stroke="#19191a" stroke-linecap="round" stroke-linejoin="round" stroke-width="0.567"/>
  </g>
</svg>
