<svg xmlns="http://www.w3.org/2000/svg" width="408.727" height="227.13" viewBox="0 0 408.727 227.13">
  <g id="Group_49" data-name="Group 49" transform="translate(251.401 294.736)">
    <g id="Group_37" data-name="Group 37" transform="translate(-211.158 602.082)">
      <path id="Path_3" data-name="Path 3" d="M241.633-687.961s-34.2,2.388-77.513,2.388-77.513-2.388-77.513-2.388c-2.656-17.764-.746-111.217-.746-111.217,15.153-29.178,8.179-64.663,8.179-64.663,5.4-2.473,36.482-14.141,36.482-14.141l8.35-4.39c5.215,3.455,25.248,3.55,25.248,3.55s20.034-.095,25.249-3.55l8.349,4.39S228.8-866.314,234.2-863.841c0,0-6.976,35.485,8.178,64.663C242.38-799.178,244.291-705.725,241.633-687.961Z" fill="#fffefe" stroke="#19191a" stroke-linecap="round" stroke-linejoin="round" stroke-width="0.567"/>
      <path id="Path_4" data-name="Path 4" d="M241.633-687.961v15.31s-32.52,2.679-77.513,2.679-77.512-2.679-77.512-2.679v-15.31s34.2,2.389,77.512,2.389S241.633-687.961,241.633-687.961Z" fill="#fffefe" stroke="#19191a" stroke-linecap="round" stroke-linejoin="round" stroke-width="0.567"/>
      <path id="Path_5" data-name="Path 5" d="M85.861-799.178-10.317-726.25c-3.175-6.321-18.529-20.693-18.529-20.693L94.04-863.841S101.015-828.357,85.861-799.178Z" fill="#fffefe" stroke="#19191a" stroke-linecap="round" stroke-linejoin="round" stroke-width="0.567"/>
      <path id="Path_6" data-name="Path 6" d="M-10.317-726.25l-11.572,9.427a103.66,103.66,0,0,1-10-9.65,103.949,103.949,0,0,1-7.958-9.946l11-10.524S-13.492-732.571-10.317-726.25Z" fill="#fffefe" stroke="#19191a" stroke-linecap="round" stroke-linejoin="round" stroke-width="0.567"/>
      <line id="Line_1" data-name="Line 1" y1="15.338" transform="translate(89.161 -687.796)" fill="#fffefe" stroke="#19191a" stroke-linecap="round" stroke-linejoin="round" stroke-width="0.567"/>
      <line id="Line_2" data-name="Line 2" y1="15.36" transform="translate(91.433 -687.658)" fill="#fffefe" stroke="#19191a" stroke-linecap="round" stroke-linejoin="round" stroke-width="0.567"/>
      <line id="Line_3" data-name="Line 3" y1="15.38" transform="translate(93.704 -687.527)" fill="#fffefe" stroke="#19191a" stroke-linecap="round" stroke-linejoin="round" stroke-width="0.567"/>
      <line id="Line_4" data-name="Line 4" y1="15.399" transform="translate(95.976 -687.401)" fill="#fffefe" stroke="#19191a" stroke-linecap="round" stroke-linejoin="round" stroke-width="0.567"/>
      <line id="Line_5" data-name="Line 5" y1="15.417" transform="translate(98.247 -687.281)" fill="#fffefe" stroke="#19191a" stroke-linecap="round" stroke-linejoin="round" stroke-width="0.567"/>
      <line id="Line_6" data-name="Line 6" y1="15.433" transform="translate(100.519 -687.165)" fill="#fffefe" stroke="#19191a" stroke-linecap="round" stroke-linejoin="round" stroke-width="0.567"/>
      <line id="Line_7" data-name="Line 7" y1="15.448" transform="translate(102.79 -687.054)" fill="#fffefe" stroke="#19191a" stroke-linecap="round" stroke-linejoin="round" stroke-width="0.567"/>
      <line id="Line_8" data-name="Line 8" y1="15.463" transform="translate(105.062 -686.948)" fill="#fffefe" stroke="#19191a" stroke-linecap="round" stroke-linejoin="round" stroke-width="0.567"/>
      <line id="Line_9" data-name="Line 9" y1="15.477" transform="translate(107.333 -686.846)" fill="#fffefe" stroke="#19191a" stroke-linecap="round" stroke-linejoin="round" stroke-width="0.567"/>
      <line id="Line_10" data-name="Line 10" y1="15.488" transform="translate(109.605 -686.747)" fill="#fffefe" stroke="#19191a" stroke-linecap="round" stroke-linejoin="round" stroke-width="0.567"/>
      <line id="Line_11" data-name="Line 11" y1="15.499" transform="translate(111.876 -686.652)" fill="#fffefe" stroke="#19191a" stroke-linecap="round" stroke-linejoin="round" stroke-width="0.567"/>
      <line id="Line_12" data-name="Line 12" y1="15.51" transform="translate(114.147 -686.562)" fill="#fffefe" stroke="#19191a" stroke-linecap="round" stroke-linejoin="round" stroke-width="0.567"/>
      <line id="Line_13" data-name="Line 13" y1="15.52" transform="translate(116.419 -686.476)" fill="#fffefe" stroke="#19191a" stroke-linecap="round" stroke-linejoin="round" stroke-width="0.567"/>
      <line id="Line_14" data-name="Line 14" y1="15.53" transform="translate(118.69 -686.394)" fill="#fffefe" stroke="#19191a" stroke-linecap="round" stroke-linejoin="round" stroke-width="0.567"/>
      <line id="Line_15" data-name="Line 15" y1="15.538" transform="translate(120.962 -686.315)" fill="#fffefe" stroke="#19191a" stroke-linecap="round" stroke-linejoin="round" stroke-width="0.567"/>
      <line id="Line_16" data-name="Line 16" y1="15.547" transform="translate(123.233 -686.241)" fill="#fffefe" stroke="#19191a" stroke-linecap="round" stroke-linejoin="round" stroke-width="0.567"/>
      <line id="Line_17" data-name="Line 17" y1="15.554" transform="translate(125.505 -686.17)" fill="#fffefe" stroke="#19191a" stroke-linecap="round" stroke-linejoin="round" stroke-width="0.567"/>
      <line id="Line_18" data-name="Line 18" y1="15.56" transform="translate(127.776 -686.103)" fill="#fffefe" stroke="#19191a" stroke-linecap="round" stroke-linejoin="round" stroke-width="0.567"/>
      <line id="Line_19" data-name="Line 19" y1="15.565" transform="translate(130.048 -686.04)" fill="#fffefe" stroke="#19191a" stroke-linecap="round" stroke-linejoin="round" stroke-width="0.567"/>
      <line id="Line_20" data-name="Line 20" y1="15.571" transform="translate(132.319 -685.981)" fill="#fffefe" stroke="#19191a" stroke-linecap="round" stroke-linejoin="round" stroke-width="0.567"/>
      <line id="Line_21" data-name="Line 21" y1="15.575" transform="translate(134.592 -685.926)" fill="#fffefe" stroke="#19191a" stroke-linecap="round" stroke-linejoin="round" stroke-width="0.567"/>
      <line id="Line_22" data-name="Line 22" y1="15.58" transform="translate(136.862 -685.875)" fill="#fffefe" stroke="#19191a" stroke-linecap="round" stroke-linejoin="round" stroke-width="0.567"/>
      <line id="Line_23" data-name="Line 23" y1="15.583" transform="translate(139.133 -685.827)" fill="#fffefe" stroke="#19191a" stroke-linecap="round" stroke-linejoin="round" stroke-width="0.567"/>
      <line id="Line_24" data-name="Line 24" y1="15.587" transform="translate(141.406 -685.783)" fill="#fffefe" stroke="#19191a" stroke-linecap="round" stroke-linejoin="round" stroke-width="0.567"/>
      <line id="Line_25" data-name="Line 25" y1="15.591" transform="translate(143.677 -685.745)" fill="#fffefe" stroke="#19191a" stroke-linecap="round" stroke-linejoin="round" stroke-width="0.567"/>
      <line id="Line_26" data-name="Line 26" y1="15.594" transform="translate(145.949 -685.71)" fill="#fffefe" stroke="#19191a" stroke-linecap="round" stroke-linejoin="round" stroke-width="0.567"/>
      <line id="Line_27" data-name="Line 27" y1="15.595" transform="translate(148.22 -685.678)" fill="#fffefe" stroke="#19191a" stroke-linecap="round" stroke-linejoin="round" stroke-width="0.567"/>
      <line id="Line_28" data-name="Line 28" y1="15.596" transform="translate(150.492 -685.65)" fill="#fffefe" stroke="#19191a" stroke-linecap="round" stroke-linejoin="round" stroke-width="0.567"/>
      <line id="Line_29" data-name="Line 29" y1="15.598" transform="translate(152.763 -685.626)" fill="#fffefe" stroke="#19191a" stroke-linecap="round" stroke-linejoin="round" stroke-width="0.567"/>
      <line id="Line_30" data-name="Line 30" y1="15.599" transform="translate(155.035 -685.608)" fill="#fffefe" stroke="#19191a" stroke-linecap="round" stroke-linejoin="round" stroke-width="0.567"/>
      <line id="Line_31" data-name="Line 31" y1="15.599" transform="translate(157.306 -685.592)" fill="#fffefe" stroke="#19191a" stroke-linecap="round" stroke-linejoin="round" stroke-width="0.567"/>
      <line id="Line_32" data-name="Line 32" y1="15.6" transform="translate(159.578 -685.582)" fill="#fffefe" stroke="#19191a" stroke-linecap="round" stroke-linejoin="round" stroke-width="0.567"/>
      <line id="Line_33" data-name="Line 33" y1="15.6" transform="translate(161.849 -685.575)" fill="#fffefe" stroke="#19191a" stroke-linecap="round" stroke-linejoin="round" stroke-width="0.567"/>
      <line id="Line_34" data-name="Line 34" y1="15.6" transform="translate(164.121 -685.573)" fill="#fffefe" stroke="#19191a" stroke-linecap="round" stroke-linejoin="round" stroke-width="0.567"/>
      <line id="Line_35" data-name="Line 35" y1="15.6" transform="translate(166.392 -685.575)" fill="#fffefe" stroke="#19191a" stroke-linecap="round" stroke-linejoin="round" stroke-width="0.567"/>
      <line id="Line_36" data-name="Line 36" y1="15.6" transform="translate(168.663 -685.582)" fill="#fffefe" stroke="#19191a" stroke-linecap="round" stroke-linejoin="round" stroke-width="0.567"/>
      <line id="Line_37" data-name="Line 37" y1="15.599" transform="translate(170.935 -685.592)" fill="#fffefe" stroke="#19191a" stroke-linecap="round" stroke-linejoin="round" stroke-width="0.567"/>
      <line id="Line_38" data-name="Line 38" y1="15.599" transform="translate(173.206 -685.608)" fill="#fffefe" stroke="#19191a" stroke-linecap="round" stroke-linejoin="round" stroke-width="0.567"/>
      <line id="Line_39" data-name="Line 39" y1="15.598" transform="translate(175.478 -685.626)" fill="#fffefe" stroke="#19191a" stroke-linecap="round" stroke-linejoin="round" stroke-width="0.567"/>
      <line id="Line_40" data-name="Line 40" y1="15.596" transform="translate(177.749 -685.65)" fill="#fffefe" stroke="#19191a" stroke-linecap="round" stroke-linejoin="round" stroke-width="0.567"/>
      <line id="Line_41" data-name="Line 41" y1="15.595" transform="translate(180.021 -685.678)" fill="#fffefe" stroke="#19191a" stroke-linecap="round" stroke-linejoin="round" stroke-width="0.567"/>
      <line id="Line_42" data-name="Line 42" y1="15.592" transform="translate(182.292 -685.708)" fill="#fffefe" stroke="#19191a" stroke-linecap="round" stroke-linejoin="round" stroke-width="0.567"/>
      <line id="Line_43" data-name="Line 43" y1="15.591" transform="translate(184.564 -685.745)" fill="#fffefe" stroke="#19191a" stroke-linecap="round" stroke-linejoin="round" stroke-width="0.567"/>
      <line id="Line_44" data-name="Line 44" y1="15.587" transform="translate(186.835 -685.783)" fill="#fffefe" stroke="#19191a" stroke-linecap="round" stroke-linejoin="round" stroke-width="0.567"/>
      <line id="Line_45" data-name="Line 45" y1="15.583" transform="translate(189.107 -685.827)" fill="#fffefe" stroke="#19191a" stroke-linecap="round" stroke-linejoin="round" stroke-width="0.567"/>
      <line id="Line_46" data-name="Line 46" y1="15.58" transform="translate(191.378 -685.875)" fill="#fffefe" stroke="#19191a" stroke-linecap="round" stroke-linejoin="round" stroke-width="0.567"/>
      <line id="Line_47" data-name="Line 47" y1="15.575" transform="translate(193.65 -685.926)" fill="#fffefe" stroke="#19191a" stroke-linecap="round" stroke-linejoin="round" stroke-width="0.567"/>
      <line id="Line_48" data-name="Line 48" y1="15.571" transform="translate(195.921 -685.981)" fill="#fffefe" stroke="#19191a" stroke-linecap="round" stroke-linejoin="round" stroke-width="0.567"/>
      <line id="Line_49" data-name="Line 49" y1="15.565" transform="translate(198.192 -686.04)" fill="#fffefe" stroke="#19191a" stroke-linecap="round" stroke-linejoin="round" stroke-width="0.567"/>
      <line id="Line_50" data-name="Line 50" y1="15.56" transform="translate(200.464 -686.103)" fill="#fffefe" stroke="#19191a" stroke-linecap="round" stroke-linejoin="round" stroke-width="0.567"/>
      <line id="Line_51" data-name="Line 51" y1="15.554" transform="translate(202.735 -686.17)" fill="#fffefe" stroke="#19191a" stroke-linecap="round" stroke-linejoin="round" stroke-width="0.567"/>
      <line id="Line_52" data-name="Line 52" y1="15.547" transform="translate(205.007 -686.241)" fill="#fffefe" stroke="#19191a" stroke-linecap="round" stroke-linejoin="round" stroke-width="0.567"/>
      <line id="Line_53" data-name="Line 53" y1="15.538" transform="translate(207.278 -686.315)" fill="#fffefe" stroke="#19191a" stroke-linecap="round" stroke-linejoin="round" stroke-width="0.567"/>
      <line id="Line_54" data-name="Line 54" y1="15.53" transform="translate(209.551 -686.394)" fill="#fffefe" stroke="#19191a" stroke-linecap="round" stroke-linejoin="round" stroke-width="0.567"/>
      <line id="Line_55" data-name="Line 55" y1="15.52" transform="translate(211.822 -686.476)" fill="#fffefe" stroke="#19191a" stroke-linecap="round" stroke-linejoin="round" stroke-width="0.567"/>
      <line id="Line_56" data-name="Line 56" y1="15.51" transform="translate(214.094 -686.562)" fill="#fffefe" stroke="#19191a" stroke-linecap="round" stroke-linejoin="round" stroke-width="0.567"/>
      <line id="Line_57" data-name="Line 57" y1="15.499" transform="translate(216.365 -686.652)" fill="#fffefe" stroke="#19191a" stroke-linecap="round" stroke-linejoin="round" stroke-width="0.567"/>
      <line id="Line_58" data-name="Line 58" y1="15.488" transform="translate(218.637 -686.747)" fill="#fffefe" stroke="#19191a" stroke-linecap="round" stroke-linejoin="round" stroke-width="0.567"/>
      <line id="Line_59" data-name="Line 59" y1="15.477" transform="translate(220.908 -686.846)" fill="#fffefe" stroke="#19191a" stroke-linecap="round" stroke-linejoin="round" stroke-width="0.567"/>
      <line id="Line_60" data-name="Line 60" y1="15.463" transform="translate(223.179 -686.948)" fill="#fffefe" stroke="#19191a" stroke-linecap="round" stroke-linejoin="round" stroke-width="0.567"/>
      <line id="Line_61" data-name="Line 61" y1="15.448" transform="translate(225.451 -687.054)" fill="#fffefe" stroke="#19191a" stroke-linecap="round" stroke-linejoin="round" stroke-width="0.567"/>
      <line id="Line_62" data-name="Line 62" y1="15.433" transform="translate(227.722 -687.165)" fill="#fffefe" stroke="#19191a" stroke-linecap="round" stroke-linejoin="round" stroke-width="0.567"/>
      <line id="Line_63" data-name="Line 63" y1="15.417" transform="translate(229.994 -687.281)" fill="#fffefe" stroke="#19191a" stroke-linecap="round" stroke-linejoin="round" stroke-width="0.567"/>
      <line id="Line_64" data-name="Line 64" y1="15.399" transform="translate(232.265 -687.401)" fill="#fffefe" stroke="#19191a" stroke-linecap="round" stroke-linejoin="round" stroke-width="0.567"/>
      <line id="Line_65" data-name="Line 65" y1="15.38" transform="translate(234.537 -687.527)" fill="#fffefe" stroke="#19191a" stroke-linecap="round" stroke-linejoin="round" stroke-width="0.567"/>
      <line id="Line_66" data-name="Line 66" y1="15.36" transform="translate(236.808 -687.658)" fill="#fffefe" stroke="#19191a" stroke-linecap="round" stroke-linejoin="round" stroke-width="0.567"/>
      <line id="Line_67" data-name="Line 67" y1="15.338" transform="translate(239.08 -687.796)" fill="#fffefe" stroke="#19191a" stroke-linecap="round" stroke-linejoin="round" stroke-width="0.567"/>
      <line id="Line_68" data-name="Line 68" y1="10.524" x2="10.996" transform="translate(-39.842 -746.943)" fill="#fffefe" stroke="#19191a" stroke-linecap="round" stroke-linejoin="round" stroke-width="0.567"/>
      <line id="Line_69" data-name="Line 69" x1="11.331" y2="10.846" transform="translate(-38.349 -745.2)" fill="#fffefe" stroke="#19191a" stroke-linecap="round" stroke-linejoin="round" stroke-width="0.567"/>
      <line id="Line_70" data-name="Line 70" x1="11.603" y2="11.105" transform="translate(-36.811 -743.437)" fill="#fffefe" stroke="#19191a" stroke-linecap="round" stroke-linejoin="round" stroke-width="0.567"/>
      <line id="Line_71" data-name="Line 71" x1="11.812" y2="11.306" transform="translate(-35.229 -741.659)" fill="#fffefe" stroke="#19191a" stroke-linecap="round" stroke-linejoin="round" stroke-width="0.567"/>
      <line id="Line_72" data-name="Line 72" x1="11.958" y2="11.445" transform="translate(-33.601 -739.862)" fill="#fffefe" stroke="#19191a" stroke-linecap="round" stroke-linejoin="round" stroke-width="0.567"/>
      <line id="Line_73" data-name="Line 73" x1="12.041" y2="11.523" transform="translate(-31.929 -738.046)" fill="#fffefe" stroke="#19191a" stroke-linecap="round" stroke-linejoin="round" stroke-width="0.567"/>
      <line id="Line_74" data-name="Line 74" x1="12.054" y2="11.536" transform="translate(-30.213 -736.208)" fill="#fffefe" stroke="#19191a" stroke-linecap="round" stroke-linejoin="round" stroke-width="0.567"/>
      <line id="Line_75" data-name="Line 75" x1="11.993" y2="11.478" transform="translate(-28.452 -734.341)" fill="#fffefe" stroke="#19191a" stroke-linecap="round" stroke-linejoin="round" stroke-width="0.567"/>
      <line id="Line_76" data-name="Line 76" x1="11.85" y2="11.342" transform="translate(-26.647 -732.439)" fill="#fffefe" stroke="#19191a" stroke-linecap="round" stroke-linejoin="round" stroke-width="0.567"/>
      <line id="Line_77" data-name="Line 77" x1="11.612" y2="11.112" transform="translate(-24.8 -730.484)" fill="#fffefe" stroke="#19191a" stroke-linecap="round" stroke-linejoin="round" stroke-width="0.567"/>
      <line id="Line_78" data-name="Line 78" x1="11.61" y2="10.434" transform="translate(-23.277 -728.448)" fill="#fffefe" stroke="#19191a" stroke-linecap="round" stroke-linejoin="round" stroke-width="0.567"/>
      <path id="Path_7" data-name="Path 7" d="M242.38-799.178l96.178,72.928c3.175-6.321,18.529-20.693,18.529-20.693L234.2-863.841S227.226-828.357,242.38-799.178Z" fill="#fffefe" stroke="#19191a" stroke-linecap="round" stroke-linejoin="round" stroke-width="0.567"/>
      <path id="Path_8" data-name="Path 8" d="M338.558-726.25l11.572,9.427a103.777,103.777,0,0,0,9.995-9.65,103.953,103.953,0,0,0,7.958-9.946l-11-10.524S341.733-732.571,338.558-726.25Z" fill="#fffefe" stroke="#19191a" stroke-linecap="round" stroke-linejoin="round" stroke-width="0.567"/>
      <line id="Line_79" data-name="Line 79" x1="10.996" y1="10.524" transform="translate(357.087 -746.943)" fill="#fffefe" stroke="#19191a" stroke-linecap="round" stroke-linejoin="round" stroke-width="0.567"/>
      <line id="Line_80" data-name="Line 80" x1="11.331" y1="10.846" transform="translate(355.258 -745.2)" fill="#fffefe" stroke="#19191a" stroke-linecap="round" stroke-linejoin="round" stroke-width="0.567"/>
      <line id="Line_81" data-name="Line 81" x1="11.603" y1="11.105" transform="translate(353.449 -743.437)" fill="#fffefe" stroke="#19191a" stroke-linecap="round" stroke-linejoin="round" stroke-width="0.567"/>
      <line id="Line_82" data-name="Line 82" x1="11.812" y1="11.306" transform="translate(351.658 -741.659)" fill="#fffefe" stroke="#19191a" stroke-linecap="round" stroke-linejoin="round" stroke-width="0.567"/>
      <line id="Line_83" data-name="Line 83" x1="11.958" y1="11.445" transform="translate(349.884 -739.862)" fill="#fffefe" stroke="#19191a" stroke-linecap="round" stroke-linejoin="round" stroke-width="0.567"/>
      <line id="Line_84" data-name="Line 84" x1="12.041" y1="11.523" transform="translate(348.13 -738.046)" fill="#fffefe" stroke="#19191a" stroke-linecap="round" stroke-linejoin="round" stroke-width="0.567"/>
      <line id="Line_85" data-name="Line 85" x1="12.054" y1="11.536" transform="translate(346.4 -736.208)" fill="#fffefe" stroke="#19191a" stroke-linecap="round" stroke-linejoin="round" stroke-width="0.567"/>
      <line id="Line_86" data-name="Line 86" x1="11.993" y1="11.478" transform="translate(344.7 -734.341)" fill="#fffefe" stroke="#19191a" stroke-linecap="round" stroke-linejoin="round" stroke-width="0.567"/>
      <line id="Line_87" data-name="Line 87" x1="11.85" y1="11.342" transform="translate(343.038 -732.439)" fill="#fffefe" stroke="#19191a" stroke-linecap="round" stroke-linejoin="round" stroke-width="0.567"/>
      <line id="Line_88" data-name="Line 88" x1="11.612" y1="11.112" transform="translate(341.429 -730.484)" fill="#fffefe" stroke="#19191a" stroke-linecap="round" stroke-linejoin="round" stroke-width="0.567"/>
      <line id="Line_89" data-name="Line 89" x1="11.61" y1="10.434" transform="translate(339.907 -728.448)" fill="#fffefe" stroke="#19191a" stroke-linecap="round" stroke-linejoin="round" stroke-width="0.567"/>
    </g>
    <g id="袋" transform="translate(-211.158 602.082)">
      <path id="Path_15" data-name="Path 15" d="M212.029-706.92l-6.281,20.55q-19.341.761-39.961.827-23,.048-44.445-.827-3.14-10.275-6.281-20.55c15.207-11.9,12.528-34.38,12.528-34.38H199.5S196.823-718.821,212.029-706.92Z" fill="#fffefe" stroke="#19191a" stroke-linecap="round" stroke-linejoin="round" stroke-width="0.567"/>
      <g id="Group_39" data-name="Group 39">
        <path id="Path_16" data-name="Path 16" d="M130.929-741.355S135.171-716.463,116-704.1" fill="none" stroke="#19191a" stroke-linecap="round" stroke-linejoin="round" stroke-width="0.567"/>
        <path id="Path_17" data-name="Path 17" d="M132.443-741.355s4.547,25.915-16,38.787" fill="none" stroke="#19191a" stroke-linecap="round" stroke-linejoin="round" stroke-width="0.567"/>
        <path id="Path_18" data-name="Path 18" d="M196.052-741.355s-4.243,24.892,14.931,37.256" fill="none" stroke="#19191a" stroke-linecap="round" stroke-linejoin="round" stroke-width="0.567"/>
        <path id="Path_19" data-name="Path 19" d="M194.538-741.355s-4.548,25.915,16,38.787" fill="none" stroke="#19191a" stroke-linecap="round" stroke-linejoin="round" stroke-width="0.567"/>
      </g>
    </g>
    <g id="Group_43" data-name="Group 43" transform="translate(-211.158 602.082)">
      <g id="Group_42" data-name="Group 42">
        <g id="Group_40" data-name="Group 40">
          <path id="Path_20" data-name="Path 20" d="M128.637-885.522l.1.042-.1-.041c-.212-.1-.462-.214-.735-.351C128.175-885.736,128.425-885.618,128.637-885.522Z" fill="#fffefe" stroke="#19191a" stroke-linecap="round" stroke-linejoin="round" stroke-width="0.567"/>
          <ellipse id="Ellipse_1" data-name="Ellipse 1" cx="2.018" cy="2.096" rx="2.018" ry="2.096" transform="translate(148.669 -875.814)" fill="#fffefe" stroke="#19191a" stroke-linecap="round" stroke-linejoin="round" stroke-width="0.567"/>
          <path id="Path_21" data-name="Path 21" d="M136.325-892.085c-.631,2.02-7.275,6.724-7.275,6.724l-.111-.039c-.072-.026-.141-.053-.207-.08l-.1-.041c-.212-.1-.462-.214-.735-.351q-.137-.067-.279-.141c-.1-.048-.193-.1-.291-.152s-.2-.105-.3-.161l-.1-.055c-.1-.056-.2-.113-.306-.172-.136-.078-.273-.157-.409-.239-.1-.06-.2-.122-.3-.185-1.268-.793-2.355-1.692-2.155-2.31a.556.556,0,0,1,.153-.234.989.989,0,0,1,.2-.14,4.113,4.113,0,0,1,.566-.255c.159-.059.337-.119.53-.178l.083-.025c.2-.06.41-.118.636-.178l.2-.05.307-.075.1-.026.213-.049.218-.05.11-.024.339-.074.347-.073.236-.047C131.313-891.434,135.51-891.982,136.325-892.085Z" fill="#fffefe" stroke="#19191a" stroke-linecap="round" stroke-linejoin="round" stroke-width="0.567"/>
          <path id="Path_22" data-name="Path 22" d="M149.959-877.721c-4.947-2.272-10.473-4.968-12.158-5.679-2.452-1.035-6.727-1.281-8.751-1.961,0,0,6.644-4.7,7.275-6.724s1.791-4.344,4.425-4.444c.445-.018,1.093,0,1.917.048l-.058.029h0c-2.592,1.286-2.473,4.59-.276,7.5C144.542-886.026,149.373-880.219,149.959-877.721Z" fill="#fffefe" stroke="#19191a" stroke-linecap="round" stroke-linejoin="round" stroke-width="0.567"/>
          <path id="Path_23" data-name="Path 23" d="M185.938-888.955c-2.212,2.929-7.042,8.736-7.629,11.234-2.781,1.28-5.381,2.424-7.011,3.005-.13.046-.256.1-.38.146-.061.024-.12.049-.179.075-.136.059-.27.122-.4.187-.091.044-.181.09-.269.138l-.157.088c-.041.023-.082.046-.121.07-.129.075-.255.153-.376.235-.042.026-.084.054-.125.083-.136.093-.269.189-.4.287-.046.034-.09.069-.133.1s-.067.054-.1.081c-.224.183-.433.374-.629.568-.024.024-.049.047-.072.071s-.05.051-.074.077q-.2.205-.38.416-.05.057-.1.114c-.032.038-.062.077-.093.114s-.061.076-.091.115c-.149.19-.286.38-.412.566-.025.038-.049.075-.074.111l-.071.112c-.141.221-.266.437-.375.643-.019.034-.036.069-.054.1s-.034.067-.05.1c-.1.2-.187.389-.257.562l-.036.086c-.053.137-.1.262-.135.376-.008.024-.015.047-.022.069l-.006.019c-.013.041-.024.08-.034.118a2,2,0,0,0-.064.327c-.062.886-.07,2.648-.072,3.113-.471.016-.947.024-1.431.024h-.012c-.479,0-.953-.008-1.419-.023,0-.464-.009-2.227-.072-3.114a9.039,9.039,0,0,0-5.1-5.94c-.058-.026-.117-.051-.178-.075-.125-.051-.25-.1-.38-.146-1.63-.581-4.23-1.725-7.012-3.005-.586-2.5-5.417-8.3-7.628-11.234-2.2-2.907-2.316-6.211.276-7.5h0c.792.44,9.82,2.638,21.525,2.638s20.734-2.2,21.526-2.638h0C188.254-895.166,188.135-891.862,185.938-888.955Z" fill="#fffefe" stroke="#19191a" stroke-linecap="round" stroke-linejoin="round" stroke-width="0.567"/>
          <path id="Path_24" data-name="Path 24" d="M162.631-868.555a9.039,9.039,0,0,0-5.1-5.94c-.058-.026-.117-.051-.178-.075-.125-.051-.25-.1-.38-.146-1.63-.581-4.23-1.725-7.012-3.005-4.947-2.272-10.473-4.968-12.158-5.679-2.452-1.035-6.727-1.281-8.751-1.961l-.111-.039c-.072-.026-.141-.053-.207-.08l-.1-.041c-.212-.1-.462-.214-.735-.351q-.137-.067-.279-.141c-.1-.048-.193-.1-.291-.152s-.2-.105-.3-.161l-.1-.055c-.1-.056-.2-.113-.306-.172-.136-.078-.273-.157-.409-.239-.1-.06-.2-.122-.3-.185-1.268-.793-2.355-1.692-2.155-2.31a.556.556,0,0,1,.153-.234.956.956,0,0,1,.2-.141,4.007,4.007,0,0,1,.566-.254c.159-.059.337-.119.53-.178l.083-.025q.3-.09.636-.178l.2-.05c.1-.026.2-.051.307-.075l.1-.026.213-.049.218-.05.11-.024c.112-.026.225-.05.339-.074l.347-.073.236-.047c3.321-.669,7.518-1.217,8.333-1.32-16.958-1.011-14.851,2.221-14.745,5.15s3.791,5.858.631,6.867c-2.916.934-3.193,5.487-3.255,6.429-.056.859,14.58.631,18.739,1.752,5.28,1.421,15.749,6.67,26.439,6.67A14.2,14.2,0,0,1,162.631-868.555Zm-11.944-3.068a2.059,2.059,0,0,1-2.018-2.1,2.058,2.058,0,0,1,2.018-2.1,2.057,2.057,0,0,1,2.017,2.1A2.058,2.058,0,0,1,150.687-871.623Z" fill="#fffefe" stroke="#19191a" stroke-linecap="round" stroke-linejoin="round" stroke-width="0.567"/>
        </g>
        <g id="Group_41" data-name="Group 41">
          <ellipse id="Ellipse_2" data-name="Ellipse 2" cx="2.018" cy="2.096" rx="2.018" ry="2.096" transform="translate(175.564 -875.814)" fill="#fffefe" stroke="#19191a" stroke-linecap="round" stroke-linejoin="round" stroke-width="0.567"/>
          <path id="Path_25" data-name="Path 25" d="M199.631-885.522c.213-.1.463-.214.735-.35-.272.137-.522.255-.735.351l-.094.041C199.568-885.495,199.6-885.508,199.631-885.522Z" fill="#fffefe" stroke="#19191a" stroke-linecap="round" stroke-linejoin="round" stroke-width="0.567"/>
          <path id="Path_26" data-name="Path 26" d="M202.355-886.977c-.1.063-.2.125-.3.185-.135.082-.272.161-.409.239-.1.059-.2.116-.305.172l-.1.055c-.1.056-.2.11-.3.161s-.2.1-.291.152-.188.1-.28.141c-.272.137-.522.255-.735.351l-.094.041c-.067.027-.135.054-.208.08l-.11.039s-6.644-4.7-7.276-6.724c.816.1,5.013.651,8.334,1.32l.236.047.347.073.338.074.11.024.219.05.212.049.1.026.306.075.2.05c.226.06.439.118.636.178l.084.025c.193.059.37.119.53.178a4.04,4.04,0,0,1,.565.255.961.961,0,0,1,.2.14.557.557,0,0,1,.154.234C204.711-888.669,203.624-887.77,202.355-886.977Z" fill="#fffefe" stroke="#19191a" stroke-linecap="round" stroke-linejoin="round" stroke-width="0.567"/>
          <path id="Path_27" data-name="Path 27" d="M199.219-885.361c-2.024.68-6.3.926-8.751,1.961-1.685.711-7.211,3.407-12.159,5.679.587-2.5,5.417-8.3,7.629-11.234,2.2-2.907,2.316-6.211-.277-7.5h0l-.058-.029c.824-.045,1.472-.066,1.917-.048,2.634.1,3.792,2.423,4.424,4.444S199.219-885.361,199.219-885.361Z" fill="#fffefe" stroke="#19191a" stroke-linecap="round" stroke-linejoin="round" stroke-width="0.567"/>
          <path id="Path_28" data-name="Path 28" d="M206.058-880.068c-3.161-1.009.526-3.939.631-6.867s2.213-6.161-14.746-5.15c.816.1,5.013.651,8.334,1.32l.236.047.347.073c.113.024.227.048.338.074l.11.024.219.05.212.049.1.026c.105.024.206.049.306.075l.2.05c.226.059.439.118.636.178l.084.025c.193.059.37.119.53.178a3.938,3.938,0,0,1,.565.254.93.93,0,0,1,.2.141.557.557,0,0,1,.154.234c.2.618-.887,1.517-2.156,2.31-.1.063-.2.125-.3.185-.135.082-.272.161-.409.239-.1.059-.2.116-.305.172l-.1.055c-.1.056-.2.11-.3.161s-.2.1-.291.152-.188.1-.28.141c-.272.137-.522.255-.735.351l-.094.041c-.067.027-.135.054-.208.08l-.11.039c-2.024.68-6.3.926-8.751,1.961-1.685.711-7.211,3.407-12.159,5.679-2.781,1.28-5.381,2.424-7.011,3.005-.13.046-.256.1-.38.146-.061.024-.12.049-.179.075-.125.055-.248.112-.367.172l-.033.015c-.091.044-.181.09-.269.138l-.157.088c-.041.023-.082.046-.121.07-.129.075-.255.153-.376.235-.042.026-.084.054-.125.083-.136.093-.269.189-.4.287-.046.034-.09.069-.133.1s-.067.054-.1.081c-.224.183-.433.374-.629.568-.024.024-.049.047-.072.071l-.074.077q-.2.205-.38.416-.05.057-.1.114c-.032.038-.062.077-.093.114s-.061.076-.091.115c-.149.19-.286.38-.412.566-.025.038-.049.075-.074.111l-.071.112c-.141.221-.266.437-.375.643-.019.034-.036.069-.054.1s-.034.067-.05.1c-.1.2-.187.389-.257.562l-.036.086c-.053.137-.1.262-.135.376-.008.023-.015.047-.022.069l-.006.019c-.013.041-.024.08-.034.118a2,2,0,0,0-.064.327,14.177,14.177,0,0,1-1.5,3.338c10.911,0,21.159-5.249,26.44-6.67,4.154-1.12,18.685-.672,18.628-1.532C209.141-874.361,208.973-879.134,206.058-880.068Zm-28.476,8.445a2.059,2.059,0,0,1-2.018-2.1,2.058,2.058,0,0,1,2.018-2.1,2.058,2.058,0,0,1,2.018,2.1A2.059,2.059,0,0,1,177.582-871.623Z" fill="#fffefe" stroke="#19191a" stroke-linecap="round" stroke-linejoin="round" stroke-width="0.567"/>
        </g>
      </g>
      <ellipse id="Ellipse_3" data-name="Ellipse 3" cx="2.018" cy="2.096" rx="2.018" ry="2.096" transform="translate(148.669 -875.814)" fill="#fffefe" stroke="#19191a" stroke-linecap="round" stroke-linejoin="round" stroke-width="0.567"/>
      <ellipse id="Ellipse_4" data-name="Ellipse 4" cx="2.018" cy="2.096" rx="2.018" ry="2.096" transform="translate(175.564 -875.814)" fill="#fffefe" stroke="#19191a" stroke-linecap="round" stroke-linejoin="round" stroke-width="0.567"/>
    </g>
    <g id="Group_47" data-name="Group 47" transform="translate(-211.158 602.082)">
      <g id="Group_45" data-name="Group 45">
        <path id="Path_33" data-name="Path 33" d="M172.923-825.73l2.5-.05c0-19.827,1.169-41.754,3.158-46.085.2-.44.413-.7.631-.754a2.564,2.564,0,0,0,.245-1.11,1.9,1.9,0,0,0-1.614-2.1h-.04c-.554.042-1.067.944-1.537,2.535C174.147-866.125,172.923-845,172.923-825.73Z" fill="#fffefe" stroke="#19191a" stroke-linecap="round" stroke-linejoin="round" stroke-width="0.567"/>
      </g>
      <g id="Group_46" data-name="Group 46">
        <path id="Path_34" data-name="Path 34" d="M155.345-825.73l-2.5-.05c0-19.827-1.17-41.754-3.158-46.085-.2-.44-.413-.7-.631-.754a2.564,2.564,0,0,1-.245-1.11,1.9,1.9,0,0,1,1.613-2.1h.04c.554.042,1.068.944,1.538,2.535C154.121-866.125,155.345-845,155.345-825.73Z" fill="#fffefe" stroke="#19191a" stroke-linecap="round" stroke-linejoin="round" stroke-width="0.567"/>
        <rect id="Rectangle_43" data-name="Rectangle 43" width="2.017" height="9.28" transform="translate(175.181 -816.45) rotate(-180)" fill="#fffefe" stroke="#19191a" stroke-linecap="round" stroke-linejoin="round" stroke-width="0.567"/>
        <rect id="Rectangle_44" data-name="Rectangle 44" width="2.017" height="9.28" transform="translate(153.088 -825.73)" fill="#fffefe" stroke="#19191a" stroke-linecap="round" stroke-linejoin="round" stroke-width="0.567"/>
      </g>
    </g>
    <g id="正常" transform="translate(-211.158 602.082)">
      <rect id="Rectangle_45" data-name="Rectangle 45" width="3.196" height="195.203" transform="translate(162.757 -865.21)" fill="#fffefe" stroke="#19191a" stroke-linecap="round" stroke-linejoin="round" stroke-width="0.567"/>
      <line id="Line_180" data-name="Line 180" y2="195.203" transform="translate(164.355 -865.21)" fill="#fffefe" stroke="#19191a" stroke-linecap="round" stroke-linejoin="round" stroke-width="0.567"/>
      <g id="Group_48" data-name="Group 48">
        <rect id="Rectangle_46" data-name="Rectangle 46" width="4.029" height="10.306" transform="translate(162.34 -865.979)" fill="#fffefe" stroke="#19191a" stroke-linecap="round" stroke-linejoin="round" stroke-width="0.567"/>
        <rect id="Rectangle_47" data-name="Rectangle 47" width="1.763" height="1.511" transform="translate(163.473 -858.237)" fill="#fffefe" stroke="#19191a" stroke-linecap="round" stroke-linejoin="round" stroke-width="0.567"/>
      </g>
    </g>
  </g>
</svg>
